<svg width="765" height="468" viewBox="0 0 765 468" fill="none" xmlns="http://www.w3.org/2000/svg">
<path d="M716.667 294.241L701.394 294.566L693.664 294.693C691.088 294.752 688.488 294.694 685.9 294.763H685.389V294.241L685.354 281.219V280.639H685.935L701.301 280.709C706.419 280.709 711.549 280.836 716.667 280.894H716.98V281.219C716.98 283.424 716.887 285.618 716.829 287.788L716.667 294.241ZM716.667 294.241L716.504 287.684C716.504 285.525 716.377 283.389 716.354 281.254L716.667 281.579C711.549 281.637 706.419 281.765 701.301 281.765L685.935 281.834L686.515 281.254L686.445 294.241L685.935 293.73C688.465 293.73 690.995 293.73 693.525 293.788L701.162 293.928L716.667 294.241Z" fill="#EBEBEB"/>
<path d="M699.525 310.617L684.287 310.942L676.557 311.069C673.981 311.069 671.381 311.069 668.793 311.139H668.271V310.617L668.213 297.63V297.05H668.793L684.159 297.131C689.277 297.131 694.396 297.258 699.525 297.316H699.839V297.63C699.839 299.835 699.734 302.028 699.688 304.199L699.525 310.617ZM699.525 310.617L699.363 304.059C699.363 301.901 699.224 299.765 699.2 297.63L699.525 297.955C694.396 298.013 689.277 298.14 684.159 298.14L668.793 298.21L669.373 297.63L669.304 310.617L668.793 310.106C671.323 310.106 673.842 310.106 676.383 310.164L684.02 310.303L699.525 310.617Z" fill="#EBEBEB"/>
<path d="M78.536 294.241L63.3092 294.566L55.5798 294.693C52.9917 294.752 50.392 294.694 47.8039 294.763H47.2933V294.241L47.2236 281.219V280.639H47.8039L63.17 280.709C68.2881 280.709 73.4178 280.836 78.536 280.894H78.861V281.219C78.861 283.424 78.7681 285.618 78.7101 287.788L78.536 294.241ZM78.536 294.241L78.3735 287.684C78.3155 285.525 78.2458 283.389 78.2226 281.254L78.536 281.579C73.4178 281.637 68.2881 281.765 63.17 281.765L47.8039 281.834L48.3842 281.254V294.241L47.862 293.73C50.392 293.73 52.9221 293.73 55.4637 293.788L63.0771 293.986L78.536 294.241Z" fill="#EBEBEB"/>
<path d="M61.3945 310.617L46.1561 310.942L38.4267 311.069C35.8502 311.069 33.2505 311.069 30.6624 311.139H30.1518V310.617L30.0938 297.63V297.05H30.674L46.0401 297.131C51.1582 297.131 56.288 297.258 61.4061 297.316H61.7311V297.63C61.7311 299.835 61.6382 302.028 61.5802 304.199L61.3945 310.617ZM61.3945 310.617L61.232 304.059C61.232 301.901 61.1043 299.765 61.0811 297.63L61.3945 297.955C56.2764 298.013 51.1466 298.14 46.0285 298.14L30.6624 298.21L31.2427 297.63L31.1731 310.617L30.6624 310.106C33.1925 310.106 35.7225 310.106 38.2526 310.164L45.8892 310.303L61.3945 310.617Z" fill="#EBEBEB"/>
<path d="M733.809 310.617L718.582 310.942L710.853 311.069C708.265 311.069 705.665 311.069 703.077 311.139H702.555V310.617V297.63V297.05H703.135L718.501 297.131C723.619 297.131 728.749 297.258 733.867 297.316H734.192V297.63C734.192 299.835 734.099 302.028 734.041 304.199L733.809 310.617ZM733.809 310.617L733.647 304.059C733.647 301.901 733.519 299.765 733.496 297.63L733.809 297.955C728.691 298.013 723.561 298.14 718.443 298.14L703.077 298.21L703.657 297.63L703.599 310.617L703.077 310.106C705.607 310.106 708.137 310.106 710.679 310.164L718.315 310.303L733.809 310.617Z" fill="#EBEBEB"/>
<path d="M496.772 100.599L481.534 100.924L473.805 101.051C471.228 101.109 468.628 101.051 466.04 101.121H465.518V100.599L465.46 87.6119V87.0316H466.04L481.406 87.1012C486.524 87.1012 491.654 87.2405 496.772 87.2986H497.132V87.6119C497.132 89.817 497.039 92.0105 496.981 94.1692L496.772 100.599ZM496.772 100.599L496.61 94.0415C496.552 91.8712 496.471 89.7358 496.459 87.6119L496.772 87.9253C491.654 87.9253 486.524 88.111 481.406 88.1226L466.04 88.1922L466.621 87.6119L466.551 100.599L466.04 100.076C468.57 100.076 471.1 100.076 473.63 100.146L481.267 100.274L496.772 100.599Z" fill="#EBEBEB"/>
<path d="M479.631 116.974L464.392 117.299L456.663 117.427C454.087 117.427 451.487 117.427 448.899 117.497H448.388V116.974L448.33 103.988V103.407H448.922L464.288 103.477C469.406 103.477 474.524 103.616 479.654 103.674H479.967V103.988C479.967 106.193 479.863 108.386 479.816 110.545L479.631 116.974ZM479.631 116.974L479.468 110.417C479.468 108.247 479.329 106.111 479.306 103.988L479.631 104.301C474.501 104.359 469.383 104.487 464.265 104.498L448.899 104.568L449.479 103.988L449.409 116.974L448.899 116.452C451.429 116.452 453.947 116.452 456.489 116.522L464.126 116.65L479.631 116.974Z" fill="#EBEBEB"/>
<path d="M513.914 116.974L498.687 117.299L490.946 117.427C488.369 117.427 485.77 117.427 483.182 117.497H482.671V116.974V103.988V103.407H483.251L498.617 103.477C503.735 103.477 508.865 103.616 513.983 103.674H514.308V103.988C514.308 106.193 514.215 108.386 514.157 110.545L513.914 116.974ZM513.914 116.974L513.751 110.417C513.693 108.247 513.623 106.111 513.6 103.988L513.914 104.301C508.795 104.359 503.666 104.487 498.548 104.498L483.182 104.568L483.762 103.988L483.704 116.974L483.205 116.417C485.735 116.417 488.265 116.417 490.807 116.487L498.432 116.615L513.914 116.974Z" fill="#EBEBEB"/>
<path d="M120.722 225.639L105.484 225.964L97.7543 226.092C95.1778 226.092 92.5781 226.092 89.99 226.15H89.4678V225.628V212.641V212.061H90.0481L105.414 212.13C110.532 212.13 115.65 212.258 120.78 212.316H121.093V212.629C121.093 214.834 120.989 217.016 120.943 219.186L120.722 225.639ZM120.722 225.639L120.56 219.07C120.502 216.912 120.42 214.776 120.397 212.652L120.722 212.966C115.592 213.024 110.474 213.151 105.356 213.151L89.99 213.233L90.5703 212.652L90.5007 225.639L89.99 225.117C92.5201 225.117 95.0501 225.117 97.5802 225.187L105.217 225.314L120.722 225.639Z" fill="#EBEBEB"/>
<path d="M261.93 344.192L246.692 344.517L238.962 344.645C236.386 344.703 233.786 344.645 231.198 344.714H230.688V344.192V331.205V330.625H231.268L246.634 330.706C251.752 330.706 256.882 330.834 262 330.892H262.313V331.205C262.313 333.41 262.22 335.604 262.162 337.774L261.93 344.192ZM261.93 344.192L261.768 337.635C261.71 335.476 261.628 333.329 261.617 331.205L261.93 331.53C256.812 331.53 251.682 331.704 246.564 331.716L231.198 331.786L231.778 331.205L231.709 344.192L231.198 343.681C233.728 343.681 236.258 343.681 238.788 343.74L246.448 343.89L261.93 344.192Z" fill="#EBEBEB"/>
<path d="M714.891 13.5671L699.653 13.8921L691.924 14.0198C689.347 14.0198 686.747 14.0198 684.159 14.0894H683.637V13.5671L683.579 0.580288V0H684.159L699.525 0.0696362C704.644 0.0696362 709.762 0.208903 714.891 0.266932H715.205V0.580288C715.205 2.78538 715.1 4.97887 715.054 7.13755L714.891 13.5671ZM714.891 13.5671L714.729 7.00988C714.729 4.8396 714.59 2.70414 714.566 0.580288L714.891 0.893644C709.762 0.893644 704.644 1.07934 699.525 1.09094L684.159 1.16058L684.74 0.580288L684.67 13.5671L684.159 13.0449C686.689 13.0449 689.219 13.0449 691.75 13.1145L699.386 13.2422L714.891 13.5671Z" fill="#EBEBEB"/>
<path d="M732.033 29.9429L716.795 30.2678L709.065 30.3955C706.489 30.4535 703.889 30.3955 701.301 30.4535H700.79V29.9313L700.732 16.9444V16.3641H701.313L716.679 16.4338C721.797 16.4338 726.927 16.573 732.045 16.6311H732.37V16.9444C732.37 19.1495 732.277 21.343 732.219 23.5017L732.033 29.9429ZM732.033 29.9429L731.871 23.3856C731.871 21.2153 731.743 19.0799 731.72 16.956L732.033 17.2694C726.915 17.3274 721.785 17.4551 716.667 17.4667L701.301 17.5363L701.881 16.956L701.812 29.9429L701.301 29.4206C703.831 29.4206 706.361 29.4206 708.891 29.4903L716.528 29.6179L732.033 29.9429Z" fill="#EBEBEB"/>
<path d="M61.3934 13.5787L46.155 13.9037L38.4256 14.0314C35.8491 14.0314 33.2494 14.0314 30.6613 14.101H30.1507V13.5787L30.0811 0.591885V0.0115967H30.6613L46.0274 0.0928367C51.1455 0.0928367 56.2753 0.2205 61.3934 0.278529H61.7184V0.591885C61.7184 2.79698 61.6255 4.99047 61.5675 7.16075L61.3934 13.5787ZM61.3934 13.5787L61.2309 7.02148C61.2309 4.8512 61.1033 2.71574 61.0801 0.591885L61.3934 0.905241C56.2753 0.974876 51.1455 1.09093 46.0274 1.10254L30.6613 1.17217L31.2416 0.591885L31.172 13.5787L30.6613 13.1261C33.1914 13.1261 35.7215 13.1261 38.2515 13.1261L45.8881 13.2538L61.3934 13.5787Z" fill="#EBEBEB"/>
<path d="M50.9838 384.719H164.477L164.477 173.645H50.9838L50.9838 384.719Z" fill="#EBEBEB"/>
<path d="M45.4941 173.646L169.978 173.646V167.819L45.4941 167.819V173.646Z" fill="#DBDBDB"/>
<path d="M6.33619 173.646H45.4824V167.819H6.33619V173.646Z" fill="#EBEBEB"/>
<path d="M12.5335 384.719H50.9834L50.9834 173.645H12.5335L12.5335 384.719Z" fill="#DBDBDB"/>
<path d="M152.255 309.572H63.1924V259.226H152.255V309.572ZM63.4825 309.282H151.965V259.516H63.4825V309.282Z" fill="#C7C7C7"/>
<path d="M102.826 283.912H120.165V273.943H102.826V283.912Z" fill="#C7C7C7"/>
<path d="M115.175 283.308H97.5459V274.546H115.175V283.308ZM97.8941 283.018H114.943V274.836H97.8941V283.018Z" fill="#C7C7C7"/>
<path d="M152.255 372.8H63.1924V322.455H152.255V372.8ZM63.4825 372.51H151.965V322.745H63.4825V372.51Z" fill="#C7C7C7"/>
<path d="M102.826 347.14H120.165V337.171H102.826V347.14Z" fill="#C7C7C7"/>
<path d="M115.175 346.537H97.5459V337.786H115.175V346.537ZM97.8941 346.212H114.943V338.088H97.8941V346.212Z" fill="#C7C7C7"/>
<path d="M63.3437 246.193H152.116V196.149H63.3437V246.193Z" fill="#A6A6A6"/>
<path d="M139.571 183.336H71.9902V232.324H139.571V183.336Z" fill="#C7C7C7"/>
<path d="M115.685 178.253H139.57V183.336H114.315L115.685 178.253Z" fill="#C7C7C7"/>
<path d="M72.1641 232.312H139.744L144.955 187.398H77.375L72.1641 232.312Z" fill="#A6A6A6"/>
<path d="M121.616 182.744H145.489L144.955 187.398H119.701L121.616 182.744Z" fill="#A6A6A6"/>
<path d="M106.1 246.193H194.872V196.149H106.1V246.193Z" fill="#EBEBEB"/>
<path d="M195.023 246.402H106.019V195.998H195.081L195.023 246.402ZM106.251 246.112H194.733V196.288H106.251V246.112Z" fill="#C7C7C7"/>
<path d="M145.582 220.684H162.921V210.714H145.582V220.684Z" fill="#C7C7C7"/>
<path d="M157.942 220.069H140.312V211.318H157.942V220.069ZM140.603 219.778H157.652V211.654H140.603V219.778Z" fill="#C7C7C7"/>
<path d="M63.3429 246.193H105.89V203.646H63.3429L63.3429 246.193Z" fill="#DBDBDB"/>
<path d="M703.877 326.238H626.327V384.72H703.877V326.238Z" fill="#EBEBEB"/>
<path d="M743.929 326.238H703.889V384.72H743.929V326.238Z" fill="#DBDBDB"/>
<path d="M741.167 381.029C738.211 376.858 735.275 372.684 732.358 368.506L723.665 355.925L715.089 343.298C712.249 339.074 709.433 334.842 706.64 330.602C709.611 334.757 712.551 338.927 715.46 343.113L724.141 355.693L732.729 368.262C735.577 372.502 738.389 376.758 741.167 381.029Z" fill="#EBEBEB"/>
<path d="M741.167 330.567C738.381 334.815 735.565 339.047 732.718 343.264L724.141 355.891L715.46 368.471C712.551 372.665 709.611 376.839 706.64 380.994C709.441 376.746 712.257 372.491 715.089 368.228L723.665 355.601L732.358 343.02C735.259 338.873 738.196 334.722 741.167 330.567Z" fill="#EBEBEB"/>
<path d="M681.698 335.488H648.518V343.113H681.698V335.488Z" fill="#C7C7C7"/>
<path d="M685.122 354.846H645.082V366.986H685.122V354.846Z" fill="white"/>
<path d="M747.654 317.719H622.567V326.157H747.654V317.719Z" fill="#C7C7C7"/>
<path d="M720.706 259.238H643.156V317.719H720.706V259.238Z" fill="#EBEBEB"/>
<path d="M760.746 259.238H720.706V317.719H760.746V259.238Z" fill="#DBDBDB"/>
<path d="M757.995 313.994C755.024 309.824 752.084 305.649 749.174 301.471L740.482 288.902L731.905 276.264C729.066 272.055 726.253 267.822 723.468 263.567C726.431 267.722 729.367 271.892 732.277 276.078L740.969 288.659L749.546 301.297C752.393 305.514 755.21 309.746 757.995 313.994Z" fill="#EBEBEB"/>
<path d="M757.995 263.567C755.194 267.815 752.378 272.047 749.546 276.264L740.969 288.902L732.277 301.471C729.375 305.665 726.439 309.839 723.468 313.994C726.253 309.746 729.066 305.514 731.905 301.297L740.482 288.659L749.174 276.078C752.091 271.9 755.032 267.729 757.995 263.567Z" fill="#EBEBEB"/>
<path d="M698.516 268.488H665.335V276.113H698.516V268.488Z" fill="#C7C7C7"/>
<path d="M701.951 287.846H661.911V299.986H701.951V287.846Z" fill="white"/>
<path d="M764.471 250.731H639.384V259.168H764.471V250.731Z" fill="#C7C7C7"/>
<path opacity="0.19" d="M443.374 58.2261C457.501 58.2261 468.953 46.7739 468.953 32.647C468.953 18.52 457.501 7.06787 443.374 7.06787C429.247 7.06787 417.795 18.52 417.795 32.647C417.795 46.7739 429.247 58.2261 443.374 58.2261Z" fill="#EBEBEB"/>
<path opacity="0.19" d="M461.767 41.5454C464.352 31.396 458.22 21.0727 448.071 18.4875C437.921 15.9024 427.598 22.0344 425.013 32.1837C422.428 42.3331 428.56 52.6565 438.709 55.2416C448.858 57.8268 459.182 51.6948 461.767 41.5454Z" fill="#EBEBEB"/>
<path d="M471.297 36.8599L453.633 66.9652H433.126L415.45 36.8599H471.297Z" fill="#EBEBEB"/>
<path d="M458.427 77.1088H428.333L433.126 66.9653H453.634L458.427 77.1088Z" fill="#EBEBEB"/>
<path d="M456.825 61.5337L453.633 66.9652H433.114L430.7 62.8567L456.825 61.5337Z" fill="#C7C7C7"/>
<path opacity="0.19" d="M552.84 58.2261C566.967 58.2261 578.419 46.7739 578.419 32.647C578.419 18.52 566.967 7.06787 552.84 7.06787C538.713 7.06787 527.261 18.52 527.261 32.647C527.261 46.7739 538.713 58.2261 552.84 58.2261Z" fill="#EBEBEB"/>
<path opacity="0.19" d="M563.616 52.4238C572.228 46.463 574.377 34.6496 568.416 26.0379C562.455 17.4262 550.642 15.2772 542.03 21.238C533.419 27.1988 531.27 39.0122 537.23 47.6239C543.191 56.2356 555.005 58.3846 563.616 52.4238Z" fill="#EBEBEB"/>
<path d="M580.763 36.8599L563.087 66.9652H542.58L524.916 36.8599H580.763Z" fill="#EBEBEB"/>
<path d="M567.892 77.1088H537.787L542.58 66.9653H563.088L567.892 77.1088Z" fill="#EBEBEB"/>
<path d="M566.291 61.5337L563.099 66.9652H542.58L540.166 62.8567L566.291 61.5337Z" fill="#C7C7C7"/>
<path opacity="0.19" d="M662.306 58.2261C676.433 58.2261 687.885 46.7739 687.885 32.647C687.885 18.52 676.433 7.06787 662.306 7.06787C648.179 7.06787 636.727 18.52 636.727 32.647C636.727 46.7739 648.179 58.2261 662.306 58.2261Z" fill="#EBEBEB"/>
<path opacity="0.19" d="M672.728 52.6472C681.47 46.8803 683.883 35.1179 678.116 26.3752C672.349 17.6325 660.586 15.2201 651.844 20.9871C643.101 26.754 640.689 38.5164 646.456 47.2592C652.223 56.0019 663.985 58.4142 672.728 52.6472Z" fill="#EBEBEB"/>
<path d="M690.229 36.8599L672.553 66.9652H652.046L634.37 36.8599H690.229Z" fill="#EBEBEB"/>
<path d="M677.358 77.1088H647.253L652.046 66.9653H672.554L677.358 77.1088Z" fill="#EBEBEB"/>
<path d="M675.756 61.5337L672.565 66.9652H652.046L649.62 62.8567L675.756 61.5337Z" fill="#C7C7C7"/>
<path d="M0 384.719L95.5503 384.441L191.112 384.336L382.236 384.139L573.36 384.336L668.91 384.441L764.472 384.719L668.91 385.009L573.36 385.102L382.236 385.3L191.112 385.102L95.5503 384.998L0 384.719Z" fill="#263238"/>
<path d="M382.235 467.457C580.34 467.457 740.935 455.885 740.935 441.611C740.935 427.337 580.34 415.765 382.235 415.765C184.131 415.765 23.5361 427.337 23.5361 441.611C23.5361 455.885 184.131 467.457 382.235 467.457Z" fill="#EBEBEB"/>
<path d="M269.847 253.18C270.194 247.319 271.021 241.497 272.319 235.771C273.549 230.618 275.29 225.326 278.54 221.09C281.511 217.19 285.782 214.126 290.738 213.488C295.519 212.908 300.022 215.032 303.574 218.037C307.995 221.775 311.384 226.707 314.576 231.489C318.058 236.845 321.228 242.398 324.069 248.12C324.162 248.305 323.884 248.468 323.791 248.282C321.327 243.423 318.482 238.766 315.284 234.355C312.381 230.122 309.107 226.157 305.5 222.506C302.227 219.302 298.061 216.308 293.314 216.157C288.567 216.006 284.227 218.664 281.372 222.308C278.192 226.382 276.579 231.465 275.36 236.421C274.109 241.876 273.29 247.422 272.911 253.006C271.983 264.472 271.751 276.008 271.472 287.51C271.325 294.017 271.224 300.527 271.17 307.042C271.17 310.338 271.17 313.646 271.089 316.942C271.215 320.127 271.091 323.316 270.718 326.482C270.602 327.12 269.557 327.062 269.453 326.482C269.067 323.484 268.92 320.461 269.012 317.441C268.965 314.346 268.926 311.22 268.895 308.063C268.895 301.982 268.814 295.912 268.895 289.831C268.872 277.598 269.012 265.354 269.847 253.18Z" fill="#263238"/>
<path d="M286.234 244.533C286.85 241.284 287.94 237.059 289.786 234.541C293.117 230.026 296.749 231.988 293.384 236.99C290.938 240.706 289.352 244.92 288.741 249.327C288.741 249.327 294.324 257.3 301.067 261.222C300.776 258.159 299.906 253.447 300.51 248.897C301.798 239.044 307.763 239.613 306.312 247.423C305.152 253.702 304.641 260.364 304.966 263.254C307.216 264.7 309.632 265.869 312.162 266.735C311.779 265.575 311.361 264.228 310.908 262.569C308.518 253.737 314.39 250.963 314.599 255.954C314.99 260.19 315.767 264.381 316.92 268.476C320.158 269.567 322.839 270.31 324.475 270.879C328.722 272.453 332.517 275.047 335.524 278.434C338.59 275.657 341.137 272.356 343.045 268.685C340.99 266.921 337.729 264.286 333.215 261.095C324.754 255.118 327.69 247.574 334.375 252.263C339.226 255.652 342.975 261.93 344.681 265.145C346.948 259.546 348.232 253.598 348.476 247.563C341.826 241.319 325.381 232.614 330.336 232.614C334.793 232.614 344.774 239.16 348.441 241.678C348.347 239.964 348.161 238.255 347.884 236.56C341.617 232.452 321.261 226.115 324.499 224.235C328.062 222.216 342.267 228.784 346.55 230.873C345.739 228.082 344.468 225.446 342.789 223.074C334.131 211.469 318.522 207.499 311.709 209.705C306.893 211.271 308.297 223.492 307.264 223.074C287.917 215.275 279.12 220.776 286.234 244.533ZM333.69 243.187C335.06 241.528 341.42 246.414 339.575 249.083C337.729 251.752 331.915 245.311 333.69 243.187ZM300.498 232.742C302.169 233.798 299.697 239.972 297.121 238.104C294.927 236.537 298.815 231.686 300.498 232.765V232.742Z" fill="#96DA84"/>
<path d="M303.027 234.657C303.897 232.928 304.814 231.175 305.812 229.55C306.733 227.909 307.801 226.356 309.004 224.908C308.737 224.571 308.47 224.223 308.18 223.898C308.064 223.759 308.261 223.562 308.377 223.701C308.702 224.072 309.015 224.444 309.329 224.862C309.362 224.878 309.391 224.901 309.415 224.929C309.439 224.957 309.457 224.989 309.468 225.024C310.629 226.452 311.789 227.926 312.869 229.434C314.77 229.871 316.645 230.414 318.486 231.059C320.389 231.697 322.269 232.359 324.115 233.137C324.3 233.218 324.207 233.543 324.022 233.45C322.188 232.649 320.331 231.86 318.439 231.222C316.548 230.583 314.818 230.154 313.008 229.632C313.6 230.467 314.168 231.314 314.737 232.162C318.152 233.246 321.475 234.604 324.672 236.224C328.037 237.814 331.264 239.705 334.49 241.527C334.664 241.632 334.49 241.922 334.316 241.806C331.159 239.926 327.875 238.324 324.556 236.757C321.445 235.307 318.219 234.1 315.085 232.719C322.989 245.056 327.724 259.284 334.061 272.468C334.153 272.654 333.852 272.817 333.782 272.619C331.844 267.977 329.616 263.497 327.503 258.948C325.612 254.874 323.766 250.824 321.875 246.68C321.318 245.52 320.714 244.359 320.169 243.106C320.517 249.698 320.377 256.406 321.457 262.917C321.457 262.96 321.44 263.001 321.409 263.032C321.379 263.062 321.337 263.079 321.294 263.079C321.251 263.079 321.21 263.062 321.179 263.032C321.149 263.001 321.132 262.96 321.132 262.917C320.679 255.872 319.437 248.99 319.484 241.864C319.484 241.864 319.484 241.864 319.484 241.771C318.149 239.079 316.722 236.421 315.178 233.833C312.555 240.007 309.805 246.263 308.586 252.89C308.586 253.087 308.215 252.994 308.261 252.785C310.048 246.158 311.743 239.508 314.9 233.369C313.215 230.58 311.354 227.901 309.329 225.349C308.447 226.985 307.321 228.541 306.323 230.107C305.325 231.674 304.396 233.171 303.491 234.75C301.546 238.083 299.892 241.577 298.547 245.195C298.477 245.404 298.152 245.299 298.234 245.102C299.835 241.597 301.298 238.069 303.027 234.657Z" fill="#263238"/>
<path d="M240.716 249.652C245.788 244.568 251.683 237.895 259.529 237.907C267.096 237.907 272.655 244.011 275.858 250.29C279.201 256.87 280.408 264.31 281.348 271.552C282.463 280.22 283.134 288.939 283.356 297.676C283.495 302.527 283.472 307.39 283.356 312.241C283.347 317.162 282.959 322.074 282.195 326.934C282.056 327.712 280.802 327.747 280.756 326.934C280.524 322.849 280.686 318.741 280.756 314.655C280.826 310.57 280.756 306.601 280.57 302.574C280.268 294.45 279.677 286.326 278.725 278.202C277.889 271.134 277.228 263.869 275.104 257.044C273.201 250.882 269.626 243.849 263.382 241.145C254.863 237.454 246.542 244.185 240.971 249.884C240.82 250.011 240.565 249.802 240.716 249.652Z" fill="#263238"/>
<path d="M214.835 261.025C214.835 262.058 214.94 263.091 215.009 264.089C217.448 262.258 220.303 261.061 223.319 260.607C230.515 259.841 230.062 265.25 225.246 265.54C221.859 265.583 218.51 266.256 215.369 267.525C216.53 277.03 219.164 284.666 219.559 284.771C225.947 284.415 232.303 283.616 238.581 282.38C236.782 278.562 232.708 273.501 234.785 273.095C236.863 272.689 239.138 277.204 240.287 282.043C244.993 281.147 249.619 279.874 254.121 278.237C250.952 275.498 246.066 272.086 247.935 270.635C249.803 269.184 253.738 273.977 256.059 277.471C258.185 276.611 260.196 275.492 262.047 274.14C257.777 267.873 247.378 266.596 248.736 262.058C250.094 257.52 259.819 263.811 264.183 272.202C269.324 266.886 270.821 259.354 270.276 252.924C265.808 252.402 257.219 253.342 257.835 250.139C258.45 246.936 264.67 247.539 269.754 249.408C269.283 246.864 268.265 244.452 266.771 242.34C262.013 236.328 247.61 244.081 247.61 244.081C247.61 244.081 249.153 229.632 243.664 227.136C240.507 225.697 234.936 225.709 229.342 229.005C232.476 229.26 236.306 230.258 237.791 232.429C239.741 235.214 236.631 236.723 234.716 235.446C233.335 234.529 230.758 231.674 226.128 231.291C224.144 232.96 222.398 234.893 220.94 237.036C220.406 237.791 219.907 238.58 219.419 239.427C222.073 238.233 224.958 237.641 227.867 237.693C230.777 237.746 233.639 238.441 236.248 239.729C242.48 242.827 238.998 249.303 233.637 246.785C228.275 244.267 223.191 241.795 217.481 243.222C215.483 248.349 214.555 253.831 214.754 259.331C217.534 257.303 220.661 255.801 223.981 254.897C230.178 253.273 232.105 256.975 225.246 257.671C221.583 258.069 218.041 259.21 214.835 261.025ZM222.379 251.079C221.95 249.071 226.336 248.491 227.021 250.116C227.683 251.509 222.797 253.087 222.379 251.044V251.079ZM259.958 262.186C260.376 261.095 263.312 262.337 263.046 263.706C262.697 265.528 259.564 263.288 259.958 262.186ZM239.207 269.231C241.354 268.372 244.697 273.699 242.364 274.917C240.031 276.136 237.455 269.939 239.207 269.231Z" fill="#96DA84"/>
<path d="M220.395 283.738C223.621 278.341 226.813 272.909 230.202 267.606C231.78 265.145 233.44 262.72 235.157 260.352L234.38 260.166C233.962 260.074 233.532 259.992 233.103 259.923C232.105 259.752 231.107 259.613 230.109 259.505C229.169 259.412 228.217 259.354 227.265 259.342C226.253 259.286 225.237 259.341 224.236 259.505C224.12 259.505 224.097 259.342 224.236 259.342C225.246 259.342 226.279 259.25 227.289 259.238C228.298 259.226 229.25 259.238 230.236 259.308C231.223 259.377 232.07 259.458 232.975 259.598C233.486 259.667 233.985 259.76 234.484 259.865C234.789 259.909 235.092 259.971 235.389 260.05C237.146 257.644 238.96 255.288 240.833 252.982C235.242 250.262 229.289 248.363 223.157 247.342C223.052 247.342 223.157 247.168 223.157 247.18C229.379 248.04 235.427 249.877 241.076 252.623C242.109 251.358 243.154 250.093 244.198 248.839C245.243 247.586 246.612 246.065 247.68 244.568C247.75 244.475 247.889 244.568 247.808 244.661C246.358 246.266 244.99 247.943 243.711 249.686C246.017 251.296 248.212 253.061 250.28 254.967C252.427 256.87 254.527 258.832 256.558 260.863C256.64 260.932 256.558 261.048 256.442 260.979C254.434 258.971 252.345 257.068 250.164 255.246C247.982 253.423 245.684 251.764 243.49 249.977C242.991 250.65 242.492 251.311 241.981 251.961L241.227 252.948C241.227 252.948 241.227 252.948 241.169 253.017L238.662 256.313C239.64 257.729 240.476 259.237 241.157 260.816C241.877 262.337 242.515 263.915 243.096 265.459C244.248 268.755 245.148 272.134 245.788 275.567C245.788 275.672 245.649 275.718 245.626 275.567C244.932 272.186 243.95 268.87 242.689 265.656C242.063 264.008 241.343 262.395 240.612 260.793C239.881 259.191 239.126 257.926 238.5 256.453C237.769 257.416 237.049 258.379 236.341 259.354C236.144 259.644 235.946 259.934 235.738 260.213C235.748 260.226 235.755 260.242 235.757 260.26C235.759 260.277 235.757 260.294 235.749 260.31C235.742 260.325 235.731 260.339 235.716 260.348C235.702 260.358 235.685 260.363 235.668 260.364C233.451 263.451 231.339 266.631 229.285 269.834C229.406 270.054 229.5 270.288 229.563 270.53C229.703 270.925 229.819 271.32 229.935 271.691C230.165 272.481 230.355 273.283 230.503 274.093C230.643 274.848 230.747 275.625 230.828 276.414C230.837 277.288 230.899 278.16 231.014 279.026C231.014 279.153 230.84 279.165 230.863 279.026C230.917 278.209 230.854 277.388 230.677 276.589C230.561 275.753 230.411 274.929 230.213 274.105C230.016 273.281 229.842 272.631 229.621 271.9C229.505 271.528 229.389 271.169 229.262 270.809C229.204 270.623 229.111 270.414 229.041 270.217C228.074 271.726 227.126 273.238 226.198 274.755C224.329 277.772 222.495 280.801 220.638 283.819C220.546 284.016 220.302 283.889 220.395 283.738Z" fill="#263238"/>
<path d="M270.184 325.182C270.265 322.13 270.752 319.042 271.077 316.002C271.402 312.961 271.762 309.897 272.087 306.833C272.714 300.949 273.062 294.926 274.408 289.146C275.429 284.115 277.936 279.507 281.604 275.915C283.505 274.024 285.994 272.837 288.66 272.55C291.346 272.477 293.982 273.293 296.157 274.871C298.626 276.703 300.758 278.949 302.459 281.509C304.284 284.05 305.925 286.719 307.368 289.494C307.426 289.599 307.252 289.668 307.194 289.564C304.473 284.931 300.86 280.883 296.563 277.656C294.656 276.084 292.326 275.111 289.867 274.859C288.666 274.839 287.474 275.058 286.358 275.502C285.242 275.946 284.226 276.607 283.368 277.447C279.805 280.546 277.739 285.119 276.509 289.599C275.046 294.902 274.582 300.485 273.851 305.928C273.422 309.166 273.004 312.404 272.574 315.642C272.145 318.88 271.89 322.164 271.205 325.344C271.158 325.453 271.076 325.543 270.972 325.6C270.868 325.657 270.748 325.678 270.631 325.659C270.514 325.641 270.407 325.584 270.326 325.497C270.245 325.411 270.195 325.3 270.184 325.182Z" fill="#263238"/>
<path d="M285.236 301.425C286.177 302.708 287.295 303.853 288.555 304.825C288.056 301.843 287.395 296.539 288.95 293.719C291.271 289.332 294.068 291.514 292.675 295.332C291.281 298.769 290.514 302.429 290.412 306.137C293.598 308.135 297.011 309.744 300.579 310.93C300.196 309.213 300.083 307.448 300.242 305.696C300.706 301.054 304.304 301.054 303.364 305.974C303.021 307.866 302.858 309.785 302.877 311.708C308.055 313.3 313.347 314.495 318.707 315.282C321.449 311.73 323.658 307.797 325.264 303.607C321.446 302.655 313.728 302.446 313.89 299.707C314.111 296.04 321.597 298.86 325.972 301.529C326.973 298.337 327.42 294.996 327.295 291.653C323.859 290.695 320.33 290.111 316.769 289.912C308.912 289.227 309.295 284.771 314.993 284.875C319.194 284.956 324.51 287.521 327.028 288.868C325.392 278.179 317.233 271.331 310.699 271.064C299.708 270.623 303.666 284.295 303.666 284.295C303.666 284.295 296.215 279.061 289.193 279.2C282.172 279.339 277.715 290.98 285.236 301.425ZM314.587 281.695C314.343 280.152 319.229 279.78 319.496 281.765C319.798 283.935 314.831 283.227 314.587 281.66V281.695ZM322.479 297.734C322.374 296.736 324.487 296.574 324.974 297.827C325.287 298.628 322.56 298.698 322.479 297.7V297.734ZM296.087 298.674C297.747 298.907 298.687 304.825 295.832 304.709C293.662 304.582 294.683 298.442 296.087 298.628V298.674Z" fill="#96DA84"/>
<path d="M298.374 305.22C298.652 304.477 298.896 303.734 299.128 302.98C298.919 303.734 298.722 304.5 298.583 305.301C298.572 305.329 298.551 305.351 298.523 305.363C298.496 305.375 298.465 305.376 298.438 305.365C298.41 305.354 298.388 305.333 298.376 305.306C298.364 305.279 298.363 305.248 298.374 305.22Z" fill="#263238"/>
<path d="M301.275 295.692C301.797 294.183 302.378 292.674 302.958 291.189C303.283 290.388 303.608 289.599 303.956 288.867C304.203 288.17 304.53 287.504 304.931 286.883C304.591 286.265 304.292 285.625 304.037 284.968C304.033 284.961 304.031 284.953 304.03 284.946C304.029 284.938 304.03 284.93 304.032 284.922C304.034 284.915 304.038 284.908 304.043 284.902C304.048 284.896 304.054 284.89 304.06 284.887C304.067 284.883 304.075 284.88 304.083 284.88C304.09 284.879 304.098 284.879 304.106 284.881C304.113 284.884 304.12 284.887 304.127 284.892C304.133 284.897 304.138 284.903 304.142 284.91C304.949 285.954 305.667 287.064 306.289 288.229L307.182 289.796C307.803 289.852 308.42 289.949 309.028 290.086C309.689 290.202 310.339 290.341 311.001 290.481L312.95 290.945C313.6 291.096 314.25 291.305 314.9 291.409C315.063 291.409 314.993 291.676 314.9 291.618C314.23 291.376 313.538 291.198 312.834 291.084C312.208 290.945 311.581 290.829 310.943 290.736C310.304 290.643 309.654 290.573 309.016 290.504L307.565 290.388C307.821 290.852 308.099 291.305 308.355 291.769C308.389 291.845 308.427 291.918 308.471 291.989C309.003 291.982 309.533 292.045 310.049 292.175C310.618 292.28 311.21 292.384 311.743 292.512C312.904 292.767 314.065 293.034 315.167 293.347C317.546 294.02 319.891 294.775 322.235 295.541C322.363 295.541 322.235 295.784 322.154 295.738C319.824 294.952 317.453 294.293 315.051 293.765C313.891 293.51 312.8 293.254 311.674 293.022L309.979 292.662C309.537 292.589 309.1 292.492 308.668 292.372C309.875 294.601 311.008 296.872 312.068 299.185C314.39 304.233 316.258 309.433 318.219 314.597C318.219 314.737 318.069 314.818 318.022 314.69C316.133 309.539 313.948 304.501 311.477 299.603L310.142 296.933C310.142 297.119 310.061 297.293 310.026 297.479C309.91 298.094 309.805 298.639 309.701 299.313C309.492 300.543 309.283 301.761 309.097 302.992C308.574 305.505 308.278 308.061 308.215 310.628C308.215 310.791 307.972 310.779 308.006 310.628C308.159 309.396 308.248 308.156 308.273 306.914C308.355 305.626 308.447 304.338 308.598 303.061C308.749 301.785 308.9 300.589 309.109 299.371C309.202 298.756 309.318 298.14 309.422 297.525C309.454 297.066 309.572 296.617 309.77 296.202C309.132 294.914 308.494 293.614 307.844 292.326C307.194 291.038 306.614 289.912 305.987 288.717C305.72 288.206 305.43 287.695 305.151 287.185C304.947 287.815 304.703 288.431 304.42 289.03C304.142 289.726 303.852 290.423 303.573 291.107C302.935 292.639 302.354 294.194 301.763 295.75C300.939 297.955 300.022 300.206 299.337 302.493C299.964 300.195 300.532 297.908 301.275 295.692Z" fill="#263238"/>
<path d="M299.128 302.98C299.128 302.794 299.232 302.62 299.29 302.446C299.232 302.62 299.186 302.806 299.128 302.98Z" fill="#263238"/>
<path d="M251.812 319.24L252.578 335.592L254.574 377.756H298.072L300.057 335.592L300.834 319.24H251.812Z" fill="#37474F"/>
<path d="M251.812 319.24L252.578 335.592H300.057L300.834 319.24H251.812Z" fill="#263238"/>
<path d="M248.724 325.843H303.933V312.613H248.724V325.843Z" fill="#37474F"/>
<path d="M294.556 377.756H286.919V384.685H294.556V377.756Z" fill="#37474F"/>
<path d="M294.556 377.756H286.919V381.215H294.556V377.756Z" fill="#263238"/>
<path d="M265.715 377.756H258.09V384.685H265.715V377.756Z" fill="#37474F"/>
<path d="M265.715 377.756H258.09V381.215H265.715V377.756Z" fill="#263238"/>
<path d="M689.742 192.017H379.659V399.436H689.742V192.017Z" fill="#DBDBDB"/>
<path d="M687.491 194.547H381.911V396.905H687.491V194.547Z" fill="#263238"/>
<path d="M730.13 414.987H339.271V429.228H730.13V414.987Z" fill="#C7C7C7"/>
<path d="M339.271 414.987L379.66 399.436H689.742L730.13 414.987H339.271Z" fill="#DBDBDB"/>
<path d="M383.27 409.475L409.336 399.436H660.079L686.145 409.475H383.27Z" fill="#263238"/>
<path d="M670.222 209.925H399.181V381.539H670.222V209.925Z" fill="white"/>
<path d="M670.222 209.925H399.181V216.529H670.222V209.925Z" fill="#455A64"/>
<path d="M405.447 213.221C405.447 213.469 405.374 213.711 405.236 213.917C405.098 214.124 404.903 214.284 404.674 214.379C404.445 214.474 404.192 214.499 403.949 214.45C403.706 214.402 403.483 214.283 403.308 214.107C403.132 213.932 403.013 213.709 402.965 213.466C402.916 213.222 402.941 212.97 403.036 212.741C403.131 212.512 403.291 212.317 403.497 212.179C403.704 212.041 403.946 211.968 404.194 211.968C404.358 211.968 404.521 212 404.674 212.063C404.826 212.126 404.964 212.218 405.08 212.335C405.197 212.451 405.289 212.589 405.352 212.741C405.415 212.893 405.447 213.056 405.447 213.221Z" fill="#C7C7C7"/>
<path d="M410.508 213.221C410.508 213.469 410.434 213.711 410.297 213.917C410.159 214.124 409.963 214.284 409.734 214.379C409.505 214.474 409.253 214.499 409.01 214.45C408.767 214.402 408.543 214.283 408.368 214.107C408.193 213.932 408.073 213.709 408.025 213.466C407.977 213.222 408.001 212.97 408.096 212.741C408.191 212.512 408.352 212.317 408.558 212.179C408.764 212.041 409.006 211.968 409.254 211.968C409.586 211.971 409.903 212.104 410.137 212.338C410.372 212.573 410.505 212.89 410.508 213.221Z" fill="white"/>
<path d="M415.603 213.221C415.603 213.469 415.529 213.712 415.39 213.919C415.252 214.125 415.056 214.286 414.826 214.38C414.596 214.475 414.344 214.499 414.1 214.449C413.857 214.4 413.634 214.28 413.459 214.103C413.284 213.927 413.165 213.702 413.118 213.458C413.071 213.214 413.098 212.962 413.194 212.733C413.291 212.504 413.454 212.309 413.661 212.173C413.869 212.037 414.112 211.965 414.361 211.968C414.691 211.971 415.007 212.104 415.24 212.339C415.472 212.574 415.603 212.891 415.603 213.221Z" fill="#96DA84"/>
<path d="M670.233 216.529H665.417V381.539H670.233V216.529Z" fill="#DBDBDB"/>
<path d="M667.819 273.734C667.656 273.735 667.493 273.704 667.342 273.642C667.191 273.58 667.053 273.489 666.937 273.373C666.822 273.258 666.73 273.12 666.669 272.969C666.607 272.817 666.576 272.655 666.577 272.492V218.734C666.576 218.57 666.607 218.408 666.669 218.257C666.73 218.105 666.822 217.968 666.937 217.852C667.053 217.737 667.191 217.645 667.342 217.583C667.493 217.522 667.656 217.49 667.819 217.492C668.148 217.492 668.464 217.623 668.697 217.856C668.93 218.089 669.061 218.404 669.061 218.734V272.492C669.061 272.821 668.93 273.137 668.697 273.37C668.464 273.603 668.148 273.734 667.819 273.734Z" fill="#A6A6A6"/>
<path d="M611.439 369.086H457.976V359.164H611.439V369.086ZM458.556 368.506H610.87V359.744H458.556V368.506Z" fill="#96DA84"/>
<path d="M463.499 361.229H460.029V367.021H463.499V361.229Z" fill="#96DA84"/>
<path d="M468.293 361.229H464.823V367.021H468.293V361.229Z" fill="#96DA84"/>
<path d="M473.075 361.229H469.604V367.021H473.075V361.229Z" fill="#96DA84"/>
<path d="M477.856 361.229H474.386V367.021H477.856V361.229Z" fill="#96DA84"/>
<path d="M482.638 361.229H479.168V367.021H482.638V361.229Z" fill="#96DA84"/>
<path d="M487.419 361.229H483.949V367.021H487.419V361.229Z" fill="#96DA84"/>
<path d="M492.201 361.229H488.73V367.021H492.201V361.229Z" fill="#96DA84"/>
<path d="M496.994 361.229H493.523V367.021H496.994V361.229Z" fill="#96DA84"/>
<path d="M501.775 361.229H498.305V367.021H501.775V361.229Z" fill="#96DA84"/>
<path d="M506.557 361.229H503.087V367.021H506.557V361.229Z" fill="#96DA84"/>
<path d="M511.338 361.229H507.868V367.021H511.338V361.229Z" fill="#96DA84"/>
<path d="M516.12 361.229H512.649V367.021H516.12V361.229Z" fill="#96DA84"/>
<path d="M585.755 282.821H490.831V344.192H585.755V282.821Z" fill="#96DA84"/>
<path d="M520.751 276.461H490.831V282.821H522.468L520.751 276.461Z" fill="#96DA84"/>
<g opacity="0.1">
<path d="M585.754 282.821H490.83V344.192H585.754V282.821Z" fill="black"/>
<path d="M520.75 276.461H490.83V282.821H522.467L520.75 276.461Z" fill="black"/>
</g>
<path d="M491.155 300.485L550.054 318.996L573.823 243.396L530.093 229.643L510.398 239.288L491.155 300.485Z" fill="#EBEBEB"/>
<path d="M530.093 229.643L510.398 239.288L525.567 244.058L530.093 229.643Z" fill="#DBDBDB"/>
<path d="M564.101 254.266L531.351 243.971L530.742 245.909L563.491 256.203L564.101 254.266Z" fill="#DBDBDB"/>
<path d="M562.563 259.163L529.813 248.869L529.204 250.806L561.954 261.101L562.563 259.163Z" fill="#DBDBDB"/>
<path d="M561.026 264.057L528.276 253.763L527.667 255.7L560.417 265.995L561.026 264.057Z" fill="#DBDBDB"/>
<path d="M559.482 268.964L511.497 253.881L510.888 255.818L558.873 270.902L559.482 268.964Z" fill="#DBDBDB"/>
<path d="M557.945 273.858L509.96 258.775L509.351 260.712L557.335 275.796L557.945 273.858Z" fill="#DBDBDB"/>
<path d="M556.396 278.752L508.411 263.669L507.802 265.606L555.787 280.69L556.396 278.752Z" fill="#DBDBDB"/>
<path d="M554.866 283.673L506.882 268.589L506.273 270.527L554.257 285.61L554.866 283.673Z" fill="#DBDBDB"/>
<path d="M553.319 288.567L505.334 273.483L504.725 275.421L552.71 290.504L553.319 288.567Z" fill="#DBDBDB"/>
<path d="M549.328 292.166L501.544 277.076L500.935 279.005L548.719 294.095L549.328 292.166Z" fill="#DBDBDB"/>
<path d="M550.243 298.358L502.259 283.275L501.65 285.212L549.634 300.296L550.243 298.358Z" fill="#DBDBDB"/>
<path d="M548.703 303.275L500.719 288.192L500.11 290.129L548.094 305.213L548.703 303.275Z" fill="#DBDBDB"/>
<path d="M547.155 308.169L499.171 293.086L498.562 295.023L546.546 310.107L547.155 308.169Z" fill="#DBDBDB"/>
<path d="M585.534 344.192H490.61L484.076 287.904H579.011L585.534 344.192Z" fill="#96DA84"/>
<path d="M513.323 282.078H483.403L484.076 287.904H515.714L513.323 282.078Z" fill="#96DA84"/>
<path d="M359.36 132.317C355.074 109.377 350.799 86.6873 346.536 64.2495C318.055 67.6268 289.749 82.5286 261.21 82.25C265.481 105.206 269.736 127.896 273.976 150.318C302.515 146.941 330.81 132.05 359.36 132.317Z" fill="#DBDBDB"/>
<path d="M275.056 87.6931C277.439 100.134 279.81 112.514 282.17 124.832L284.364 124.391C281.996 112.112 279.624 99.7824 277.249 87.403L275.056 87.6931Z" fill="#C7C7C7"/>
<path d="M280.592 86.7995C282.959 99.179 285.331 111.473 287.706 123.683L289.9 123.172C287.524 110.947 285.153 98.6838 282.785 86.3817C282.054 86.521 281.323 86.6719 280.592 86.7995Z" fill="#C7C7C7"/>
<path d="M286.127 85.6737C288.495 97.9449 290.862 110.17 293.23 122.348L295.423 121.779L288.309 85.1747C287.578 85.3488 286.858 85.5229 286.127 85.6737Z" fill="#C7C7C7"/>
<path d="M291.71 84.3739C295.184 102.231 298.666 120.027 302.155 137.76L304.349 137.134C300.875 119.377 297.393 101.581 293.903 83.7472L291.71 84.3739Z" fill="#C7C7C7"/>
<path d="M297.177 82.9232C300.651 100.719 304.132 118.479 307.622 136.205L309.804 135.567C306.345 117.833 302.864 100.08 299.359 82.3081L297.177 82.9232Z" fill="#C7C7C7"/>
<path d="M302.701 81.3681C306.167 99.1636 309.649 116.905 313.146 134.592L315.328 133.954C311.854 116.205 308.373 98.4633 304.883 80.7297L302.701 81.3681Z" fill="#C7C7C7"/>
<path d="M308.226 79.7548C311.7 97.4961 315.181 115.241 318.671 132.99L320.853 132.364C317.379 114.568 313.897 96.8191 310.407 79.1165L308.226 79.7548Z" fill="#C7C7C7"/>
<path d="M313.761 78.1184C317.235 95.852 320.716 113.62 324.206 131.424L326.388 130.843C322.922 113.009 319.44 95.2137 315.943 77.4569L313.761 78.1184Z" fill="#C7C7C7"/>
<path d="M319.274 76.5516C322.748 94.3471 326.23 112.166 329.72 130.008L331.913 129.486C328.431 111.566 324.95 93.7166 321.468 75.9365L319.274 76.5516Z" fill="#C7C7C7"/>
<path d="M324.798 75.0313C328.272 92.8268 331.754 110.723 335.243 128.72L337.437 128.267C333.963 110.247 330.481 92.3123 326.991 74.4626L324.798 75.0313Z" fill="#C7C7C7"/>
<path d="M330.322 73.6386C333.796 91.5424 337.278 109.539 340.767 127.629L342.961 127.269C339.479 109.11 335.998 91.0627 332.516 73.1279L330.322 73.6386Z" fill="#C7C7C7"/>
<path d="M335.812 72.3967C339.279 90.4088 342.76 108.537 346.258 126.781L348.451 126.514C344.969 108.2 341.488 90.0181 338.006 71.9673L335.812 72.3967Z" fill="#C7C7C7"/>
<path d="M348.648 106.135C348.378 126.189 348.111 146.244 347.848 166.299C379.938 197.53 412.028 145.211 444.175 175.409L444.767 130.739C439.89 121.455 433.789 112.867 426.628 105.206C400.607 100.622 374.622 130.344 348.648 106.135Z" fill="#EBEBEB"/>
<path d="M444.72 130.739C439.843 121.455 433.742 112.867 426.581 105.206L426.337 120.839C432.488 121.872 438.604 124.797 444.72 130.739Z" fill="#DBDBDB"/>
<path d="M428.042 160.519L428.495 126.746C427.671 126.549 426.847 126.387 426.023 126.247L425.57 160.067C426.398 160.152 427.222 160.303 428.042 160.519Z" fill="#DBDBDB"/>
<path d="M421.81 159.707C421.949 148.411 422.096 137.122 422.251 125.841C421.427 125.841 420.603 125.841 419.779 125.841C419.632 137.13 419.485 148.426 419.338 159.73C420.162 159.684 420.986 159.684 421.81 159.707Z" fill="#DBDBDB"/>
<path d="M415.567 160.044C415.714 148.732 415.861 137.42 416.008 126.108C415.184 126.213 414.36 126.329 413.536 126.468C413.396 137.788 413.249 149.107 413.095 160.427C413.923 160.28 414.747 160.152 415.567 160.044Z" fill="#DBDBDB"/>
<path d="M409.323 161.216L409.984 111.427L407.512 112.042L406.851 161.866C407.675 161.68 408.499 161.425 409.323 161.216Z" fill="#DBDBDB"/>
<path d="M403.125 162.968C403.334 146.349 403.551 129.737 403.775 113.133C402.951 113.377 402.127 113.644 401.303 113.911C401.087 130.522 400.87 147.138 400.653 163.757L403.125 162.968Z" fill="#DBDBDB"/>
<path d="M396.846 165.011C397.07 148.391 397.287 131.756 397.496 115.106L395.024 115.942C394.807 132.561 394.591 149.196 394.374 165.846L396.846 165.011Z" fill="#DBDBDB"/>
<path d="M390.603 167.077L391.264 117.172L388.781 117.949C388.572 134.561 388.355 151.173 388.131 167.784L390.603 167.077Z" fill="#DBDBDB"/>
<path d="M384.37 168.899C384.579 152.287 384.796 135.683 385.02 119.087C384.196 119.307 383.372 119.516 382.548 119.702C382.332 136.298 382.115 152.894 381.898 169.49C382.726 169.305 383.55 169.108 384.37 168.899Z" fill="#DBDBDB"/>
<path d="M378.126 170.198C378.351 153.618 378.567 137.037 378.776 120.456C377.956 120.595 377.132 120.712 376.304 120.804C376.088 137.377 375.871 153.947 375.654 170.512C376.482 170.434 377.306 170.33 378.126 170.198Z" fill="#DBDBDB"/>
<path d="M371.882 170.709C372.107 154.159 372.323 137.61 372.532 121.06C371.708 121.06 370.884 121.06 370.06 121.06C369.851 137.586 369.635 154.117 369.41 170.651C370.234 170.686 371.058 170.709 371.882 170.709Z" fill="#DBDBDB"/>
<path d="M365.65 170.164C365.859 153.66 366.075 137.153 366.3 120.642C365.48 120.503 364.656 120.329 363.828 120.12C363.611 136.615 363.394 153.107 363.178 169.595C364.002 169.804 364.826 170.001 365.65 170.164Z" fill="#DBDBDB"/>
<path d="M359.407 168.284C359.631 151.827 359.848 135.37 360.057 118.913C359.233 118.588 358.408 118.216 357.584 117.752C357.368 134.186 357.151 150.62 356.935 167.053C357.759 167.541 358.583 167.935 359.407 168.284Z" fill="#DBDBDB"/>
<path d="M452.183 152.395C440.229 171.421 428.132 190.702 415.892 210.238C453.541 195.151 447.007 258.635 480.791 250.441L504.003 214.173C506.858 209.941 509.713 205.685 512.568 201.406C476.149 214.057 484.575 146.941 452.183 152.395Z" fill="#DBDBDB"/>
<path d="M469.719 244.568L494.613 205.886C494.012 205.63 493.431 205.332 492.872 204.993C484.601 217.829 476.319 230.695 468.024 243.593C468.572 243.947 469.138 244.273 469.719 244.568Z" fill="#C7C7C7"/>
<path d="M465.622 241.76L490.424 203.252C489.913 202.822 489.414 202.37 488.938 201.894C480.698 214.683 472.435 227.515 464.148 240.39C464.636 240.878 465.123 241.342 465.622 241.76Z" fill="#C7C7C7"/>
<path d="M462.048 238.046C470.334 225.163 478.598 212.331 486.838 199.549C486.397 198.992 485.967 198.389 485.55 197.832L460.748 236.351C461.154 236.932 461.607 237.5 462.048 238.046Z" fill="#C7C7C7"/>
<path d="M458.833 233.636L483.727 194.954C483.344 194.315 482.961 193.654 482.567 192.981C474.296 205.832 465.982 218.753 457.626 231.744L458.833 233.636Z" fill="#C7C7C7"/>
<path d="M455.942 228.726L480.976 189.801L479.931 187.654L454.828 226.672L455.942 228.726Z" fill="#C7C7C7"/>
<path d="M453.135 223.643C461.599 210.451 470.017 197.344 478.389 184.323L477.379 182.118C468.977 195.194 460.524 208.347 452.021 221.577L453.135 223.643Z" fill="#C7C7C7"/>
<path d="M450.302 218.548C458.867 205.171 467.378 191.89 475.835 178.706C475.498 177.974 475.162 177.243 474.813 176.524C466.303 189.777 457.741 203.14 449.13 216.61C449.548 217.295 449.919 217.933 450.302 218.548Z" fill="#C7C7C7"/>
<path d="M447.308 213.825C456.013 200.207 464.651 186.71 473.224 173.332C472.864 172.636 472.504 171.951 472.133 171.278C463.498 184.764 454.809 198.362 446.066 212.072C446.473 212.641 446.89 213.233 447.308 213.825Z" fill="#C7C7C7"/>
<path d="M444.012 209.588L470.439 168.295C470.044 167.668 469.638 167.065 469.22 166.473C460.392 180.222 451.514 194.099 442.585 208.103C443.084 208.59 443.56 209.078 444.012 209.588Z" fill="#C7C7C7"/>
<path d="M440.263 206.142C449.308 191.928 458.272 177.851 467.154 163.908C466.701 163.386 466.237 162.875 465.75 162.399C456.79 176.473 447.753 190.687 438.639 205.039C439.199 205.378 439.741 205.746 440.263 206.142Z" fill="#C7C7C7"/>
<path d="M435.981 203.704C445.265 189.112 454.43 174.678 463.475 160.403C462.948 160.012 462.402 159.648 461.838 159.312C452.67 173.75 443.42 188.338 434.089 203.078C434.732 203.248 435.363 203.457 435.981 203.704Z" fill="#C7C7C7"/>
<path d="M430.979 202.532C440.457 187.538 449.846 172.705 459.147 158.036C458.517 157.804 457.873 157.61 457.22 157.455L428.763 202.474C429.502 202.452 430.242 202.472 430.979 202.532Z" fill="#C7C7C7"/>
<path d="M132.178 55.5567C123.868 61.0115 119.585 71.9093 119.585 71.9093C119.585 71.9093 110.637 81.9367 111.229 88.4823C111.361 90.3369 111.94 92.1319 112.919 93.7128C113.897 95.2937 115.245 96.6133 116.846 97.558V94.0067C116.846 94.0067 118.17 98.8579 125.226 102.131C132.282 105.404 142.542 105.125 148.17 103.593C151.503 102.693 154.545 100.946 157.002 98.5213L154.078 103.106C156.548 103.323 159.034 102.929 161.315 101.957C163.596 100.986 165.603 99.4667 167.157 97.5348C172.96 90.757 162.968 77.2479 162.411 74.6714C161.854 72.095 164.047 54.5587 145.281 53.7811C145.315 53.8391 137.888 51.7965 132.178 55.5567Z" fill="#C7C7C7"/>
<path d="M114.305 96.583C112.462 95.012 111.146 92.9138 110.533 90.5712C109.828 88.2652 109.914 85.7898 110.776 83.5381C112.006 80.9378 113.692 78.5792 115.755 76.5747C117.74 74.3928 119.899 72.3502 121.837 70.1335C121.941 70.0174 121.755 69.855 121.639 69.9478C119.636 71.5099 117.725 73.1879 115.918 74.9731C114.113 76.5719 112.501 78.3752 111.113 80.3466C109.823 82.161 109.081 84.3083 108.978 86.5324C108.977 88.3558 109.419 90.152 110.266 91.7666C111.342 93.5663 112.644 95.2202 114.142 96.6875C114.27 96.8151 114.409 96.6875 114.305 96.583Z" fill="#C7C7C7"/>
<path d="M170.338 89.991C169.456 83.19 164.535 77.9906 162.214 71.7351C160.949 68.3462 160.16 64.7717 158.245 61.6265C158.245 61.5453 158.048 61.6265 158.094 61.7194C159.626 64.4699 160.218 67.5222 161.123 70.5165C162.123 73.5024 163.422 76.3797 164.999 79.1048C167.715 84.1649 170.988 90.1419 168.922 96.0144C167.97 98.7301 165.696 101.481 162.667 101.817C162.653 101.812 162.638 101.81 162.623 101.812C162.608 101.814 162.594 101.82 162.581 101.828C162.569 101.837 162.559 101.848 162.552 101.861C162.545 101.875 162.542 101.889 162.542 101.904C162.542 101.919 162.545 101.934 162.552 101.947C162.559 101.961 162.569 101.972 162.581 101.981C162.594 101.989 162.608 101.995 162.623 101.996C162.638 101.998 162.653 101.997 162.667 101.991C163.893 101.768 165.06 101.296 166.097 100.603C167.133 99.9104 168.015 99.0122 168.69 97.9642C170.175 95.5891 170.76 92.7603 170.338 89.991Z" fill="#C7C7C7"/>
<path d="M170.244 91.7552C170.93 89.3883 170.87 86.8674 170.07 84.5364C169.107 82.2874 167.67 80.2726 165.857 78.6291C163.896 76.6561 161.795 74.7295 160.844 72.0486C160.844 71.9325 160.635 72.0486 160.67 72.1182C162.155 76.54 166.136 79.2674 168.399 83.1901C170.987 87.6816 169.861 93.2175 166.658 97.117C164.641 99.4609 162.1 101.298 159.242 102.479C159.242 102.479 159.242 102.572 159.242 102.549C164.151 100.576 168.817 97.0242 170.244 91.7552Z" fill="#C7C7C7"/>
<path d="M214.926 452.497C212.35 453.333 138.804 452.381 136.007 450.559C134.951 449.886 134.463 439.162 134.243 426.187V425.781C134.243 423.111 134.162 420.361 134.15 417.564C134.15 417.181 134.15 416.798 134.15 416.403C134.045 397.683 134.347 378.255 134.347 378.255L183.544 378.742L182.059 416.542L182 418.04L181.71 425.862V426.663C181.71 426.663 209.703 439.615 212.547 441.936C215.39 444.257 217.514 451.673 214.926 452.497Z" fill="#D3766A"/>
<path d="M192.83 431.7C192.644 431.7 192.54 431.595 192.528 431.537L192.83 431.7Z" fill="#96DA84"/>
<path d="M214.926 452.497C212.35 453.333 138.816 452.381 136.007 450.559C135.067 449.967 134.568 441.425 134.324 430.423C147.799 433.255 200.024 443.793 201.475 439.336C202.032 437.572 197.564 434.543 194.744 432.825C202.462 436.504 210.992 440.717 212.524 441.947C215.332 444.257 217.514 451.673 214.926 452.497Z" fill="#263238"/>
<path d="M119.261 166.415C119.261 166.415 130.309 290.69 132.108 300.171C132.526 302.33 132.781 314.098 132.944 329.186C133.327 362.123 133.106 421.545 133.106 421.545H184.938C184.938 421.545 183.406 318.601 181.108 299.684C178.81 280.767 164.14 166.461 164.14 166.461L119.261 166.415Z" fill="#263238"/>
<path d="M182.617 412.492C174.492 412.33 176.814 412.26 168.759 412.179C164.802 412.179 138.782 411.923 135.103 412.527C135.085 412.534 135.069 412.545 135.059 412.561C135.048 412.577 135.042 412.595 135.042 412.614C135.042 412.633 135.048 412.651 135.059 412.667C135.069 412.683 135.085 412.694 135.103 412.701C138.805 413.305 164.825 413.084 168.759 413.049C176.883 412.968 174.562 412.898 182.617 412.736C182.642 412.728 182.665 412.712 182.681 412.69C182.697 412.668 182.706 412.641 182.706 412.614C182.706 412.587 182.697 412.56 182.681 412.538C182.665 412.516 182.642 412.5 182.617 412.492Z" fill="#37474F"/>
<path d="M142.948 353.651C142.894 346.13 142.84 338.61 142.786 331.089C142.728 323.812 142.786 316.524 142.391 309.247C141.695 294.508 138.7 280.024 136.588 265.459C134.476 250.893 132.689 236.27 131.087 221.624C129.288 205.201 127.698 188.756 126.004 172.322C126.004 172.206 125.818 172.206 125.83 172.322C128.267 201.673 130.994 231.013 135.056 260.178C136.07 267.435 137.176 274.677 138.375 281.904C139.536 289.216 140.789 296.539 141.358 303.955C141.927 311.371 142.02 318.462 142.089 325.716C142.167 333.236 142.244 340.753 142.321 348.266C142.484 364.955 142.646 390.638 142.797 407.339C142.797 407.407 142.824 407.472 142.872 407.52C142.92 407.567 142.985 407.594 143.053 407.594C143.12 407.594 143.185 407.567 143.233 407.52C143.281 407.472 143.308 407.407 143.308 407.339C143.157 392.426 143.064 368.541 142.948 353.651Z" fill="#37474F"/>
<path d="M108.339 166.415C108.339 166.415 130.32 290.69 132.119 300.171C132.537 302.33 132.792 314.098 132.955 329.186L157.663 166.415H108.339Z" fill="#37474F"/>
<path d="M92.3349 456.675C89.654 456.257 24.476 422.194 22.8164 419.316C22.1781 418.237 26.5883 408.453 32.2519 396.778L32.4376 396.406C33.5982 394.004 56.8677 354.753 56.8677 354.753L96.9656 378.29L74.6826 417.924L74.2996 418.62C74.2996 418.62 93.4143 442.829 94.8998 446.172C96.3853 449.514 95.0159 457.116 92.3349 456.675Z" fill="#D3766A"/>
<path d="M92.3351 456.675C89.6541 456.257 24.4762 422.194 22.8165 419.316C22.2711 418.399 25.4046 411.111 29.8612 401.745C39.2039 408.813 84.3155 442.69 87.6115 439.174C88.2962 438.419 87.7856 436.667 86.8687 434.787C90.8147 440.009 94.3429 444.803 94.9928 446.172C96.4203 449.503 95.0044 457.105 92.3351 456.675Z" fill="#263238"/>
<path d="M80.4859 416.473L32.9951 387.122C32.9951 387.122 87.9484 308.481 88.2037 301.494C88.5983 291.049 93.5772 248.247 97.7553 213.546C97.7553 213.546 89.8285 194.756 104.719 166.38H164.233C164.233 166.38 160.252 193.387 153.417 210.482C148.83 212.088 144.401 214.112 140.186 216.529C140.186 216.529 134.255 293.904 134.035 303.572C133.559 322.652 80.4859 416.473 80.4859 416.473Z" fill="#263238"/>
<path d="M83.3987 405.505C76.5513 401.211 78.5823 402.349 71.6769 398.124C68.2996 396.058 46.1442 382.503 42.6625 381.133C42.6451 381.131 42.6275 381.133 42.6115 381.14C42.5956 381.148 42.5819 381.159 42.5722 381.174C42.5625 381.188 42.5571 381.205 42.5567 381.223C42.5562 381.24 42.5607 381.257 42.5696 381.272C45.4362 383.698 67.8702 396.859 71.2939 398.855C78.2573 402.952 76.3076 401.699 83.3407 405.703C83.355 405.717 83.3727 405.726 83.392 405.731C83.4114 405.737 83.4316 405.736 83.4509 405.731C83.4702 405.726 83.4879 405.716 83.5022 405.702C83.5165 405.688 83.527 405.671 83.5326 405.652C83.5383 405.633 83.5389 405.612 83.5344 405.593C83.5299 405.574 83.5204 405.556 83.507 405.541C83.4935 405.526 83.4765 405.515 83.4575 405.509C83.4385 405.503 83.4183 405.501 83.3987 405.505Z" fill="#37474F"/>
<path d="M155.633 209.333C150.268 211.283 145.084 213.698 140.139 216.552C140.105 216.575 140.081 216.609 140.069 216.648C140.058 216.688 140.061 216.73 140.078 216.767C140.094 216.804 140.123 216.835 140.16 216.853C140.197 216.871 140.239 216.875 140.279 216.865C145.501 214.625 150.828 212.478 155.912 209.902C155.954 209.85 155.98 209.788 155.988 209.721C155.996 209.655 155.984 209.588 155.955 209.528C155.926 209.468 155.88 209.418 155.823 209.383C155.766 209.349 155.7 209.331 155.633 209.333Z" fill="#37474F"/>
<path d="M148.333 200.71C148.855 197.6 149.273 194.489 149.493 191.344C150.037 185.496 149.971 179.607 149.296 173.773C149.296 173.733 149.28 173.695 149.252 173.666C149.223 173.638 149.185 173.622 149.145 173.622C149.105 173.622 149.067 173.638 149.038 173.666C149.01 173.695 148.994 173.733 148.994 173.773C149.138 181.886 148.665 189.999 147.578 198.041C146.998 201.894 145.048 207.72 149.087 208.312C153.126 208.904 155.865 199.178 156.375 196.509C157.657 188.915 157.949 181.187 157.246 173.518C157.246 173.332 156.909 173.297 156.909 173.518C156.912 179.331 156.622 185.142 156.039 190.926C155.795 193.607 153.637 208.474 148.971 207.383C148.193 207.209 147.81 206.432 147.671 205.259C147.687 203.719 147.894 202.187 148.286 200.698" fill="#37474F"/>
<path d="M149.146 207.801C148.724 208.801 148.372 209.829 148.089 210.877C147.792 211.687 147.647 212.544 147.66 213.407C147.66 213.569 147.892 213.592 147.985 213.476C148.468 212.716 148.832 211.886 149.064 211.016C149.424 210.064 149.795 209.113 150.12 208.149C150.147 208.026 150.127 207.897 150.066 207.786C150.004 207.676 149.904 207.592 149.785 207.549C149.666 207.506 149.536 207.509 149.418 207.555C149.3 207.601 149.204 207.689 149.146 207.801Z" fill="#37474F"/>
<path d="M111.658 170.129C109.857 173.241 108.365 176.522 107.202 179.924C106.008 183.319 105.123 186.815 104.556 190.369C104.207 192.133 104.091 193.921 103.906 195.696C103.72 197.472 103.685 199.282 103.79 201.07C103.866 204.649 104.282 208.212 105.031 211.712V211.828C103.654 226.838 102.227 241.841 100.749 256.835C99.2711 271.83 97.7933 286.832 96.3155 301.843L96.1763 303.247L96.1066 303.955C96.0986 304.213 96.0476 304.468 95.9557 304.709C95.5562 305.608 95.0988 306.481 94.5863 307.321C93.6462 308.957 92.6597 310.57 91.6732 312.172C89.7002 315.387 87.6808 318.578 85.673 321.758C81.6342 328.118 77.549 334.432 73.4057 340.745C65.2005 353.384 56.8443 365.93 48.4766 378.464L72.7558 340.327L84.8258 321.224C86.8297 318.037 88.8182 314.841 90.7912 311.638C91.7661 310.025 92.7409 308.411 93.6694 306.787C94.131 306.035 94.5533 305.261 94.9344 304.466C95.0107 304.269 95.0501 304.061 95.0505 303.85L95.1201 303.142L95.2478 301.738C96.6792 286.743 98.1608 271.753 99.6928 256.766C101.225 241.779 102.772 226.796 104.335 211.817V211.921C103.602 208.373 103.213 204.762 103.175 201.139C103.143 199.331 103.205 197.522 103.36 195.719C103.592 193.921 103.743 192.122 104.126 190.346C104.77 186.786 105.73 183.291 106.993 179.901C108.226 176.499 109.788 173.226 111.658 170.129Z" fill="#37474F"/>
<path d="M163.073 155.506L164.872 169.537L104.046 167.622C104.046 167.622 107.11 122.789 124.646 105.879C133.408 97.4303 143.041 98.6721 148.833 105.287C150.306 106.97 167.541 129.497 168.945 139.014C170.164 147.405 163.073 155.506 163.073 155.506Z" fill="#455A64"/>
<path d="M153.799 150.77C150.868 151.005 147.961 151.479 145.107 152.186C143.691 152.558 142.287 152.999 140.894 153.486C140.197 153.718 139.501 153.939 138.805 154.148C138.08 154.384 137.327 154.524 136.565 154.565C136.549 154.565 136.535 154.572 136.524 154.582C136.513 154.593 136.507 154.608 136.507 154.624C136.507 154.639 136.513 154.654 136.524 154.665C136.535 154.675 136.549 154.682 136.565 154.682C137.28 154.734 137.997 154.734 138.712 154.682C139.406 154.602 140.092 154.47 140.766 154.287C142.217 153.927 143.644 153.486 145.083 153.126C147.985 152.36 150.886 151.594 153.834 151.061C153.974 151.014 153.939 150.759 153.799 150.77Z" fill="#263238"/>
<path d="M160.948 153.788C158.551 153.465 156.137 153.286 153.718 153.254C152.558 153.254 151.316 153.324 150.109 153.428C149.528 153.428 148.948 153.544 148.379 153.614C147.811 153.683 147.126 153.858 146.488 153.927C146.472 153.927 146.458 153.933 146.447 153.944C146.436 153.955 146.43 153.97 146.43 153.985C146.43 154.001 146.436 154.015 146.447 154.026C146.458 154.037 146.472 154.043 146.488 154.043C147.091 154.043 147.648 154.043 148.298 154.043H150.12C151.281 154.043 152.534 154.043 153.741 154.043C156.155 154.043 158.558 153.985 160.972 154.043C161.076 154.008 161.076 153.799 160.948 153.788Z" fill="#263238"/>
<path d="M130.75 167.808C130.873 168.039 131.009 168.264 131.156 168.481H132.166C131.727 168.193 131.25 167.967 130.75 167.808ZM147.996 105.752C147.315 105.153 146.528 104.689 145.675 104.382C146.564 105.982 147.991 107.215 149.702 107.864C149.278 107.055 148.698 106.337 147.996 105.752ZM110.858 140.673C110.264 141.357 109.799 142.144 109.488 142.995C110.282 142.567 110.987 141.991 111.566 141.3C112.16 140.617 112.624 139.83 112.935 138.979C112.123 139.399 111.401 139.975 110.811 140.673H110.858ZM124.112 108.676C123.518 109.358 123.057 110.146 122.754 110.997C123.542 110.561 124.242 109.983 124.819 109.291C125.419 108.609 125.887 107.822 126.201 106.97C125.391 107.404 124.667 107.983 124.065 108.676H124.112ZM143.69 137.076C143.095 137.761 142.627 138.547 142.309 139.397C143.104 138.961 143.813 138.383 144.398 137.691C144.994 137.01 145.455 136.223 145.756 135.37C144.954 135.804 144.238 136.382 143.644 137.076H143.69ZM128.406 147.138C127.505 147.198 126.623 147.426 125.806 147.811C126.672 148.061 127.577 148.148 128.475 148.066C129.378 148.018 130.262 147.79 131.075 147.393C130.194 147.137 129.272 147.05 128.359 147.138H128.406ZM164.384 140.035C163.483 140.097 162.601 140.325 161.784 140.708C163.534 141.188 165.397 141.045 167.053 140.302C166.166 140.034 165.236 139.943 164.314 140.035H164.384ZM141.776 117.984C140.872 118.037 139.988 118.27 139.176 118.669C140.041 118.922 140.948 119.005 141.845 118.913C142.745 118.855 143.627 118.631 144.445 118.251C143.555 118.001 142.625 117.922 141.706 118.019L141.776 117.984ZM152.29 158.059C152.24 157.158 152.016 156.275 151.629 155.459C151.129 157.209 151.278 159.079 152.047 160.728C152.272 159.869 152.331 158.975 152.221 158.094L152.29 158.059ZM113.504 160.078C113.432 159.178 113.2 158.297 112.819 157.479C112.351 159.231 112.498 161.091 113.237 162.748C113.457 161.888 113.524 160.996 113.434 160.113L113.504 160.078ZM160.565 123.485C160.565 123.265 160.565 123.044 160.484 122.824C160.263 122.255 160.043 121.663 159.834 121.141C159.637 121.937 159.57 122.76 159.637 123.578C159.7 124.479 159.928 125.36 160.31 126.178C160.562 125.304 160.648 124.391 160.565 123.485ZM126.398 128.824C126.348 127.918 126.12 127.03 125.725 126.213C125.241 127.967 125.389 129.836 126.143 131.493C126.407 130.63 126.509 129.725 126.444 128.824H126.398Z" fill="white"/>
<path d="M134.871 104.951C135.184 106.111 141.138 113.736 146.616 113.319C148.392 113.168 148.055 103.419 148.055 103.419L148.194 102.699L150.144 92.5327L138.062 85.2907L136.31 84.339C136.31 84.339 135.962 87.1476 135.567 90.6641C135.567 90.8266 135.567 90.9891 135.509 91.1632C135.451 91.3373 135.509 91.5462 135.428 91.7319C135.37 92.2541 135.3 92.788 135.242 93.3219C135.184 93.8557 135.161 94.1227 135.126 94.5521L135.022 95.8287C134.762 98.8623 134.712 101.91 134.871 104.951Z" fill="#D3766A"/>
<path d="M150.121 92.5327L148.252 102.293C142.752 100.55 138.148 96.7327 135.416 91.6506L135.544 90.6641C135.95 87.1824 136.298 84.339 136.298 84.339L138.039 85.2907L150.121 92.5327Z" fill="#263238"/>
<path d="M163.977 78.2692C164.337 96.4206 153.532 98.6837 149.597 98.7534C146.046 98.823 133.941 98.6025 131.701 80.5903C129.461 62.5782 137.783 56.6592 145.907 56.0674C154.031 55.4755 163.617 60.1178 163.977 78.2692Z" fill="#D3766A"/>
<path d="M161.227 75.4954C160.809 75.4258 160.426 75.2981 160.067 75.1937C159.63 75.1462 159.221 74.9542 158.906 74.6482C158.819 74.5349 158.772 74.3962 158.772 74.2536C158.772 74.111 158.819 73.9723 158.906 73.859C159.119 73.6701 159.379 73.5415 159.658 73.4864C159.938 73.4313 160.227 73.4518 160.496 73.5457C161.074 73.6459 161.592 73.961 161.947 74.4277C162.03 74.5414 162.075 74.6778 162.078 74.8185C162.081 74.9591 162.04 75.0972 161.961 75.2139C161.883 75.3305 161.77 75.4202 161.639 75.4705C161.507 75.5209 161.364 75.5296 161.227 75.4954Z" fill="#C7C7C7"/>
<path d="M148.959 75.0659C149.389 75.0659 149.783 74.9267 150.201 74.857C150.646 74.8347 151.073 74.6722 151.42 74.3928C151.505 74.2787 151.55 74.1403 151.55 73.9982C151.55 73.856 151.505 73.7177 151.42 73.6036C151.221 73.3988 150.97 73.251 150.695 73.1755C150.419 73.1 150.129 73.0995 149.853 73.1742C149.273 73.2422 148.737 73.5185 148.344 73.9518C148.263 74.0592 148.215 74.1878 148.205 74.3222C148.195 74.4565 148.225 74.5908 148.29 74.7087C148.355 74.8266 148.453 74.9232 148.572 74.9866C148.691 75.05 148.825 75.0775 148.959 75.0659Z" fill="#C7C7C7"/>
<path d="M151.432 78.42C151.432 78.42 151.339 78.42 151.339 78.5245C151.339 79.7663 151.188 81.1822 150.062 81.5768C150.062 81.5768 150.062 81.6581 150.062 81.6464C151.432 81.4724 151.652 79.5806 151.432 78.42Z" fill="#263238"/>
<path d="M150.341 77.1087C148.356 76.9346 148.159 80.927 149.993 81.0895C151.826 81.2519 152.012 77.2596 150.341 77.1087Z" fill="#263238"/>
<path d="M149.552 77.2826C149.192 77.4915 148.832 77.8745 148.391 77.8978C147.95 77.921 147.556 77.4799 147.231 77.0621C147.231 77.0621 147.173 77.0621 147.161 77.0621C147.161 77.8165 147.37 78.6173 148.182 78.7798C148.995 78.9423 149.494 78.2691 149.726 77.5148C149.807 77.4219 149.703 77.2014 149.552 77.2826Z" fill="#263238"/>
<path d="M158.36 78.6057C158.36 78.6057 158.453 78.6753 158.453 78.7218C158.36 79.952 158.453 81.3795 159.614 81.8437V81.9018C158.244 81.658 158.082 79.7663 158.36 78.6057Z" fill="#263238"/>
<path d="M159.509 77.3639C161.506 77.2943 161.506 81.2751 159.66 81.3447C157.815 81.4144 157.838 77.422 159.509 77.3639Z" fill="#263238"/>
<path d="M160.345 77.6309C160.658 77.8398 160.971 78.2228 161.354 78.246C161.737 78.2692 162.109 77.8398 162.387 77.4336H162.445C162.445 78.1996 162.225 78.9888 161.482 79.1396C160.739 79.2905 160.321 78.6174 160.147 77.863C160.113 77.7585 160.217 77.538 160.345 77.6309Z" fill="#263238"/>
<path d="M151.374 85.2906C151.697 85.7573 152.113 86.1519 152.597 86.4495C153.08 86.7471 153.62 86.9413 154.182 87.0199C154.675 87.0894 155.175 87.0894 155.668 87.0199H155.946H156.213C156.278 87.0026 156.335 86.9651 156.377 86.9129C156.419 86.8607 156.443 86.7966 156.445 86.7298C156.451 86.6874 156.451 86.6445 156.445 86.6021V86.4976C156.445 85.5692 156.294 84.1765 156.294 84.1765C156.643 84.339 158.407 85.0585 158.36 84.5711C158.102 80.3808 157.418 76.2277 156.318 72.1761C156.31 72.1529 156.295 72.1327 156.275 72.1184C156.256 72.104 156.232 72.0963 156.207 72.0963C156.183 72.0963 156.159 72.104 156.139 72.1184C156.12 72.1327 156.105 72.1529 156.097 72.1761C156.318 76.0525 157.258 79.8591 157.49 83.7819C156.863 83.5196 156.203 83.3439 155.528 83.2596C155.401 83.2596 155.853 85.987 155.819 86.4048C155.06 86.5108 154.287 86.4626 153.547 86.2632C152.808 86.0638 152.116 85.7172 151.513 85.2442C151.397 85.0817 151.281 85.1978 151.374 85.2906Z" fill="#263238"/>
<g opacity="0.2">
<path d="M152.837 70.7951C153.614 70.7914 154.39 70.7294 155.158 70.6094C155.935 70.4702 156.666 70.1684 157.479 70.0407C158.96 69.8603 160.462 69.9468 161.912 70.2961C162.04 70.2961 162.028 70.4121 161.912 70.3889C160.377 70.0865 158.794 70.1142 157.27 70.4702C156.045 70.8604 154.772 71.0791 153.486 71.1201C150.556 70.9436 147.646 71.7037 145.177 73.2904C147.431 71.7278 150.094 70.8603 152.837 70.7951Z" fill="black"/>
<path d="M152.442 68.7525C153.176 68.7411 153.909 68.683 154.636 68.5784C155.379 68.4275 156.075 68.149 156.806 68.0213C158.211 67.8578 159.633 67.9442 161.007 68.2766C161.135 68.2766 161.123 68.3811 161.007 68.3579C159.548 68.0707 158.045 68.0984 156.597 68.4391C155.431 68.8058 154.221 69.0128 152.999 69.0542C150.22 68.8864 147.459 69.6101 145.119 71.1201C147.271 69.6213 149.82 68.7971 152.442 68.7525Z" fill="black"/>
</g>
<path d="M132.468 82.8766C135.52 82.9811 135.949 76.5747 135.949 76.5747C135.949 76.5747 142.124 76.331 143.772 67.3713C143.712 70.0373 142.872 72.6275 141.358 74.8222C141.358 74.8222 152.198 73.1974 156.445 63.9012C156.445 63.9012 154.809 68.6131 153.172 70.3424C155.899 69.3818 158.219 67.5242 159.753 65.0734C159.753 65.0734 161.877 70.238 163.409 71.6306C163.409 71.6306 165.73 46.7131 141.752 55.7888C141.752 55.7888 131.748 56.1602 128.162 65.0734C124.576 73.9866 132.468 82.8766 132.468 82.8766Z" fill="#C7C7C7"/>
<path d="M134.615 81.925C134.615 81.925 131.029 76.006 128.372 77.2827C125.714 78.5593 128.139 86.9154 131.076 88.2385C131.442 88.4345 131.844 88.5544 132.258 88.5908C132.671 88.6272 133.088 88.5794 133.483 88.4504C133.878 88.3213 134.242 88.1136 134.555 87.8398C134.867 87.5661 135.12 87.2319 135.3 86.8574L134.615 81.925Z" fill="#D3766A"/>
<path d="M129.126 79.6387C129.126 79.6387 129.126 79.6387 129.126 79.7083C131.18 80.7064 132.155 82.7374 132.805 84.8264C132.696 84.6065 132.54 84.4127 132.349 84.2583C132.158 84.104 131.936 83.9927 131.698 83.9321C131.46 83.8715 131.212 83.863 130.97 83.9072C130.729 83.9514 130.499 84.0472 130.298 84.1881C130.298 84.1881 130.298 84.3158 130.356 84.3158C130.733 84.221 131.13 84.2461 131.492 84.3875C131.854 84.529 132.163 84.7798 132.376 85.105C132.731 85.6519 133.027 86.2356 133.258 86.8458C133.35 87.0431 133.699 86.9619 133.641 86.7414C133.873 84.0024 132.004 80.1029 129.126 79.6387Z" fill="#263238"/>
<path d="M133.21 87.5074C133.205 87.6248 133.175 87.7399 133.125 87.846C133.074 87.9522 133.004 88.0474 132.916 88.1261C132.829 88.2048 132.727 88.2655 132.616 88.3047C132.505 88.3439 132.388 88.3609 132.27 88.3546C132.032 88.3396 131.81 88.2313 131.651 88.0531C131.492 87.8748 131.41 87.6412 131.423 87.4029C131.431 87.2855 131.461 87.1707 131.513 87.065C131.565 86.9594 131.637 86.8651 131.725 86.7874C131.814 86.7098 131.917 86.6504 132.028 86.6126C132.14 86.5748 132.257 86.5594 132.375 86.5673C132.492 86.5732 132.606 86.6023 132.712 86.653C132.817 86.7036 132.912 86.7747 132.99 86.8622C133.067 86.9497 133.127 87.0518 133.165 87.1626C133.203 87.2734 133.218 87.3906 133.21 87.5074Z" fill="white"/>
<path d="M172.403 182.489H254.561L232.498 121.872H150.341L172.403 182.489Z" fill="#96DA84"/>
<path d="M200.663 115.593H230.211L232.498 121.872H201.255L200.663 115.593Z" fill="#96DA84"/>
<g opacity="0.2">
<path d="M172.403 182.489H254.561L232.498 121.872H150.341L172.403 182.489Z" fill="black"/>
<path d="M200.663 115.593H230.211L232.498 121.872H201.255L200.663 115.593Z" fill="black"/>
</g>
<path d="M166.449 143.331L224.826 176.152L266.944 101.214L223.608 76.8533L200.547 82.6794L166.449 143.331Z" fill="#EBEBEB"/>
<path d="M223.608 76.8533L200.547 82.6794L215.576 91.1284L223.608 76.8533Z" fill="#DBDBDB"/>
<path d="M254.198 110.584L221.742 92.3406L220.662 94.2628L253.117 112.506L254.198 110.584Z" fill="#DBDBDB"/>
<path d="M251.464 115.432L219.009 97.1888L217.928 99.1111L250.384 117.354L251.464 115.432Z" fill="#DBDBDB"/>
<path d="M248.735 120.296L216.279 102.053L215.199 103.975L247.654 122.218L248.735 120.296Z" fill="#DBDBDB"/>
<path d="M245.996 125.154L198.445 98.4265L197.365 100.349L244.915 127.076L245.996 125.154Z" fill="#DBDBDB"/>
<path d="M243.272 130.008L195.722 103.281L194.641 105.203L242.191 131.93L243.272 130.008Z" fill="#DBDBDB"/>
<path d="M240.034 134.553L192.578 107.825L191.498 109.744L238.954 136.472L240.034 134.553Z" fill="#DBDBDB"/>
<path d="M237.82 139.726L190.27 112.998L189.189 114.921L236.739 141.648L237.82 139.726Z" fill="#DBDBDB"/>
<path d="M235.084 144.58L187.534 117.852L186.454 119.775L234.004 146.502L235.084 144.58Z" fill="#DBDBDB"/>
<path d="M232.344 149.438L184.794 122.711L183.713 124.633L231.264 151.361L232.344 149.438Z" fill="#DBDBDB"/>
<path d="M229.621 154.292L182.071 127.565L180.991 129.487L228.541 156.215L229.621 154.292Z" fill="#DBDBDB"/>
<path d="M226.892 159.156L179.342 132.429L178.261 134.351L225.812 161.079L226.892 159.156Z" fill="#DBDBDB"/>
<path d="M224.168 164.01L176.618 137.283L175.538 139.205L223.088 165.932L224.168 164.01Z" fill="#DBDBDB"/>
<path d="M172.078 182.489H254.235L260.688 126.897H178.531L172.078 182.489Z" fill="#96DA84"/>
<path opacity="0.1" d="M172.078 182.489H254.235L260.688 126.897H178.531L172.078 182.489Z" fill="black"/>
<path d="M231.801 121.141H261.349L260.688 126.897H229.434L231.801 121.141Z" fill="#96DA84"/>
<path opacity="0.1" d="M231.801 121.141H261.349L260.688 126.897H229.434L231.801 121.141Z" fill="black"/>
<path d="M120.095 122.824C121.349 132.41 130.541 169.107 138.665 178.253C143.957 184.207 178.403 192.505 187.664 195.313C191.657 196.474 201.382 166.473 196.949 166.415C193.676 166.415 157.93 156.55 154.831 155.32C154.831 155.32 141.775 134.209 133.43 120.386C125.562 107.318 117.763 104.928 120.095 122.824Z" fill="#D3766A"/>
<path d="M209.751 173.692C208.161 172.531 208.776 171.672 212.281 171.58C215.786 171.487 229.782 174.075 230.27 169.119C230.757 164.164 210.981 160.786 205.143 161.401C199.305 162.016 190.056 165.046 190.056 165.046C193.804 166.473 202.497 170.802 209.751 173.692Z" fill="#D3766A"/>
<path d="M182.616 193.41C193.235 197.043 206.234 202.23 218.594 199.689C219.981 199.448 221.245 198.744 222.18 197.693C227.763 196.648 228.946 193.7 228.946 193.7C233.856 191.147 234.656 187.967 234.656 187.967C234.656 187.967 241.19 186.679 241.074 182.593C240.947 177.951 231.79 180.725 225.836 179.112C212.211 175.468 193.851 166.473 190.032 165.034L182.616 193.41Z" fill="#D3766A"/>
<path d="M208.927 185.344C212.903 186.462 216.952 187.304 221.044 187.862C225.552 188.199 230.079 188.199 234.588 187.862C234.611 187.87 234.631 187.885 234.646 187.905C234.66 187.924 234.668 187.948 234.668 187.973C234.668 187.997 234.66 188.021 234.646 188.041C234.631 188.061 234.611 188.075 234.588 188.083C225.935 189.598 217.033 188.715 208.846 185.53C208.695 185.448 208.718 185.298 208.927 185.344Z" fill="#263238"/>
<path d="M205.526 193.248C209.507 194.002 216.505 195.267 228.993 193.572C228.993 193.572 228.993 193.631 228.993 193.642C221.285 195.764 213.137 195.691 205.468 193.433C205.248 193.375 205.259 193.201 205.526 193.248Z" fill="#263238"/>
<path d="M203.785 197.53C210.597 198.551 215.019 198.331 222.215 197.658C222.215 197.658 222.215 197.727 222.215 197.739C214.091 199.352 210.992 199.016 203.704 197.739C203.506 197.716 203.506 197.495 203.785 197.53Z" fill="#263238"/>
<path d="M146.383 137.633L125.028 155.32C125.028 155.32 118.692 125.493 119.307 116.197C119.991 105.752 125.191 108.375 131.829 115.814C138.468 123.253 146.383 137.633 146.383 137.633Z" fill="#455A64"/>
<path d="M126.444 128.824C126.395 127.917 126.166 127.03 125.771 126.213C125.287 127.967 125.435 129.836 126.189 131.493C126.438 130.627 126.524 129.722 126.444 128.824ZM128.359 147.138C127.458 147.198 126.576 147.426 125.759 147.811C126.626 148.061 127.531 148.147 128.429 148.066C129.332 148.018 130.216 147.789 131.028 147.393C130.162 147.143 129.257 147.056 128.359 147.138ZM145.257 135.648C144.657 136.048 144.114 136.529 143.644 137.076C143.049 137.761 142.581 138.547 142.263 139.397C143.058 138.961 143.766 138.383 144.352 137.691C144.806 137.18 145.196 136.614 145.512 136.008L145.257 135.648ZM123.566 109.338C123.196 109.843 122.906 110.403 122.707 110.997C123.37 110.637 123.967 110.166 124.471 109.605C124.18 109.482 123.877 109.392 123.566 109.338Z" fill="white"/>
<path d="M124.889 149.041C125.539 148.31 132.096 142.693 133.558 141.509C135.021 140.325 140.905 135.393 142.506 134.29C142.576 134.29 142.669 134.29 142.599 134.395C141.241 135.776 135.311 140.755 133.848 141.996C132.386 143.238 125.724 148.658 124.97 149.146C124.9 149.192 124.842 149.088 124.889 149.041Z" fill="#263238"/>
<path d="M144.677 139.025C145.281 138.445 146.256 137.575 146.256 137.575C144.735 134.743 135.718 121.118 133.605 117.845C133.605 117.787 133.605 117.74 133.687 117.787C134.998 119.597 136.31 121.408 137.598 123.218C137.47 122.963 137.354 122.708 137.238 122.452C136.797 121.547 136.391 120.63 135.927 119.737C135.927 119.667 135.996 119.597 136.043 119.667C136.593 120.519 137.093 121.402 137.54 122.313C137.842 122.963 138.085 123.625 138.341 124.286C139.072 125.342 139.815 126.375 140.522 127.443C142.693 130.727 145.072 134.047 146.987 137.482C146.309 138.131 145.57 138.714 144.782 139.223C144.756 139.237 144.725 139.239 144.697 139.231C144.668 139.222 144.645 139.202 144.631 139.176C144.617 139.15 144.614 139.12 144.623 139.091C144.632 139.063 144.651 139.039 144.677 139.025Z" fill="#263238"/>
<path d="M127.095 153.614C126.457 154.241 125.795 154.844 125.145 155.471L124.936 155.668L124.844 155.366C123.778 151.854 122.926 148.281 122.29 144.666C121.977 142.855 121.687 141.045 121.49 139.223C121.292 137.401 121.095 135.578 121.014 133.745C121.408 135.532 121.745 137.331 122.093 139.13L123.138 144.515L125.215 155.273L124.913 155.181C125.633 154.716 126.352 154.113 127.095 153.614Z" fill="#263238"/>
<path d="M122.011 140.604C121.455 140.079 121.029 139.431 120.769 138.712C120.63 138.363 120.525 138.002 120.456 137.633C120.374 137.252 120.347 136.861 120.375 136.472C120.738 137.115 121.049 137.786 121.303 138.48C121.58 139.174 121.816 139.883 122.011 140.604Z" fill="#263238"/>
<path d="M148.148 103.164L145.478 111.589L134.569 101.957L131.923 105.438C131.923 105.438 143.041 121.176 143.053 120.433L145.919 113.133L151.142 117.694L149.877 105.403L148.148 103.164Z" fill="#455A64"/>
<path d="M150.828 111.636C150.549 109.616 150.317 107.562 149.946 105.554C149.946 105.485 149.818 105.462 149.807 105.554C149.54 107.539 150.642 115.268 150.77 117.16C150.549 116.963 145.953 113.156 145.907 113.226C145.257 114.386 143.145 119.713 143.017 120.189C141.253 117.694 133.849 107.864 131.806 105.52C131.806 105.52 131.644 105.52 131.69 105.601C133.28 108.27 142.866 121.245 142.994 121.199C144.123 118.683 145.122 116.111 145.988 113.493C146.777 114.34 151.455 118.657 151.455 118.356C151.385 116.267 151.095 113.655 150.828 111.636Z" fill="#263238"/>
</svg>
