<svg width="329" height="331" viewBox="0 0 329 331" fill="none" xmlns="http://www.w3.org/2000/svg">
<path d="M293.457 261.77L303.779 261.553L308.863 261.468C310.555 261.43 312.232 261.468 313.916 261.422L313.576 261.77L313.53 253.124L313.916 253.51L303.663 253.456C300.256 253.456 296.849 253.371 293.433 253.333L293.65 253.124C293.65 254.538 293.58 255.96 293.542 257.397L293.457 261.77ZM293.457 261.77L293.348 257.489C293.348 256.045 293.263 254.592 293.248 253.124V252.915H293.457C296.872 252.915 300.279 252.799 303.686 252.792L313.916 252.745H314.302V253.132V261.778V262.11H313.955C312.232 262.11 310.501 262.11 308.786 262.071L303.64 261.986L293.457 261.77Z" fill="#EBEBEB"/>
<path d="M304.867 272.672L315.189 272.456L320.273 272.371C321.965 272.371 323.642 272.371 325.326 272.324L324.986 272.672L324.948 264.026L325.326 264.412L315.097 264.358C311.689 264.358 308.282 264.273 304.867 264.235L305.083 264.026C305.083 265.44 305.014 266.862 304.983 268.299L304.867 272.672ZM304.867 272.672L304.759 268.391C304.759 266.947 304.674 265.494 304.658 264.026V263.817H304.867C308.282 263.779 311.689 263.702 315.097 263.694L325.295 263.655H325.689V264.041L325.651 272.687V273.035H325.295C323.572 273.035 321.849 273.035 320.126 272.996L314.981 272.911L304.867 272.672Z" fill="#EBEBEB"/>
<path d="M282.042 272.672H302.502V264.026H282.042V272.672Z" fill="#EBEBEB"/>
<path d="M214.22 65.0871L224.535 64.8785L229.619 64.7857C231.311 64.7857 232.995 64.7857 234.68 64.7471L234.332 65.0871V56.4413L234.718 56.8276L224.489 56.7812C221.074 56.7812 217.666 56.6962 214.259 56.6576L214.467 56.4413C214.467 57.8629 214.398 59.2846 214.367 60.7217L214.22 65.0871ZM214.22 65.0871L214.104 60.8144C214.104 59.3696 214.019 57.9093 214.004 56.4413V56.2326H214.22C217.628 56.2326 221.035 56.109 224.45 56.109L234.68 56.0549H235.066V56.4413L235.02 65.0871V65.4348H234.68C232.957 65.4348 231.226 65.4348 229.503 65.3884L224.357 65.3034L214.22 65.0871Z" fill="#EBEBEB"/>
<path d="M225.625 75.9966L235.939 75.788L241.023 75.6953C242.715 75.6953 244.4 75.6953 246.084 75.6953L245.736 76.0353L245.713 67.3508L246.1 67.7371L235.87 67.6908C232.462 67.6908 229.047 67.6058 225.64 67.5671L225.849 67.3508C225.849 68.7725 225.787 70.1941 225.748 71.6312L225.625 75.9966ZM225.625 75.9966L225.516 71.7239C225.478 70.2791 225.424 68.8188 225.416 67.3508V67.1422H225.625C229.032 67.1422 232.447 67.0186 235.854 67.0186L246.084 66.9645H246.47V67.3508L246.424 75.9966V76.3443H246.084C244.361 76.3443 242.63 76.3443 240.907 76.2979L235.762 76.213L225.625 75.9966Z" fill="#EBEBEB"/>
<path d="M202.808 76.0044H223.268V67.3586H202.808V76.0044Z" fill="#EBEBEB"/>
<path d="M18.3413 272.672H38.8008V264.026H18.3413V272.672Z" fill="#EBEBEB"/>
<path d="M18.3413 9.02441L38.8008 9.02441V0.378594L18.3413 0.378594V9.02441Z" fill="#EBEBEB"/>
<path d="M6.9699 19.9187L17.2846 19.7023L22.3686 19.6173C24.0607 19.6173 25.7373 19.6173 27.4294 19.5787L27.0817 19.9187V11.2728L27.468 11.6591L17.1687 11.6128C13.7537 11.6128 10.3463 11.5278 6.93899 11.4892L7.14761 11.2728C7.14761 12.6868 7.07807 14.1161 7.04716 15.5532L6.9699 19.9187ZM6.9699 19.9187L6.8231 15.6382C6.8231 14.1934 6.73811 12.7331 6.72266 11.2651V11.0565H6.9699C10.3772 11.0565 13.7846 10.9329 17.1996 10.9329L27.4294 10.8788H27.8157V11.2651L27.7693 19.9109V20.2741H27.4294C25.6987 20.2741 23.9757 20.2741 22.2527 20.2277L17.1069 20.1427L6.9699 19.9187Z" fill="#EBEBEB"/>
<path d="M304.867 9.03214L315.189 8.8158L320.273 8.72308C321.965 8.72308 323.642 8.72308 325.326 8.72308L324.986 9.07077L324.948 0.424953L325.326 0.803544L315.097 0.757188C311.689 0.757188 308.282 0.672198 304.867 0.633566L305.083 0.424953C305.083 1.83888 305.014 3.26053 304.983 4.69764L304.867 9.03214ZM304.867 9.03214L304.759 4.75173C304.759 3.30689 304.674 1.84661 304.658 0.386319V0.185434H304.867C308.282 0.185434 311.689 0.0618125 315.097 0.0618125L325.295 0H325.689V0.394047L325.651 9.03987V9.37983H325.295C323.572 9.37983 321.849 9.37983 320.126 9.37983L314.981 9.28711L304.867 9.03214Z" fill="#EBEBEB"/>
<path d="M191.073 232.046H170.613V240.692H191.073V232.046Z" fill="#EBEBEB"/>
<path d="M179.66 221.16L169.338 221.376L164.261 221.461C162.569 221.5 160.885 221.461 159.201 221.508L159.548 221.16L159.587 229.806L159.201 229.419L169.43 229.466C172.838 229.466 176.253 229.558 179.66 229.597L179.452 229.806C179.452 228.392 179.513 226.97 179.552 225.525L179.66 221.16ZM179.66 221.16L179.768 225.44C179.807 226.877 179.853 228.338 179.869 229.806V230.014H179.652C176.245 230.053 172.83 230.138 169.423 230.146L159.193 230.192H158.807V229.806L158.845 221.16V220.812H159.178C160.9 220.812 162.631 220.812 164.346 220.812L169.5 220.897L179.66 221.16Z" fill="#EBEBEB"/>
<path d="M285.436 150.796H97.0898V8.50684H285.436V150.796ZM97.8625 150.023H284.663V9.27947H97.8625V150.023Z" fill="#EBEBEB"/>
<path d="M104.128 12.4937C104.128 12.8467 104.023 13.1917 103.827 13.4853C103.631 13.7788 103.353 14.0075 103.026 14.1426C102.7 14.2777 102.341 14.313 101.995 14.2442C101.649 14.1753 101.331 14.0053 101.081 13.7557C100.832 13.5061 100.662 13.1881 100.593 12.8419C100.524 12.4957 100.559 12.1368 100.694 11.8107C100.83 11.4845 101.058 11.2058 101.352 11.0097C101.645 10.8136 101.99 10.7089 102.343 10.7089C102.578 10.7079 102.811 10.7533 103.028 10.8427C103.245 10.932 103.442 11.0634 103.608 11.2294C103.774 11.3953 103.905 11.5925 103.994 11.8095C104.084 12.0265 104.129 12.259 104.128 12.4937Z" fill="#A6A6A6"/>
<path d="M111.415 12.4937C111.415 12.8467 111.311 13.1917 111.115 13.4852C110.918 13.7787 110.64 14.0075 110.314 14.1426C109.987 14.2777 109.629 14.313 109.282 14.2442C108.936 14.1753 108.618 14.0053 108.368 13.7557C108.119 13.5061 107.949 13.1881 107.88 12.8419C107.811 12.4956 107.846 12.1368 107.982 11.8106C108.117 11.4845 108.345 11.2058 108.639 11.0097C108.932 10.8135 109.277 10.7089 109.63 10.7089C110.104 10.7089 110.558 10.8969 110.893 11.2316C111.227 11.5663 111.415 12.0203 111.415 12.4937Z" fill="#EBEBEB"/>
<path d="M118.691 12.4937C118.691 12.8467 118.586 13.1917 118.39 13.4853C118.194 13.7788 117.915 14.0075 117.589 14.1426C117.263 14.2777 116.904 14.313 116.558 14.2442C116.211 14.1753 115.893 14.0053 115.644 13.7557C115.394 13.5061 115.224 13.1881 115.155 12.8419C115.087 12.4957 115.122 12.1368 115.257 11.8107C115.392 11.4845 115.621 11.2058 115.914 11.0097C116.208 10.8136 116.553 10.7089 116.906 10.7089C117.141 10.7079 117.373 10.7533 117.59 10.8427C117.807 10.932 118.004 11.0634 118.17 11.2294C118.336 11.3953 118.468 11.5925 118.557 11.8095C118.646 12.0265 118.692 12.259 118.691 12.4937Z" fill="#FFC727"/>
<path d="M285.048 15.5996H97.4746V16.3722H285.048V15.5996Z" fill="#EBEBEB"/>
<path d="M58.8618 46.1579C61.1923 31.0689 50.8495 16.9476 35.7606 14.6171C20.6716 12.2866 6.55026 22.6294 4.21976 37.7184C1.88925 52.8074 12.232 66.9287 27.321 69.2592C42.41 71.5897 56.5313 61.2469 58.8618 46.1579Z" fill="#EBEBEB"/>
<path d="M32.8036 68.9194C47.3717 68.9194 59.1815 57.1097 59.1815 42.5416C59.1815 27.9735 47.3717 16.1637 32.8036 16.1637C18.2356 16.1637 6.42578 27.9735 6.42578 42.5416C6.42578 57.1097 18.2356 68.9194 32.8036 68.9194Z" fill="#DBDBDB"/>
<path d="M32.8046 67.2582C46.4552 67.2582 57.5213 56.1922 57.5213 42.5415C57.5213 28.8909 46.4552 17.8248 32.8046 17.8248C19.1539 17.8248 8.08789 28.8909 8.08789 42.5415C8.08789 56.1922 19.1539 67.2582 32.8046 67.2582Z" fill="white"/>
<path opacity="0.5" d="M56.9584 37.2722C45.7088 44.0869 27.2118 55.2747 16.8739 61.4094C13.9491 58.9451 11.6373 55.8344 10.1211 52.3232L44.3103 20.645C47.5043 22.3254 50.2917 24.6847 52.4768 27.5571C54.6618 30.4296 56.1915 33.7455 56.9584 37.2722Z" fill="#EBEBEB"/>
<path opacity="0.5" d="M57.5073 43.407C57.4115 46.1579 56.8579 48.8735 55.8693 51.4424L25.0487 66.0144C23.7156 65.5698 22.4231 65.0115 21.1855 64.3455C30.4649 58.9602 47.4784 49.1709 57.5073 43.407Z" fill="#EBEBEB"/>
<path d="M33.0435 19.6251H32.5645V23.3724H33.0435V19.6251Z" fill="#C7C7C7"/>
<path d="M21.5574 22.5721L21.1426 22.8116L23.0162 26.0569L23.4311 25.8174L21.5574 22.5721Z" fill="#C7C7C7"/>
<path d="M13.0755 30.8716L12.8359 31.2865L16.0812 33.1601L16.3207 32.7453L13.0755 30.8716Z" fill="#C7C7C7"/>
<path d="M13.6379 42.3097H9.89062V42.7887H13.6379V42.3097Z" fill="#C7C7C7"/>
<path d="M16.2504 52.2859L12.9902 54.1595L13.2298 54.5763L16.4899 52.7027L16.2504 52.2859Z" fill="#C7C7C7"/>
<path d="M23.0165 59.0285L21.1445 62.2748L21.5595 62.5141L23.4315 59.2678L23.0165 59.0285Z" fill="#C7C7C7"/>
<path d="M33.0435 61.7184H32.5645V65.4657H33.0435V61.7184Z" fill="#C7C7C7"/>
<path d="M42.5985 59.0322L42.1836 59.2717L44.0572 62.517L44.4721 62.2775L42.5985 59.0322Z" fill="#C7C7C7"/>
<path d="M49.5286 51.9189L49.2891 52.3337L52.5343 54.2074L52.7738 53.7925L49.5286 51.9189Z" fill="#C7C7C7"/>
<path d="M55.7317 42.3097H51.9844V42.7887H55.7317V42.3097Z" fill="#C7C7C7"/>
<path d="M52.5343 30.8754L49.2891 32.749L49.5286 33.1639L52.7738 31.2902L52.5343 30.8754Z" fill="#C7C7C7"/>
<path d="M44.0555 22.5668L42.1836 25.813L42.5986 26.0523L44.4705 22.8061L44.0555 22.5668Z" fill="#C7C7C7"/>
<path d="M33.1704 21.3248L33.9816 44.2103L31.6328 44.1794L32.5291 21.3093L33.1704 21.3248Z" fill="#C7C7C7"/>
<path d="M47.4233 34.5602L32.0246 44.3959L30.9043 42.3329L47.122 34.0039L47.4233 34.5602Z" fill="#A6A6A6"/>
<path d="M33.6072 42.5415C33.6072 42.7536 33.5229 42.957 33.373 43.107C33.223 43.2569 33.0196 43.3412 32.8075 43.3412C32.5954 43.3412 32.392 43.2569 32.242 43.107C32.0921 42.957 32.0078 42.7536 32.0078 42.5415C32.0078 42.3294 32.0921 42.126 32.242 41.976C32.392 41.8261 32.5954 41.7418 32.8075 41.7418C33.0196 41.7418 33.223 41.8261 33.373 41.976C33.5229 42.126 33.6072 42.3294 33.6072 42.5415Z" fill="#C7C7C7"/>
<path d="M298.71 35.441H264.242V77.2562H298.71V35.441Z" fill="#EBEBEB"/>
<path d="M294.77 39.2578H268.176V73.4393H294.77V39.2578Z" fill="white"/>
<path d="M269.211 39.2578H268.176V73.4393H269.211V39.2578Z" fill="#DBDBDB"/>
<path d="M299.744 35.441H298.709V77.2562H299.744V35.441Z" fill="#DBDBDB"/>
<path d="M283.366 43.9708H277.092V62.6532H283.366V43.9708Z" fill="#DBDBDB"/>
<path d="M291.461 66.2306H273.969V56.3099H291.461V66.2306ZM274.741 65.458H290.689V57.0826H274.741V65.458Z" fill="#EBEBEB"/>
<path d="M327.327 87.2772H292.859V129.092H327.327V87.2772Z" fill="#EBEBEB"/>
<path d="M323.395 91.0941H296.801V125.276H323.395V91.0941Z" fill="white"/>
<path d="M297.836 91.0941H296.801V125.276H297.836V91.0941Z" fill="#DBDBDB"/>
<path d="M328.371 87.2772H327.336V129.092H328.371V87.2772Z" fill="#DBDBDB"/>
<path d="M312.895 99.9254H307.525V113.508H312.895V99.9254Z" fill="#EBEBEB"/>
<path d="M318.936 117.935H303.73V107.798H318.936V117.935ZM304.503 117.163H318.163V108.571H304.503V117.163Z" fill="#DBDBDB"/>
<path d="M6.79965 261.677H97.0129L99.918 204.432H3.89453L6.79965 261.677Z" fill="#EBEBEB"/>
<path d="M90.4122 230.671H10.9155L9.81836 210.729H91.718L90.4122 230.671ZM11.6032 229.899H89.6396L90.8217 211.502H10.6296L11.6032 229.899Z" fill="#DBDBDB"/>
<path d="M89.354 253.534H13.1951L12.2988 235.523H90.4821L89.354 253.534ZM13.9214 252.761H88.62L89.6399 236.296H13.1487L13.9214 252.761Z" fill="#DBDBDB"/>
<path d="M59.8398 222.891H42.9344L42.3086 218.069H60.4656L59.8398 222.891ZM43.6144 222.118H59.1598L59.5925 218.803H43.1894L43.6144 222.118Z" fill="#DBDBDB"/>
<path d="M59.8398 246.958H42.9344L42.3086 242.098H60.4656L59.8398 246.958ZM43.6144 246.186H59.1598L59.5925 242.871H43.1894L43.6144 246.186Z" fill="#DBDBDB"/>
<path d="M19.3071 261.677L18.4341 267.912L16.6647 280.445H13.2188V261.677H19.3071Z" fill="#EBEBEB"/>
<path d="M19.3071 261.677L18.4341 267.912H13.2188V261.677H19.3071Z" fill="#DBDBDB"/>
<path d="M84.502 261.677L85.375 267.912L87.1366 280.445H90.5826V261.677H84.502Z" fill="#EBEBEB"/>
<path d="M84.502 261.677L85.375 267.912H90.5826V261.677H84.502Z" fill="#DBDBDB"/>
<path d="M292.272 24.1372H39.9902V193.322H292.272V24.1372Z" fill="#455A64"/>
<path d="M292.272 24.1372H39.9902V31.1528H292.272V24.1372Z" fill="#263238"/>
<path d="M45.598 27.6449C45.598 27.9888 45.496 28.3249 45.305 28.6108C45.114 28.8966 44.8425 29.1195 44.5248 29.251C44.2071 29.3826 43.8576 29.417 43.5204 29.35C43.1832 29.2829 42.8734 29.1173 42.6303 28.8742C42.3871 28.6311 42.2216 28.3213 42.1545 27.9841C42.0874 27.6469 42.1218 27.2973 42.2534 26.9797C42.385 26.662 42.6078 26.3905 42.8937 26.1995C43.1796 26.0085 43.5157 25.9065 43.8595 25.9065C44.3206 25.9065 44.7628 26.0897 45.0888 26.4157C45.4148 26.7417 45.598 27.1839 45.598 27.6449Z" fill="#C7C7C7"/>
<path d="M52.67 27.6449C52.6716 27.9906 52.5705 28.329 52.3795 28.6171C52.1886 28.9053 51.9164 29.1303 51.5975 29.2637C51.2785 29.397 50.9272 29.4327 50.588 29.3662C50.2488 29.2997 49.9369 29.134 49.6919 28.8901C49.4469 28.6462 49.2799 28.3351 49.2119 27.9962C49.1439 27.6572 49.178 27.3057 49.3099 26.9862C49.4418 26.6667 49.6656 26.3935 49.953 26.2013C50.2403 26.0091 50.5782 25.9065 50.9239 25.9065C51.3857 25.9065 51.8286 26.0894 52.1559 26.4152C52.4831 26.741 52.668 27.1832 52.67 27.6449Z" fill="white"/>
<path d="M59.7697 27.6449C59.7712 27.991 59.6699 28.3296 59.4786 28.618C59.2873 28.9063 59.0147 29.1313 58.6953 29.2644C58.3759 29.3975 58.0242 29.4328 57.6847 29.3656C57.3453 29.2985 57.0335 29.132 56.7888 28.8874C56.5441 28.6427 56.3777 28.3309 56.3105 27.9914C56.2434 27.652 56.2786 27.3002 56.4117 26.9809C56.5449 26.6615 56.7699 26.3889 57.0582 26.1976C57.3465 26.0063 57.6852 25.905 58.0312 25.9065C58.4923 25.9065 58.9345 26.0897 59.2605 26.4157C59.5865 26.7417 59.7697 27.1839 59.7697 27.6449Z" fill="#FFC727"/>
<path d="M252.565 123.089H79.7031V137.143H252.565V123.089Z" fill="white"/>
<path d="M184.342 126.342H83.7676V133.89H184.342V126.342Z" fill="#FFC727"/>
<path opacity="0.2" d="M94.6309 133.89H89.4774L83.7676 126.342H88.9134L94.6309 133.89Z" fill="white"/>
<path opacity="0.2" d="M105.486 133.89H100.341L94.6309 126.342H99.7766L105.486 133.89Z" fill="white"/>
<path opacity="0.2" d="M116.352 133.89H111.198L105.488 126.342H110.642L116.352 133.89Z" fill="white"/>
<path opacity="0.2" d="M127.205 133.89H122.059L116.35 126.342H121.495L127.205 133.89Z" fill="white"/>
<path opacity="0.2" d="M138.068 133.89H132.915L127.205 126.342H132.359L138.068 133.89Z" fill="white"/>
<path opacity="0.2" d="M148.932 133.89H143.778L138.068 126.342H143.222L148.932 133.89Z" fill="white"/>
<path opacity="0.2" d="M159.787 133.89H154.641L148.932 126.342H154.077L159.787 133.89Z" fill="white"/>
<path opacity="0.2" d="M170.65 133.89H165.497L159.787 126.342H164.941L170.65 133.89Z" fill="white"/>
<path opacity="0.2" d="M181.506 133.89H176.36L170.65 126.342H175.796L181.506 133.89Z" fill="white"/>
<path opacity="0.2" d="M184.349 126.342V130.089L181.506 126.342H184.349Z" fill="white"/>
<path d="M170.149 74.9459C170.149 75.5282 169.977 76.0973 169.653 76.5814C169.33 77.0655 168.87 77.4428 168.332 77.6656C167.794 77.8884 167.202 77.9467 166.631 77.8331C166.06 77.7196 165.536 77.4392 165.124 77.0275C164.712 76.6158 164.432 76.0913 164.318 75.5202C164.205 74.9492 164.263 74.3573 164.486 73.8194C164.709 73.2815 165.086 72.8218 165.57 72.4983C166.054 72.1748 166.623 72.0022 167.205 72.0022C167.986 72.0022 168.735 72.3123 169.287 72.8644C169.839 73.4165 170.149 74.1652 170.149 74.9459Z" fill="#FFC727"/>
<path d="M155.122 82.2704C156.551 82.2704 157.71 81.1116 157.71 79.6821C157.71 78.2526 156.551 77.0938 155.122 77.0938C153.692 77.0938 152.533 78.2526 152.533 79.6821C152.533 81.1116 153.692 82.2704 155.122 82.2704Z" fill="#FFC727"/>
<path d="M149.906 89.2551C150.364 89.2551 150.812 89.3911 151.194 89.6458C151.575 89.9005 151.872 90.2625 152.047 90.686C152.223 91.1096 152.269 91.5756 152.179 92.0252C152.09 92.4749 151.869 92.8879 151.545 93.2121C151.221 93.5362 150.808 93.757 150.358 93.8464C149.908 93.9359 149.442 93.89 149.019 93.7145C148.595 93.5391 148.233 93.242 147.979 92.8608C147.724 92.4796 147.588 92.0315 147.588 91.573C147.588 90.9583 147.832 90.3687 148.267 89.934C148.701 89.4993 149.291 89.2551 149.906 89.2551Z" fill="#FFC727"/>
<path d="M153.282 102.266C153.556 101.994 153.905 101.809 154.283 101.735C154.662 101.661 155.055 101.7 155.411 101.849C155.767 101.997 156.072 102.247 156.286 102.569C156.5 102.89 156.615 103.267 156.615 103.653C156.615 104.039 156.5 104.417 156.286 104.738C156.072 105.059 155.767 105.31 155.411 105.458C155.055 105.606 154.662 105.646 154.283 105.571C153.905 105.497 153.556 105.312 153.282 105.04C153.099 104.858 152.954 104.642 152.855 104.404C152.756 104.166 152.705 103.911 152.705 103.653C152.705 103.395 152.756 103.14 152.855 102.902C152.954 102.664 153.099 102.448 153.282 102.266Z" fill="#FFC727"/>
<path d="M166.557 110.387C167.41 110.387 168.102 109.695 168.102 108.842C168.102 107.988 167.41 107.296 166.557 107.296C165.704 107.296 165.012 107.988 165.012 108.842C165.012 109.695 165.704 110.387 166.557 110.387Z" fill="#FFC727"/>
<path d="M177.843 104.901C177.738 104.797 177.655 104.673 177.598 104.536C177.541 104.4 177.512 104.253 177.512 104.105C177.512 103.957 177.541 103.811 177.598 103.674C177.655 103.538 177.738 103.414 177.843 103.309C178.056 103.101 178.342 102.984 178.639 102.984C178.937 102.984 179.223 103.101 179.435 103.309C179.552 103.411 179.646 103.536 179.712 103.675C179.779 103.815 179.816 103.967 179.821 104.121C179.826 104.276 179.799 104.429 179.743 104.573C179.686 104.717 179.6 104.848 179.491 104.957C179.382 105.066 179.251 105.152 179.107 105.209C178.964 105.265 178.81 105.292 178.655 105.287C178.501 105.281 178.349 105.245 178.209 105.178C178.07 105.112 177.945 105.018 177.843 104.901Z" fill="#FFC727"/>
<path d="M183.833 93.0333C183.671 93.0333 183.512 92.9852 183.378 92.8952C183.243 92.8052 183.138 92.6773 183.076 92.5277C183.014 92.378 182.998 92.2133 183.029 92.0545C183.061 91.8956 183.139 91.7497 183.254 91.6351C183.368 91.5206 183.514 91.4426 183.673 91.411C183.832 91.3794 183.996 91.3956 184.146 91.4576C184.296 91.5196 184.424 91.6246 184.514 91.7593C184.604 91.8939 184.652 92.0523 184.652 92.2143C184.653 92.3221 184.632 92.4291 184.591 92.5289C184.551 92.6287 184.49 92.7194 184.414 92.7957C184.338 92.8719 184.247 92.9322 184.147 92.973C184.047 93.0138 183.941 93.0343 183.833 93.0333Z" fill="#FFC727"/>
<path d="M179.095 80.7174C179.415 80.7174 179.675 80.458 179.675 80.138C179.675 79.8179 179.415 79.5585 179.095 79.5585C178.775 79.5585 178.516 79.8179 178.516 80.138C178.516 80.458 178.775 80.7174 179.095 80.7174Z" fill="#FFC727"/>
<path d="M142.18 150.981L143.138 145.573C143.164 145.432 143.239 145.304 143.348 145.211C143.458 145.118 143.597 145.066 143.74 145.063C143.804 145.06 143.868 145.072 143.927 145.098C143.985 145.124 144.037 145.163 144.078 145.213C144.118 145.262 144.147 145.321 144.16 145.383C144.174 145.446 144.173 145.511 144.158 145.573L143.284 150.502H145.788C145.852 150.499 145.916 150.511 145.975 150.537C146.033 150.563 146.085 150.603 146.127 150.652C146.168 150.701 146.197 150.76 146.212 150.822C146.227 150.884 146.227 150.95 146.213 151.012C146.184 151.154 146.108 151.282 145.997 151.376C145.886 151.47 145.747 151.524 145.602 151.53H142.597C142.529 151.533 142.461 151.52 142.4 151.492C142.338 151.463 142.284 151.42 142.243 151.366C142.202 151.312 142.175 151.248 142.164 151.181C142.153 151.114 142.158 151.046 142.18 150.981Z" fill="white"/>
<path d="M147.866 150.564C147.628 150.242 147.461 149.873 147.375 149.481C147.29 149.09 147.289 148.685 147.372 148.292C147.545 147.414 148.001 146.616 148.67 146.021C149.301 145.432 150.125 145.092 150.988 145.063C151.375 145.056 151.759 145.138 152.109 145.305C152.459 145.471 152.765 145.716 153.004 146.021C153.236 146.346 153.397 146.716 153.48 147.107C153.562 147.498 153.563 147.901 153.483 148.292C153.328 149.174 152.875 149.976 152.201 150.564C151.57 151.154 150.746 151.494 149.883 151.522C149.495 151.535 149.109 151.455 148.758 151.288C148.407 151.121 148.101 150.873 147.866 150.564ZM148.399 148.292C148.344 148.565 148.345 148.846 148.402 149.119C148.459 149.391 148.571 149.649 148.732 149.876C148.889 150.077 149.091 150.239 149.322 150.348C149.552 150.458 149.805 150.514 150.06 150.51C150.634 150.487 151.181 150.263 151.606 149.876C152.062 149.456 152.373 148.901 152.494 148.292C152.547 148.026 152.545 147.751 152.488 147.485C152.431 147.22 152.32 146.968 152.162 146.747C152.004 146.547 151.802 146.385 151.572 146.275C151.341 146.165 151.088 146.11 150.833 146.114C150.258 146.13 149.709 146.356 149.288 146.747C148.828 147.149 148.515 147.693 148.399 148.292Z" fill="white"/>
<path d="M155.568 151.182C155.518 151.281 155.441 151.364 155.347 151.422C155.254 151.481 155.146 151.513 155.035 151.514C154.976 151.522 154.916 151.522 154.857 151.514C154.799 151.486 154.747 151.445 154.705 151.395C154.664 151.344 154.634 151.286 154.617 151.223C154.6 151.16 154.597 151.094 154.608 151.029C154.619 150.965 154.643 150.904 154.68 150.85L157.677 145.441C157.731 145.342 157.81 145.259 157.906 145.201C158.003 145.142 158.113 145.111 158.226 145.109C158.326 145.103 158.425 145.134 158.504 145.195C158.584 145.256 158.638 145.343 158.659 145.441L159.74 150.85C159.758 150.992 159.727 151.136 159.651 151.257C159.575 151.378 159.459 151.469 159.323 151.514C159.262 151.522 159.199 151.522 159.138 151.514C159.04 151.518 158.944 151.486 158.868 151.425C158.791 151.365 158.739 151.278 158.72 151.182L158.481 149.992H156.233L155.568 151.182ZM158.28 148.98L157.886 146.994L156.797 148.98H158.28Z" fill="white"/>
<path d="M161.009 150.997L161.959 145.588C161.989 145.447 162.065 145.32 162.176 145.227C162.287 145.135 162.426 145.082 162.57 145.078H163.659C164.064 145.063 164.467 145.141 164.836 145.307C165.206 145.472 165.532 145.721 165.789 146.034C166.046 146.347 166.228 146.715 166.32 147.109C166.411 147.504 166.41 147.914 166.317 148.308C166.139 149.195 165.667 149.997 164.977 150.583C164.287 151.169 163.42 151.505 162.516 151.538H161.426C161.359 151.541 161.293 151.528 161.232 151.499C161.171 151.471 161.118 151.429 161.077 151.376C161.036 151.323 161.009 151.26 160.997 151.195C160.985 151.129 160.989 151.061 161.009 150.997ZM163.474 146.067H162.894L162.122 150.495H162.709C163.327 150.473 163.919 150.243 164.389 149.841C164.859 149.44 165.179 148.891 165.297 148.285C165.36 148.014 165.36 147.733 165.297 147.463C165.234 147.193 165.109 146.94 164.933 146.726C164.757 146.511 164.533 146.341 164.28 146.226C164.027 146.112 163.751 146.058 163.474 146.067Z" fill="white"/>
<path d="M168.131 151.522C168.068 151.525 168.005 151.513 167.946 151.487C167.888 151.462 167.837 151.423 167.796 151.375C167.755 151.326 167.726 151.269 167.71 151.208C167.694 151.146 167.693 151.082 167.706 151.02L168.664 145.573C168.695 145.433 168.77 145.308 168.879 145.216C168.988 145.123 169.124 145.07 169.267 145.063C169.331 145.06 169.395 145.072 169.454 145.098C169.512 145.124 169.564 145.163 169.606 145.213C169.647 145.262 169.676 145.32 169.691 145.383C169.706 145.445 169.706 145.51 169.692 145.573L168.734 151.02C168.703 151.158 168.627 151.283 168.518 151.374C168.409 151.465 168.273 151.517 168.131 151.522Z" fill="white"/>
<path d="M171.415 145.588C171.432 145.499 171.467 145.414 171.519 145.34C171.571 145.265 171.638 145.203 171.716 145.156C171.766 145.114 171.824 145.083 171.887 145.065C171.95 145.048 172.016 145.044 172.081 145.055C172.145 145.065 172.207 145.089 172.261 145.125C172.315 145.161 172.361 145.208 172.396 145.264L174.667 149.436L175.34 145.573C175.37 145.433 175.446 145.308 175.555 145.216C175.663 145.123 175.8 145.07 175.942 145.063C176.006 145.06 176.07 145.072 176.129 145.098C176.188 145.124 176.24 145.163 176.281 145.213C176.322 145.262 176.351 145.32 176.366 145.383C176.381 145.445 176.382 145.51 176.367 145.573L175.409 150.981C175.382 151.122 175.308 151.249 175.198 151.34C175.088 151.432 174.95 151.482 174.807 151.484C174.739 151.487 174.672 151.473 174.611 151.443C174.55 151.413 174.498 151.369 174.459 151.314C174.455 151.291 174.455 151.267 174.459 151.244L172.203 147.11L171.523 150.974C171.496 151.114 171.421 151.241 171.311 151.333C171.201 151.424 171.063 151.475 170.92 151.476C170.857 151.479 170.794 151.467 170.736 151.441C170.678 151.416 170.627 151.377 170.587 151.328C170.546 151.28 170.518 151.222 170.503 151.161C170.489 151.099 170.489 151.035 170.503 150.974L171.415 145.588Z" fill="white"/>
<path d="M177.721 148.277C177.91 147.383 178.393 146.579 179.094 145.993C179.794 145.408 180.672 145.074 181.584 145.047C182.293 145.027 182.983 145.276 183.516 145.743C183.562 145.791 183.598 145.848 183.621 145.911C183.645 145.973 183.655 146.04 183.651 146.107C183.648 146.173 183.63 146.238 183.6 146.298C183.571 146.358 183.529 146.411 183.477 146.454C183.392 146.56 183.269 146.63 183.133 146.647C182.997 146.665 182.86 146.628 182.751 146.546C182.376 146.223 181.894 146.05 181.399 146.06C180.763 146.068 180.15 146.301 179.668 146.716C179.184 147.105 178.853 147.652 178.733 148.262C178.679 148.532 178.685 148.81 178.752 149.078C178.819 149.345 178.945 149.594 179.12 149.807C179.308 150.019 179.541 150.186 179.801 150.298C180.061 150.411 180.343 150.464 180.626 150.456C181.079 150.454 181.524 150.334 181.917 150.108L182.141 148.88H180.889C180.826 148.881 180.762 148.868 180.705 148.842C180.647 148.815 180.596 148.776 180.556 148.727C180.515 148.678 180.487 148.62 180.472 148.558C180.458 148.496 180.458 148.432 180.472 148.37C180.499 148.229 180.573 148.102 180.683 148.011C180.793 147.919 180.931 147.869 181.075 147.867H182.852C182.915 147.863 182.979 147.874 183.038 147.899C183.097 147.924 183.149 147.963 183.19 148.012C183.232 148.06 183.261 148.118 183.276 148.18C183.291 148.243 183.291 148.307 183.277 148.37L182.929 150.363C182.917 150.411 182.901 150.457 182.883 150.502C182.885 150.523 182.885 150.543 182.883 150.564C182.837 150.649 182.771 150.721 182.689 150.773C182.051 151.217 181.296 151.462 180.518 151.476C180.108 151.503 179.697 151.435 179.317 151.278C178.938 151.12 178.599 150.877 178.329 150.568C178.058 150.259 177.863 149.891 177.757 149.493C177.652 149.096 177.64 148.68 177.721 148.277Z" fill="white"/>
<path d="M185.362 151.514C185.242 151.511 185.127 151.462 185.041 151.377C184.955 151.293 184.904 151.179 184.898 151.058C184.902 150.937 184.953 150.823 185.039 150.738C185.125 150.653 185.241 150.604 185.362 150.603C185.422 150.603 185.48 150.614 185.535 150.637C185.59 150.66 185.64 150.694 185.682 150.737C185.723 150.779 185.756 150.829 185.778 150.885C185.8 150.94 185.811 150.999 185.81 151.058C185.808 151.177 185.761 151.291 185.677 151.376C185.594 151.461 185.481 151.51 185.362 151.514Z" fill="white"/>
<path d="M187.487 151.514C187.367 151.511 187.252 151.462 187.166 151.377C187.08 151.293 187.029 151.179 187.023 151.058C187.027 150.937 187.078 150.823 187.164 150.738C187.25 150.653 187.366 150.604 187.487 150.603C187.547 150.603 187.605 150.614 187.66 150.637C187.715 150.66 187.765 150.694 187.807 150.737C187.848 150.779 187.881 150.829 187.903 150.885C187.925 150.94 187.936 150.999 187.935 151.058C187.933 151.177 187.886 151.291 187.802 151.376C187.719 151.461 187.606 151.51 187.487 151.514Z" fill="white"/>
<path d="M189.61 151.514C189.49 151.511 189.375 151.462 189.289 151.377C189.203 151.293 189.152 151.179 189.146 151.058C189.15 150.937 189.201 150.823 189.287 150.738C189.373 150.653 189.489 150.604 189.61 150.603C189.67 150.603 189.728 150.614 189.783 150.637C189.838 150.66 189.888 150.694 189.93 150.737C189.971 150.779 190.004 150.829 190.026 150.885C190.048 150.94 190.059 150.999 190.058 151.058C190.056 151.177 190.009 151.291 189.925 151.376C189.842 151.461 189.729 151.51 189.61 151.514Z" fill="white"/>
<path d="M328.37 280.444L287.814 280.63L247.25 280.699L166.131 280.831L85.0118 280.699L44.4561 280.63L3.89258 280.444L44.4561 280.259L85.0118 280.189L166.131 280.058L247.25 280.189L287.814 280.259L328.37 280.444Z" fill="#263238"/>
<path d="M311.696 327.282C311.001 325.018 273.706 272.757 271.025 271.652C270.005 271.235 268.035 269.651 258.624 275.948L238.759 258.556L227.518 295.333L276.619 316.295C276.619 316.295 299.852 329.917 302.888 330.797C305.925 331.678 312.384 329.538 311.696 327.282Z" fill="#EB9481"/>
<path d="M311.696 327.282C311.001 325.018 273.706 272.757 271.025 271.652C270.005 271.235 268.035 269.651 258.624 275.948L238.759 258.556L227.518 295.333L276.619 316.295C276.619 316.295 299.852 329.917 302.888 330.797C305.925 331.678 312.384 329.538 311.696 327.282Z" fill="#EB9481"/>
<path d="M256.614 307.765L276.618 316.264C276.618 316.264 299.851 329.878 302.888 330.766C305.924 331.655 312.352 329.507 311.665 327.251C310.977 324.995 273.674 272.726 270.993 271.621C269.973 271.196 268.003 269.62 258.592 275.917L256.529 274.117L256.614 307.765Z" fill="#FFC727"/>
<path d="M261.011 307.904C260.494 307.176 259.901 306.505 259.242 305.903C258.594 305.289 257.878 304.75 257.109 304.296C257.62 305.029 258.213 305.701 258.879 306.297C259.527 306.911 260.242 307.45 261.011 307.904Z" fill="#263238"/>
<path d="M261.05 304.419C260.542 303.684 259.948 303.013 259.281 302.418C258.633 301.802 257.918 301.26 257.148 300.803C258.196 302.256 259.522 303.485 261.05 304.419Z" fill="#263238"/>
<path d="M261.097 300.927C260.582 300.197 259.989 299.526 259.328 298.926C258.68 298.312 257.964 297.773 257.195 297.319C257.706 298.052 258.299 298.724 258.965 299.32C259.613 299.934 260.328 300.474 261.097 300.927Z" fill="#263238"/>
<path d="M261.164 297.443C260.128 295.994 258.815 294.765 257.301 293.827C257.813 294.558 258.407 295.229 259.07 295.828C259.707 296.44 260.41 296.982 261.164 297.443Z" fill="#263238"/>
<path d="M261.165 293.95C260.651 293.22 260.057 292.549 259.396 291.949C258.75 291.333 258.034 290.793 257.264 290.342C257.774 291.075 258.368 291.747 259.033 292.343C259.681 292.957 260.396 293.496 261.165 293.95Z" fill="#263238"/>
<path d="M261.218 290.458C260.706 289.726 260.112 289.055 259.449 288.457C258.798 287.834 258.077 287.29 257.301 286.834C257.813 287.566 258.407 288.237 259.07 288.835C259.724 289.454 260.444 289.998 261.218 290.458Z" fill="#263238"/>
<path d="M261.267 286.973C260.754 286.242 260.161 285.571 259.498 284.972C258.852 284.356 258.136 283.816 257.365 283.365C257.88 284.095 258.473 284.766 259.135 285.366C259.783 285.981 260.498 286.52 261.267 286.973Z" fill="#263238"/>
<path d="M261.306 283.481C260.261 282.028 258.934 280.801 257.404 279.873C258.449 281.325 259.776 282.553 261.306 283.481Z" fill="#263238"/>
<path d="M261.351 279.996C260.838 279.265 260.245 278.594 259.582 277.995C258.936 277.376 258.22 276.835 257.449 276.38C257.96 277.113 258.554 277.785 259.219 278.382C259.866 278.998 260.582 279.54 261.351 279.996Z" fill="#263238"/>
<path d="M162.011 255.233C168.03 271.799 251.684 310.013 251.684 310.013L265.846 265.973L227.438 249.608L308.805 237.671L267.283 222.18C267.283 222.18 259.41 225.51 253.592 223.826C251.019 223.053 196.201 215.496 185.538 218.147C162.004 224.042 156.479 240.035 162.011 255.233Z" fill="#37474F"/>
<path d="M208.301 239.595C209.924 240.269 211.503 241.043 213.03 241.913L217.936 244.355H217.982C217.619 244.061 217.264 243.76 216.893 243.474C215.634 242.477 214.475 241.38 213.123 240.499C213.105 240.488 213.093 240.47 213.089 240.45C213.084 240.43 213.088 240.408 213.099 240.391C213.111 240.374 213.128 240.361 213.149 240.357C213.169 240.353 213.19 240.357 213.208 240.368C214.567 241.233 216.028 241.967 217.318 242.948C217.921 243.412 218.516 243.891 219.095 244.386C219.412 244.656 219.729 244.926 220.038 245.212C220.187 245.343 220.329 245.483 220.463 245.63C221.235 246.016 221.938 246.402 222.672 246.827C224.295 247.739 225.84 248.782 227.463 249.678C227.555 249.725 227.463 249.848 227.385 249.802C225.786 249.029 224.109 248.334 222.502 247.546C220.895 246.758 219.257 245.869 217.666 244.988C216.074 244.107 214.575 243.242 213.03 242.384C211.393 241.583 209.809 240.68 208.286 239.68C208.28 239.674 208.276 239.667 208.274 239.659C208.271 239.651 208.271 239.642 208.272 239.634C208.274 239.626 208.277 239.618 208.282 239.611C208.287 239.604 208.294 239.599 208.301 239.595Z" fill="#263238"/>
<path d="M247.074 299.436C247.437 298.184 247.8 296.94 248.179 295.689C248.952 293.201 249.662 290.705 250.427 288.217C251.973 283.272 253.456 278.328 255.063 273.414C255.983 270.64 256.894 267.851 257.937 265.115C257.951 265.088 257.975 265.066 258.003 265.054C258.032 265.042 258.064 265.04 258.094 265.05C258.123 265.059 258.149 265.078 258.165 265.104C258.182 265.131 258.189 265.162 258.185 265.193C256.925 270.23 255.357 275.237 253.796 280.166C252.235 285.096 250.644 290.025 249.029 294.939C248.573 296.315 248.125 297.69 247.654 299.065C247.182 300.44 246.626 301.839 246.108 303.237C246.112 303.246 246.113 303.254 246.112 303.263C246.111 303.272 246.108 303.28 246.103 303.288C246.098 303.295 246.091 303.301 246.083 303.305C246.076 303.309 246.067 303.312 246.058 303.312C246.049 303.312 246.04 303.309 246.033 303.305C246.025 303.301 246.018 303.295 246.013 303.288C246.008 303.28 246.005 303.272 246.004 303.263C246.003 303.254 246.004 303.246 246.008 303.237C246.433 301.963 246.719 300.688 247.074 299.436Z" fill="#263238"/>
<path d="M291.5 183.301C283.773 198.421 271.249 215.751 267.2 218.069C262.078 220.974 232.972 221.322 231.574 221.16C228.12 220.642 227.51 194.689 231.226 195.083C236.882 195.671 257.009 199.611 258.508 198.692C260.007 197.772 271.117 189.281 282.753 179.522C290.789 172.754 296.305 173.944 291.5 183.301Z" fill="#EB9481"/>
<path d="M234.609 220.511C234.161 220.611 227.733 222.056 223.954 222.164C221.134 222.265 213.006 222.327 212.589 219.228C212.303 217.119 217.078 216.524 220.447 216.022C222.224 215.759 224.627 214.577 224.41 213.426C224.039 211.417 219.45 212.182 216.336 213.07C210.31 214.801 201.919 218.525 199.385 215.048C198.426 213.735 200.296 212.251 202.815 210.977C198.952 212.228 194.934 213.047 193.814 211.626C193.173 210.814 193.343 209.972 194.03 209.138C193.558 209.227 193.071 209.175 192.629 208.986C192.187 208.798 191.812 208.482 191.55 208.079C190.777 206.665 191.705 205.12 193.327 203.698C193.129 203.626 192.95 203.507 192.808 203.351C192.665 203.194 192.562 203.006 192.508 202.802C191.094 198.715 205.164 191.545 209.383 191.614C221.814 191.792 234.037 195.431 234.037 195.431C237.707 200.299 234.625 220.503 234.609 220.511Z" fill="#EB9481"/>
<path d="M220.101 205.36C217.201 205.091 214.277 205.444 211.525 206.395C208.055 207.6 205.506 209.4 202.423 211.077C202.346 211.123 202.423 211.255 202.492 211.208C203.953 210.436 209.925 207.523 211.432 206.905C214.171 205.755 217.135 205.243 220.101 205.406C220.101 205.406 220.132 205.36 220.101 205.36Z" fill="#263238"/>
<path d="M219.174 199.835C215.857 199.781 212.543 200.066 209.284 200.685C205.745 201.458 202.639 203.467 199.603 205.359C197.769 206.493 195.966 207.67 194.195 208.89C194.117 208.945 194.195 209.068 194.256 209.022C197.347 207.054 200.502 205.179 203.721 203.397C206.695 201.741 209.967 200.688 213.348 200.299C215.288 200.075 217.211 199.997 219.174 199.92V199.835Z" fill="#263238"/>
<path d="M216.985 194.651C213.833 194.504 211.09 194.373 208.03 195.308C203.99 196.544 199.694 199.264 198.187 200.229C196.518 201.303 194.888 202.424 193.273 203.575C193.211 203.621 193.273 203.737 193.358 203.691C197.011 201.203 200.82 198.953 204.762 196.953C206.626 195.974 208.63 195.291 210.704 194.929C212.781 194.663 214.878 194.577 216.97 194.674C216.97 194.674 217.001 194.651 216.985 194.651Z" fill="#263238"/>
<path d="M280.328 205.468L271.211 186.074C275.495 182.624 279.982 179.432 284.647 176.517C292.543 171.564 296.414 174.276 291.701 185.928C288.855 192.947 285.026 199.526 280.328 205.468Z" fill="#FFC727"/>
<path d="M276.718 182.312C276.718 182.722 276.555 183.115 276.265 183.404C275.975 183.694 275.582 183.857 275.172 183.857C274.876 183.86 274.585 183.774 274.338 183.61C275.01 183.1 275.783 182.528 276.656 181.902C276.696 182.035 276.716 182.173 276.718 182.312ZM290.084 180.766C289.779 180.766 289.48 180.857 289.226 181.027C288.972 181.197 288.774 181.438 288.657 181.72C288.54 182.003 288.509 182.313 288.569 182.613C288.628 182.913 288.775 183.188 288.992 183.404C289.208 183.621 289.483 183.768 289.783 183.827C290.083 183.887 290.393 183.856 290.676 183.739C290.958 183.622 291.199 183.424 291.369 183.17C291.539 182.916 291.63 182.617 291.63 182.312C291.627 181.903 291.464 181.512 291.174 181.224C290.885 180.936 290.493 180.774 290.084 180.774V180.766ZM282.628 192.062C282.323 192.062 282.024 192.153 281.77 192.323C281.516 192.493 281.318 192.734 281.201 193.016C281.084 193.299 281.053 193.609 281.113 193.909C281.172 194.209 281.32 194.484 281.536 194.7C281.752 194.917 282.027 195.064 282.327 195.123C282.627 195.183 282.937 195.152 283.22 195.035C283.502 194.918 283.743 194.72 283.913 194.466C284.083 194.212 284.174 193.913 284.174 193.608C284.172 193.199 284.008 192.808 283.718 192.52C283.429 192.232 283.037 192.07 282.628 192.07V192.062Z" fill="white"/>
<path d="M274.022 184.738C274.856 186.098 275.497 187.589 276.224 189.011C276.95 190.432 277.607 191.738 278.256 193.113C279.592 195.987 280.875 198.869 282.119 201.798C282.119 201.844 282.057 201.89 282.026 201.836C280.604 199.047 279.214 196.25 277.862 193.422C277.189 192.024 276.548 190.602 275.914 189.181C275.281 187.759 274.493 186.283 273.952 184.777C273.913 184.73 273.991 184.684 274.022 184.738Z" fill="#263238"/>
<path opacity="0.1" d="M291.677 185.928C288.838 192.946 285.017 199.525 280.327 205.468L272.686 189.242L291.832 174.315C294.242 175.118 294.52 178.897 291.677 185.928Z" fill="black"/>
<path d="M325.544 245.583C323.589 246.356 266.221 232.811 266.221 232.811L271.907 212.846C271.907 212.846 268.291 206.665 269.512 200.546C271.15 192.333 285.498 178.232 286.634 177.367C291.216 173.983 295.38 173.326 299.405 175.211C316.195 183.1 325.544 245.583 325.544 245.583Z" fill="#FFC727"/>
<path d="M291.624 182.312C291.624 182.617 291.533 182.916 291.363 183.17C291.194 183.424 290.952 183.622 290.67 183.739C290.387 183.856 290.077 183.887 289.777 183.827C289.477 183.768 289.202 183.621 288.986 183.404C288.77 183.188 288.623 182.913 288.563 182.613C288.503 182.313 288.534 182.003 288.651 181.72C288.768 181.438 288.966 181.197 289.22 181.027C289.474 180.857 289.773 180.766 290.078 180.766C290.488 180.766 290.881 180.929 291.171 181.219C291.461 181.509 291.624 181.902 291.624 182.312ZM306.512 182.165C306.227 181.74 305.941 181.323 305.647 180.929C305.439 180.831 305.212 180.781 304.983 180.782C304.677 180.782 304.378 180.873 304.124 181.042C303.87 181.212 303.672 181.453 303.555 181.736C303.438 182.018 303.407 182.329 303.467 182.629C303.527 182.928 303.674 183.204 303.89 183.42C304.106 183.636 304.381 183.783 304.681 183.843C304.981 183.902 305.292 183.872 305.574 183.755C305.856 183.638 306.098 183.44 306.267 183.186C306.437 182.932 306.528 182.633 306.528 182.327C306.528 182.273 306.523 182.218 306.512 182.165ZM275.182 203.436C274.876 203.436 274.578 203.526 274.323 203.696C274.069 203.866 273.871 204.107 273.754 204.39C273.637 204.672 273.607 204.983 273.666 205.282C273.726 205.582 273.873 205.858 274.089 206.074C274.305 206.29 274.581 206.437 274.881 206.497C275.18 206.556 275.491 206.526 275.773 206.409C276.056 206.292 276.297 206.094 276.467 205.839C276.637 205.585 276.727 205.287 276.727 204.981C276.727 204.571 276.564 204.178 276.275 203.888C275.985 203.598 275.592 203.436 275.182 203.436ZM290.086 203.436C289.781 203.436 289.482 203.526 289.228 203.696C288.974 203.866 288.775 204.107 288.659 204.39C288.542 204.672 288.511 204.983 288.571 205.282C288.63 205.582 288.777 205.858 288.994 206.074C289.21 206.29 289.485 206.437 289.785 206.497C290.084 206.556 290.395 206.526 290.678 206.409C290.96 206.292 291.201 206.094 291.371 205.839C291.541 205.585 291.631 205.287 291.631 204.981C291.631 204.571 291.469 204.178 291.179 203.888C290.889 203.598 290.496 203.436 290.086 203.436ZM304.983 203.436C304.677 203.436 304.378 203.526 304.124 203.696C303.87 203.866 303.672 204.107 303.555 204.39C303.438 204.672 303.407 204.983 303.467 205.282C303.527 205.582 303.674 205.858 303.89 206.074C304.106 206.29 304.381 206.437 304.681 206.497C304.981 206.556 305.292 206.526 305.574 206.409C305.856 206.292 306.098 206.094 306.267 205.839C306.437 205.585 306.528 205.287 306.528 204.981C306.528 204.778 306.488 204.577 306.41 204.39C306.333 204.202 306.219 204.032 306.075 203.888C305.932 203.745 305.761 203.631 305.574 203.553C305.387 203.476 305.186 203.436 304.983 203.436ZM282.63 192.07C282.325 192.07 282.026 192.161 281.772 192.331C281.518 192.5 281.32 192.742 281.203 193.024C281.086 193.306 281.055 193.617 281.115 193.917C281.174 194.217 281.321 194.492 281.538 194.708C281.754 194.924 282.029 195.071 282.329 195.131C282.629 195.191 282.939 195.16 283.222 195.043C283.504 194.926 283.745 194.728 283.915 194.474C284.085 194.22 284.175 193.921 284.175 193.615C284.175 193.413 284.136 193.212 284.058 193.024C283.98 192.837 283.866 192.666 283.723 192.523C283.579 192.379 283.409 192.265 283.222 192.188C283.034 192.11 282.833 192.07 282.63 192.07ZM297.534 192.07C297.229 192.07 296.93 192.161 296.676 192.331C296.422 192.5 296.224 192.742 296.107 193.024C295.99 193.306 295.959 193.617 296.019 193.917C296.078 194.217 296.226 194.492 296.442 194.708C296.658 194.924 296.933 195.071 297.233 195.131C297.533 195.191 297.843 195.16 298.126 195.043C298.408 194.926 298.649 194.728 298.819 194.474C298.989 194.22 299.08 193.921 299.08 193.615C299.08 193.413 299.04 193.212 298.962 193.024C298.884 192.837 298.771 192.666 298.627 192.523C298.484 192.379 298.313 192.265 298.126 192.188C297.938 192.11 297.737 192.07 297.534 192.07ZM311.759 192.225C311.452 192.381 311.207 192.636 311.062 192.948C310.917 193.26 310.88 193.612 310.957 193.947C311.034 194.282 311.221 194.582 311.488 194.799C311.755 195.016 312.087 195.138 312.431 195.145C312.596 195.143 312.76 195.117 312.918 195.068C312.539 194.118 312.16 193.152 311.759 192.225ZM275.182 226.097C274.876 226.097 274.578 226.188 274.323 226.358C274.069 226.527 273.871 226.769 273.754 227.051C273.637 227.333 273.607 227.644 273.666 227.944C273.726 228.244 273.873 228.519 274.089 228.735C274.305 228.951 274.581 229.098 274.881 229.158C275.18 229.218 275.491 229.187 275.773 229.07C276.056 228.953 276.297 228.755 276.467 228.501C276.637 228.247 276.727 227.948 276.727 227.642C276.727 227.44 276.687 227.239 276.61 227.051C276.532 226.864 276.418 226.693 276.275 226.55C276.131 226.406 275.961 226.292 275.773 226.215C275.586 226.137 275.385 226.097 275.182 226.097ZM290.086 226.097C289.781 226.097 289.482 226.188 289.228 226.358C288.974 226.527 288.775 226.769 288.659 227.051C288.542 227.333 288.511 227.644 288.571 227.944C288.63 228.244 288.777 228.519 288.994 228.735C289.21 228.951 289.485 229.098 289.785 229.158C290.084 229.218 290.395 229.187 290.678 229.07C290.96 228.953 291.201 228.755 291.371 228.501C291.541 228.247 291.631 227.948 291.631 227.642C291.631 227.44 291.591 227.239 291.514 227.051C291.436 226.864 291.322 226.693 291.179 226.55C291.035 226.406 290.865 226.292 290.678 226.215C290.49 226.137 290.289 226.097 290.086 226.097ZM304.983 226.097C304.677 226.097 304.378 226.188 304.124 226.358C303.87 226.527 303.672 226.769 303.555 227.051C303.438 227.333 303.407 227.644 303.467 227.944C303.527 228.244 303.674 228.519 303.89 228.735C304.106 228.951 304.381 229.098 304.681 229.158C304.981 229.218 305.292 229.187 305.574 229.07C305.856 228.953 306.098 228.755 306.267 228.501C306.437 228.247 306.528 227.948 306.528 227.642C306.528 227.44 306.488 227.239 306.41 227.051C306.333 226.864 306.219 226.693 306.075 226.55C305.932 226.406 305.761 226.292 305.574 226.215C305.387 226.137 305.186 226.097 304.983 226.097ZM319.879 226.097C319.573 226.097 319.275 226.188 319.021 226.358C318.766 226.527 318.568 226.769 318.451 227.051C318.335 227.333 318.304 227.644 318.364 227.944C318.423 228.244 318.57 228.519 318.786 228.735C319.003 228.951 319.278 229.098 319.578 229.158C319.877 229.218 320.188 229.187 320.47 229.07C320.753 228.953 320.994 228.755 321.164 228.501C321.334 228.247 321.424 227.948 321.424 227.642C321.424 227.234 321.263 226.842 320.975 226.552C320.686 226.263 320.295 226.099 319.887 226.097H319.879ZM282.63 214.732C282.325 214.732 282.026 214.822 281.772 214.992C281.518 215.162 281.32 215.403 281.203 215.686C281.086 215.968 281.055 216.279 281.115 216.578C281.174 216.878 281.321 217.153 281.538 217.37C281.754 217.586 282.029 217.733 282.329 217.793C282.629 217.852 282.939 217.822 283.222 217.705C283.504 217.588 283.745 217.39 283.915 217.135C284.085 216.881 284.175 216.583 284.175 216.277C284.175 216.074 284.136 215.873 284.058 215.686C283.98 215.498 283.866 215.328 283.723 215.184C283.579 215.041 283.409 214.927 283.222 214.849C283.034 214.772 282.833 214.732 282.63 214.732ZM297.534 214.732C297.229 214.732 296.93 214.822 296.676 214.992C296.422 215.162 296.224 215.403 296.107 215.686C295.99 215.968 295.959 216.279 296.019 216.578C296.078 216.878 296.226 217.153 296.442 217.37C296.658 217.586 296.933 217.733 297.233 217.793C297.533 217.852 297.843 217.822 298.126 217.705C298.408 217.588 298.649 217.39 298.819 217.135C298.989 216.881 299.08 216.583 299.08 216.277C299.08 216.074 299.04 215.873 298.962 215.686C298.884 215.498 298.771 215.328 298.627 215.184C298.484 215.041 298.313 214.927 298.126 214.849C297.938 214.772 297.737 214.732 297.534 214.732ZM312.431 214.732C312.125 214.732 311.826 214.822 311.572 214.992C311.318 215.162 311.12 215.403 311.003 215.686C310.886 215.968 310.856 216.279 310.915 216.578C310.975 216.878 311.122 217.153 311.338 217.37C311.554 217.586 311.83 217.733 312.129 217.793C312.429 217.852 312.74 217.822 313.022 217.705C313.305 217.588 313.546 217.39 313.716 217.135C313.886 216.881 313.976 216.583 313.976 216.277C313.976 216.074 313.936 215.873 313.859 215.686C313.781 215.498 313.667 215.328 313.524 215.184C313.38 215.041 313.21 214.927 313.022 214.849C312.835 214.772 312.634 214.732 312.431 214.732ZM297.534 237.385C297.264 237.387 296.999 237.46 296.765 237.596C296.531 237.732 296.338 237.927 296.203 238.162C296.069 238.397 295.998 238.663 295.998 238.933C295.999 239.203 296.07 239.469 296.205 239.703L298.408 240.198C298.673 240.009 298.872 239.741 298.976 239.432C299.081 239.124 299.085 238.79 298.988 238.479C298.891 238.168 298.698 237.895 298.437 237.7C298.176 237.505 297.86 237.398 297.534 237.393V237.385ZM312.431 237.385C312.125 237.385 311.826 237.476 311.572 237.646C311.318 237.816 311.12 238.057 311.003 238.339C310.886 238.622 310.856 238.932 310.915 239.232C310.975 239.532 311.122 239.807 311.338 240.023C311.554 240.239 311.83 240.387 312.129 240.446C312.429 240.506 312.74 240.475 313.022 240.358C313.305 240.241 313.546 240.043 313.716 239.789C313.886 239.535 313.976 239.236 313.976 238.931C313.976 238.521 313.813 238.128 313.524 237.838C313.234 237.548 312.841 237.385 312.431 237.385Z" fill="white"/>
<path d="M276.509 211.603C278.598 211.568 280.67 211.987 282.582 212.831C284.591 213.604 289.111 216.207 290.247 216.841C290.247 216.841 290.247 216.926 290.247 216.918C288.765 216.442 287.327 215.837 285.951 215.11C284.001 214.155 281.999 213.309 279.955 212.576C278.844 212.201 277.697 211.942 276.532 211.803C276.447 211.796 276.432 211.603 276.509 211.603Z" fill="#263238"/>
<path d="M273.127 213.658C275.227 213.19 277.419 213.346 279.432 214.106C279.432 214.106 279.432 214.191 279.432 214.183C278.381 214.06 277.338 213.928 276.287 213.866C275.236 213.805 274.185 213.797 273.135 213.758C273.096 213.758 273.088 213.665 273.127 213.658Z" fill="#263238"/>
<path d="M275.32 219.545H216.244V222.188H275.32V219.545Z" fill="#C7C7C7"/>
<path d="M216.244 219.545V222.188H251.677L249.653 219.545H216.244Z" fill="#A6A6A6"/>
<path d="M242.916 222.188H185.347L180.549 183.092H238.126L242.916 222.188Z" fill="#A6A6A6"/>
<path d="M239.903 222.188H182.325L177.535 183.092H235.112L239.903 222.188Z" fill="#C7C7C7"/>
<path d="M212.227 202.617C212.237 203.075 212.156 203.531 211.987 203.957C211.818 204.383 211.566 204.771 211.245 205.098C210.923 205.425 210.54 205.684 210.117 205.861C209.694 206.037 209.239 206.127 208.781 206.124C207.846 206.121 206.95 205.752 206.283 205.096C205.616 204.441 205.232 203.551 205.211 202.617C205.203 202.159 205.286 201.704 205.456 201.279C205.625 200.854 205.878 200.467 206.199 200.14C206.519 199.813 206.902 199.554 207.324 199.377C207.746 199.2 208.2 199.109 208.657 199.109C209.592 199.115 210.487 199.484 211.153 200.139C211.82 200.794 212.205 201.683 212.227 202.617Z" fill="white"/>
<path d="M306.798 183.092C313.496 194.249 327.064 232.17 319.16 237.494C311.256 242.817 275.32 227.604 265.662 220.766C262.788 218.734 278.063 201.272 281.818 201.45C284.948 201.604 298.708 211.085 299.311 210.266C299.913 209.447 298.43 201.589 296.993 187.334C295.417 170.892 302.942 176.671 306.798 183.092Z" fill="#EB9481"/>
<path d="M267.386 192.464C259.961 190.092 257.689 190.618 252.482 185.287C249.067 181.786 245.366 182.466 246.818 187.342C249.19 195.308 258.13 200.384 261.738 201.249L267.386 192.464Z" fill="#EB9481"/>
<path d="M286.33 203.281C286.33 203.281 278.603 197.054 270.939 193.739C265.639 191.421 253.555 187.751 239.624 197.896C236.317 200.306 233.319 206.078 240.142 204.077C244.986 202.678 247.636 200.322 250.603 200.021C250.603 200.021 247.659 207.816 250.201 211.038C252.423 213.849 254.842 216.499 257.441 218.966C258.001 218.592 258.538 218.184 259.048 217.745C259.048 217.745 261.706 220.526 267.547 220.967L286.33 203.281Z" fill="#EB9481"/>
<path d="M265.533 192.364C262.651 193.283 256.57 195.338 252.189 198.753C247.314 202.539 238.954 211.154 241.79 214.716C243.86 217.335 247.345 214.33 247.345 214.33C247.345 214.33 244.641 218.618 247.036 220.565C249.215 222.35 251.772 219.862 251.772 219.862C251.772 219.862 250.575 222.744 253.008 224.05C255.929 225.595 257.953 219.321 262.28 218.363C263.269 218.147 265.533 192.364 265.533 192.364Z" fill="#EB9481"/>
<path d="M257.048 203.235C254.475 204.541 249.407 209.022 247.328 214.199C247.274 214.322 247.329 214.415 247.406 214.322C250.17 210.26 253.421 206.552 257.087 203.281C257.087 203.281 257.079 203.219 257.048 203.235Z" fill="#263238"/>
<path d="M260.726 208.257C258.632 209.617 253.61 214.438 251.678 219.792C251.632 219.908 251.678 220.001 251.763 219.901C254.319 215.712 257.339 211.824 260.765 208.311C260.765 208.311 260.757 208.241 260.726 208.257Z" fill="#263238"/>
<path d="M250.611 200.005C248.007 200.307 246.184 201.241 243.843 202.323C242.689 202.88 241.505 203.373 240.296 203.799C239.192 204.17 237.561 204.734 236.634 203.698C236.428 203.389 236.309 203.03 236.29 202.659C236.271 202.287 236.352 201.918 236.526 201.589C236.999 200.635 237.623 199.764 238.373 199.008C238.373 199.008 238.373 198.923 238.326 198.954C237.607 199.637 236.962 200.393 236.402 201.21C236.03 201.771 235.836 202.431 235.846 203.103C235.97 204.533 237.554 204.996 238.759 204.819C239.483 204.684 240.192 204.48 240.876 204.208C241.533 203.969 242.182 203.698 242.823 203.436C244.144 202.841 245.427 202.176 246.733 201.566C248.002 201.001 249.305 200.516 250.634 200.113C250.688 200.075 250.665 199.997 250.611 200.005Z" fill="#263238"/>
<path d="M243.915 207.832C245.992 205.1 248.245 202.506 250.66 200.067C250.66 200.067 250.66 199.99 250.614 200.013C248.365 201.512 244.433 205.839 243.42 207.276C242.408 208.713 241.28 210.521 240.979 212.236C240.531 214.832 242.169 215.62 242.779 215.852C243.514 216.111 244.316 216.111 245.051 215.852C245.921 215.502 246.71 214.976 247.369 214.307C247.407 214.307 247.369 214.222 247.33 214.253C246.256 215.118 244.587 215.867 243.212 215.435C242.907 215.351 242.621 215.208 242.372 215.013C242.122 214.818 241.914 214.575 241.759 214.299C241.481 213.608 241.462 212.84 241.705 212.136C242.192 210.586 242.939 209.131 243.915 207.832Z" fill="#263238"/>
<path d="M299.342 210.266C300.658 210.823 301.915 211.509 303.097 212.313C304.291 213.1 305.399 214.009 306.404 215.025C305.137 214.345 303.954 213.58 302.772 212.792C301.585 212.012 300.44 211.168 299.342 210.266Z" fill="#263238"/>
<path d="M317.901 203.389L296.646 200.585C296.059 195.117 295.801 189.619 295.873 184.12C295.981 174.794 300.347 173.002 307.602 183.27C311.97 189.455 315.438 196.229 317.901 203.389Z" fill="#FFC727"/>
<path d="M306.52 182.312C306.52 182.617 306.43 182.916 306.26 183.17C306.09 183.424 305.849 183.622 305.566 183.739C305.284 183.856 304.973 183.887 304.673 183.827C304.374 183.768 304.098 183.621 303.882 183.404C303.666 183.188 303.519 182.913 303.459 182.613C303.4 182.313 303.43 182.003 303.547 181.72C303.664 181.438 303.862 181.197 304.116 181.027C304.371 180.857 304.669 180.766 304.975 180.766C305.385 180.766 305.778 180.929 306.068 181.219C306.357 181.509 306.52 181.902 306.52 182.312ZM297.534 192.07C297.207 192.071 296.888 192.177 296.624 192.371C296.36 192.566 296.165 192.839 296.066 193.152C296.066 193.507 296.105 193.855 296.12 194.195C296.23 194.453 296.407 194.676 296.633 194.841C296.86 195.006 297.126 195.106 297.405 195.131C297.684 195.156 297.965 195.105 298.217 194.983C298.469 194.861 298.683 194.673 298.836 194.439C298.99 194.204 299.076 193.933 299.087 193.653C299.098 193.373 299.033 193.096 298.899 192.85C298.764 192.604 298.566 192.4 298.324 192.259C298.082 192.117 297.807 192.044 297.527 192.047L297.534 192.07ZM313.945 193.878C313.894 194.167 313.762 194.435 313.564 194.651C313.366 194.867 313.111 195.022 312.828 195.099C312.545 195.176 312.246 195.17 311.966 195.084C311.686 194.997 311.437 194.832 311.247 194.609C311.057 194.386 310.935 194.113 310.894 193.823C310.853 193.533 310.895 193.237 311.016 192.97C311.137 192.703 311.331 192.476 311.576 192.315C311.821 192.155 312.107 192.067 312.4 192.062C312.627 192.063 312.851 192.113 313.057 192.209L313.945 193.878Z" fill="white"/>
<path d="M297.048 197.44C298.648 197.44 300.255 197.734 301.846 197.896C303.438 198.058 304.883 198.205 306.39 198.413C309.526 198.836 312.653 199.325 315.769 199.881C315.782 199.881 315.793 199.886 315.802 199.895C315.811 199.904 315.816 199.916 315.816 199.928C315.816 199.94 315.811 199.952 315.802 199.961C315.793 199.969 315.782 199.974 315.769 199.974C312.679 199.665 309.57 199.317 306.444 198.931C304.898 198.738 303.353 198.506 301.808 198.267C300.262 198.027 298.609 197.896 297.048 197.533C297.036 197.533 297.024 197.528 297.016 197.519C297.007 197.51 297.002 197.499 297.002 197.486C297.002 197.474 297.007 197.462 297.016 197.454C297.024 197.445 297.036 197.44 297.048 197.44Z" fill="#263238"/>
<path d="M296.151 198.39C296.066 197.618 296.004 196.845 295.957 196.072C295.957 195.918 295.957 195.756 295.957 195.593C295.702 194.651 295.447 193.7 295.285 192.742H295.339C295.571 193.453 295.756 194.18 295.919 194.914C295.838 193.72 295.822 192.523 295.872 191.328H295.926C296.127 192.874 296.22 194.419 296.359 196.003C296.429 196.776 296.684 200.484 296.73 200.492C296.776 200.5 298.499 200.786 298.607 200.84C298.716 200.894 298.662 200.986 298.607 200.986L296.413 200.701C296.413 200.701 296.22 199.055 296.151 198.39Z" fill="#263238"/>
<path d="M87.6931 302.658C89.7097 303.887 152.309 318.165 155.044 317.199C156.079 316.844 158.606 316.712 161.449 305.756C162.067 303.384 202.013 284.292 202.013 284.292L160.576 265.749L121.172 287.584C121.172 287.584 94.7628 292.838 91.8808 294.213C88.9989 295.588 85.6688 301.43 87.6931 302.658Z" fill="#EB9481"/>
<path d="M87.6923 302.658C89.7166 303.894 152.3 318.172 155.043 317.207C156.079 316.843 158.605 316.712 161.448 305.748C161.618 305.099 165.01 303.284 169.862 300.973L128.789 283.35L121.202 287.56C121.202 287.56 94.7929 292.822 91.9109 294.197C89.029 295.573 85.6757 301.429 87.6923 302.658Z" fill="#FFC727"/>
<path d="M166.904 301.004C166.037 301.213 165.196 301.522 164.4 301.924C163.59 302.305 162.825 302.777 162.121 303.33C162.991 303.119 163.834 302.808 164.632 302.403C165.438 302.022 166.2 301.553 166.904 301.004Z" fill="#263238"/>
<path d="M163.636 299.699C161.904 300.14 160.28 300.929 158.861 302.017C159.728 301.804 160.568 301.493 161.365 301.089C162.172 300.712 162.933 300.246 163.636 299.699Z" fill="#263238"/>
<path d="M160.4 298.424C158.668 298.866 157.043 299.654 155.625 300.742C156.492 300.533 157.332 300.224 158.128 299.822C158.935 299.442 159.697 298.973 160.4 298.424Z" fill="#263238"/>
<path d="M157.16 297.087C156.293 297.3 155.453 297.611 154.656 298.015C153.848 298.391 153.085 298.861 152.385 299.413C154.117 298.971 155.741 298.183 157.16 297.095V297.087Z" fill="#263238"/>
<path d="M153.923 295.781C153.057 295.998 152.218 296.309 151.42 296.709C150.613 297.088 149.851 297.557 149.148 298.107C150.88 297.665 152.505 296.877 153.923 295.789V295.781Z" fill="#263238"/>
<path d="M150.679 294.476C149.811 294.692 148.969 295.003 148.168 295.403C147.36 295.784 146.598 296.256 145.896 296.809C146.763 296.594 147.603 296.283 148.4 295.882C149.21 295.501 149.975 295.029 150.679 294.476Z" fill="#263238"/>
<path d="M147.456 293.178C145.721 293.616 144.093 294.405 142.674 295.496C143.543 295.283 144.386 294.972 145.185 294.568C145.991 294.19 146.753 293.723 147.456 293.178Z" fill="#263238"/>
<path d="M144.22 291.872C143.352 292.085 142.51 292.394 141.709 292.791C140.901 293.172 140.139 293.644 139.438 294.197C140.307 293.985 141.149 293.674 141.949 293.27C142.755 292.889 143.517 292.42 144.22 291.872Z" fill="#263238"/>
<path d="M140.984 290.566C139.25 291.01 137.624 291.798 136.201 292.884C137.07 292.674 137.913 292.365 138.712 291.964C139.518 291.583 140.28 291.114 140.984 290.566Z" fill="#263238"/>
<path d="M137.745 289.26C136.878 289.472 136.038 289.783 135.242 290.187C134.42 290.566 133.642 291.035 132.924 291.586C134.659 291.147 136.287 290.358 137.706 289.268L137.745 289.26Z" fill="#263238"/>
<path d="M134.507 287.955C133.641 288.169 132.801 288.48 132.004 288.882C131.195 289.261 130.433 289.733 129.732 290.288C130.599 290.073 131.438 289.762 132.236 289.361C133.045 288.981 133.807 288.509 134.507 287.955Z" fill="#263238"/>
<path d="M131.269 286.649C130.403 286.864 129.563 287.175 128.766 287.576C127.957 287.956 127.195 288.428 126.494 288.982C128.224 288.536 129.848 287.748 131.269 286.664V286.649Z" fill="#263238"/>
<path d="M128.035 285.351C127.168 285.561 126.328 285.869 125.531 286.27C124.722 286.65 123.96 287.122 123.26 287.676C124.127 287.465 124.967 287.154 125.763 286.749C126.57 286.37 127.332 285.901 128.035 285.351Z" fill="#263238"/>
<path d="M131.643 280.228L173.86 300.502L243.227 266.228C243.227 266.228 259.128 278.544 276.203 281.75C287.793 283.929 312.146 283.836 321.565 270.346C329.5 258.981 324.81 245.622 324.81 245.622L311.505 239.572C311.505 239.572 280.205 217.166 260.611 215.141C230.718 212.02 131.643 280.228 131.643 280.228Z" fill="#37474F"/>
<path d="M299.798 231.822C301.699 232.958 303.538 234.14 305.415 235.346C307.293 236.551 309.155 237.571 310.924 238.846C312.694 240.121 314.432 241.534 316.132 242.948C316.959 243.628 317.77 244.316 318.573 245.027C319.401 245.706 320.176 246.448 320.891 247.244C320.953 247.322 320.845 247.43 320.768 247.383C319.875 246.834 319.018 246.227 318.202 245.568C317.306 244.919 316.418 244.246 315.529 243.582C313.806 242.307 312.052 241.079 310.329 239.796C308.606 238.513 307.022 237.115 305.33 235.825C303.515 234.449 301.622 233.175 299.744 231.884C299.752 231.853 299.798 231.799 299.798 231.822Z" fill="#263238"/>
<path d="M243.285 266.274C246.841 268.908 250.571 271.299 254.45 273.429L272.043 251.393L243.285 266.274Z" fill="#263238"/>
<path d="M141.77 276.45C143.161 276.983 144.521 277.632 145.881 278.242L149.891 280.066C152.626 281.325 155.299 282.639 158.042 283.929C163.451 286.533 175.651 293.371 178.672 294.885C178.726 294.885 178.672 295.009 178.625 294.985C173.171 292.559 156.08 283.998 150.679 281.294C149.185 280.537 147.697 279.764 146.213 278.976C144.714 278.204 143.169 277.431 141.716 276.55C141.655 276.535 141.701 276.419 141.77 276.45Z" fill="#263238"/>
<path d="M164.138 259.019C165.289 258.061 189.821 243.311 195.098 240.314C200.375 237.316 205.691 234.442 211.084 231.683C216.477 228.925 221.901 226.321 227.479 223.957C233.057 221.593 238.543 219.367 244.238 217.559C245.01 217.335 245.698 217.104 246.424 216.849C246.494 216.849 246.517 216.934 246.424 216.957C243.542 217.946 240.73 219.151 237.925 220.302C235.12 221.454 232.385 222.62 229.642 223.841C224.152 226.288 218.743 228.894 213.417 231.66C208.091 234.426 202.819 237.29 197.601 240.252C192.357 243.239 187.147 246.294 181.971 249.415C179.382 250.961 164.973 258.95 164.308 259.251C164.161 259.321 164.015 259.151 164.138 259.019Z" fill="#263238"/>
<path d="M202.639 286.062C205.22 284.648 207.862 283.311 210.473 281.959C213.085 280.607 215.735 279.286 218.385 277.972C223.624 275.397 228.883 272.844 234.163 270.315C237.145 268.894 240.143 267.441 243.218 266.205C243.224 266.202 243.232 266.2 243.239 266.2C243.246 266.199 243.253 266.201 243.26 266.203C243.267 266.206 243.273 266.209 243.279 266.214C243.284 266.219 243.288 266.225 243.291 266.232C243.294 266.238 243.296 266.246 243.296 266.253C243.297 266.26 243.295 266.267 243.293 266.274C243.29 266.281 243.287 266.287 243.282 266.293C243.277 266.298 243.271 266.302 243.264 266.305C240.73 267.789 238.08 269.133 235.453 270.454C232.826 271.776 230.176 273.097 227.533 274.41C222.303 277.014 217.072 279.633 211.772 282.098C208.766 283.489 205.776 284.918 202.739 286.239C202.616 286.286 202.523 286.116 202.639 286.062Z" fill="#263238"/>
<path d="M296.994 176.285C296.994 177.336 293.687 184.892 289.074 185.711C287.575 185.974 285.767 177.838 285.767 177.838L285.497 177.266L281.711 169.285L291.4 159.55C291.4 159.55 296.994 175.837 296.994 176.285Z" fill="#EB9481"/>
<path d="M281.711 169.277L285.497 177.266C287.574 175.899 289.342 174.111 290.685 172.017C292.028 169.924 292.916 167.571 293.293 165.113C292.342 162.293 291.531 159.944 291.423 159.596V159.55L290.179 160.709L281.711 169.277Z" fill="#263238"/>
<path d="M294.29 163.823C294.565 164.222 294.759 164.67 294.862 165.144C295.318 167.299 294.166 169.355 292.83 170.931C291.493 172.507 289.461 174.091 288.634 176.208C288.271 177.027 288.219 177.95 288.487 178.804C288.685 179.247 288.977 179.642 289.342 179.961C289.708 180.28 290.139 180.515 290.605 180.651C291.555 181.029 292.76 181.269 293.34 182.196C293.542 182.597 293.647 183.041 293.647 183.49C293.647 183.939 293.542 184.383 293.34 184.784C292.459 186.878 290.017 187.774 288.464 189.289C286.801 190.904 285.666 192.987 285.212 195.261C284.795 197.393 285.01 199.6 285.83 201.612C286.21 202.594 286.731 203.515 287.375 204.347C288.109 205.267 289.036 206.009 289.809 206.897C290.21 207.29 290.526 207.763 290.736 208.284C290.946 208.805 291.046 209.364 291.029 209.926C290.921 210.807 288.874 213.356 284.995 214.322C284.717 214.392 284.864 214.886 285.173 214.917C285.758 214.985 286.346 215.019 286.935 215.018C289.374 215.002 291.774 214.409 293.94 213.288C296.107 212.167 297.976 210.549 299.397 208.566C300.9 206.416 301.852 203.93 302.171 201.326C302.272 199.873 302.494 198.431 302.835 197.015C303.232 195.792 303.915 194.682 304.829 193.778C306.544 192.008 308.653 190.687 310.06 188.609C311.288 186.747 312.039 184.61 312.246 182.389C312.447 180.104 312.153 177.803 311.385 175.642C310.617 173.481 309.393 171.51 307.796 169.865C304.697 166.581 294.143 163.598 294.29 163.823Z" fill="#263238"/>
<path d="M294.391 163.985C294.87 164.814 295.153 165.742 295.218 166.697C295.224 167.565 295.011 168.421 294.6 169.185C293.711 170.915 292.204 172.121 290.736 173.357C289.268 174.593 287.993 175.814 287.53 177.607C287.319 178.365 287.319 179.166 287.53 179.924C287.83 180.742 288.441 181.409 289.23 181.779C290.651 182.551 292.683 183.023 293.093 184.869C293.502 186.716 291.895 188.122 290.775 189.212C288.017 191.869 284.03 194.914 284.594 199.256C285.013 201.491 285.965 203.593 287.368 205.383C288.287 206.665 289.461 208.28 289.021 209.949C289.021 210.011 288.913 209.949 288.928 209.911C289.376 208.141 287.908 206.727 286.912 205.46C285.7 203.963 284.788 202.248 284.223 200.407C283.714 198.557 283.953 196.581 284.887 194.906C285.868 193.204 287.136 191.685 288.635 190.417C289.407 189.737 290.134 189.072 290.852 188.369C291.55 187.768 292.104 187.018 292.475 186.175C292.638 185.748 292.66 185.279 292.538 184.839C292.415 184.398 292.155 184.008 291.795 183.726C291.03 183.182 290.199 182.738 289.322 182.405C288.56 182.079 287.906 181.543 287.437 180.859C287.091 180.271 286.907 179.602 286.904 178.92C286.917 177.372 287.507 175.885 288.557 174.748C289.987 173.117 291.918 172.005 293.317 170.344C294.129 169.545 294.653 168.5 294.808 167.372C294.963 166.244 294.741 165.097 294.175 164.109C294.158 164.08 294.154 164.046 294.163 164.014C294.171 163.982 294.192 163.955 294.221 163.939C294.25 163.922 294.284 163.918 294.316 163.927C294.347 163.935 294.375 163.956 294.391 163.985Z" fill="#263238"/>
<path d="M309.843 170.058C313.119 173.365 314.023 178.395 312.764 182.775C312.032 185.22 310.729 187.455 308.962 189.296C307.332 191.035 305.431 192.58 304.203 194.651C302.843 196.969 302.982 199.565 302.727 202.114C302.53 204.18 301.887 206.179 300.842 207.971C298.806 211.456 295.472 213.993 291.57 215.025C291.076 215.149 290.581 215.257 290.071 215.334C290.061 215.33 290.052 215.323 290.046 215.314C290.04 215.305 290.037 215.295 290.037 215.284C290.037 215.273 290.04 215.263 290.046 215.254C290.052 215.245 290.061 215.238 290.071 215.234C292.041 214.869 293.916 214.106 295.579 212.989C297.243 211.873 298.66 210.428 299.745 208.744C300.836 207.109 301.58 205.269 301.931 203.335C302.356 200.948 302.062 198.468 302.804 196.127C303.5 193.94 305.122 192.263 306.737 190.672C308.571 189.065 310.118 187.158 311.311 185.031C312.358 182.984 312.849 180.697 312.735 178.401C312.621 176.104 311.906 173.877 310.662 171.943C307.734 167.624 302.58 165.909 297.705 164.92C297.056 164.781 296.399 164.657 295.75 164.533C295.673 164.533 295.688 164.402 295.75 164.41C300.78 165.175 306.165 166.303 309.843 170.058Z" fill="#263238"/>
<path d="M295.526 161.35C296.298 161.597 297.032 162.47 296.994 163.004C296.955 163.537 294.15 166.534 293.13 166.511C292.111 166.488 291.871 164.618 291.871 164.618L295.526 161.35Z" fill="#FFC727"/>
<path d="M266.172 160.315C268.343 175.667 277.762 176.1 281.092 175.629C284.098 175.204 294.273 173.365 293.701 157.858C293.13 142.351 285.303 138.542 278.38 139.137C271.457 139.732 264.001 144.963 266.172 160.315Z" fill="#EB9481"/>
<path d="M268.05 158.654C268.39 158.538 268.692 158.368 269.024 158.221C269.39 158.117 269.711 157.894 269.936 157.587C269.989 157.477 270.004 157.352 269.979 157.232C269.954 157.111 269.89 157.003 269.797 156.923C269.586 156.802 269.348 156.738 269.105 156.738C268.862 156.738 268.624 156.802 268.414 156.923C267.948 157.103 267.562 157.442 267.324 157.881C267.287 157.984 267.279 158.096 267.301 158.203C267.324 158.311 267.375 158.41 267.451 158.49C267.526 158.57 267.622 158.628 267.727 158.656C267.833 158.685 267.945 158.684 268.05 158.654Z" fill="#263238"/>
<path d="M278.378 156.598C278.015 156.598 277.668 156.598 277.304 156.598C276.928 156.655 276.544 156.581 276.215 156.39C276.121 156.312 276.057 156.205 276.031 156.086C276.006 155.966 276.022 155.842 276.076 155.733C276.213 155.531 276.401 155.37 276.621 155.265C276.841 155.161 277.085 155.117 277.328 155.138C277.826 155.108 278.318 155.262 278.711 155.571C278.794 155.648 278.854 155.747 278.882 155.857C278.911 155.967 278.908 156.083 278.873 156.191C278.838 156.299 278.773 156.395 278.685 156.467C278.598 156.539 278.491 156.585 278.378 156.598Z" fill="#263238"/>
<path d="M276.365 159.287C276.365 159.287 276.458 159.287 276.466 159.364C276.628 160.408 276.991 161.574 278.011 161.744C278.011 161.744 278.05 161.798 278.011 161.798C276.821 161.86 276.358 160.299 276.365 159.287Z" fill="#263238"/>
<path d="M277.09 158.028C278.736 157.587 279.493 160.91 277.971 161.319C276.449 161.729 275.707 158.399 277.09 158.028Z" fill="#263238"/>
<path d="M277.778 158.051C278.118 158.175 278.473 158.445 278.829 158.399C279.184 158.352 279.47 157.927 279.663 157.533C279.663 157.487 279.717 157.533 279.725 157.533C279.847 157.825 279.853 158.153 279.741 158.449C279.629 158.745 279.407 158.987 279.122 159.125C278.519 159.357 277.948 158.893 277.639 158.29C277.585 158.206 277.646 158.005 277.778 158.051Z" fill="#263238"/>
<path d="M270.663 160.338C270.663 160.299 270.593 160.407 270.601 160.446C270.879 161.466 271.026 162.679 270.176 163.243C270.176 163.243 270.176 163.313 270.176 163.297C271.296 162.864 271.087 161.257 270.663 160.338Z" fill="#263238"/>
<path d="M269.488 159.48C267.804 159.751 268.468 163.096 270.021 162.849C271.574 162.602 270.902 159.256 269.488 159.48Z" fill="#263238"/>
<path d="M268.83 159.843C268.606 160.067 268.406 160.446 268.096 160.523C267.787 160.601 267.393 160.315 267.092 160.013C267.092 160.013 267.038 160.013 267.046 160.06C267.154 160.701 267.494 161.327 268.135 161.327C268.776 161.327 269.024 160.701 269.047 160.036C269.055 159.913 268.892 159.751 268.83 159.843Z" fill="#263238"/>
<path d="M278.675 168.273C278.497 168.582 278.35 168.976 277.987 169.107C277.606 169.208 277.208 169.224 276.82 169.154C276.815 169.158 276.811 169.163 276.809 169.169C276.806 169.175 276.805 169.182 276.805 169.188C276.805 169.195 276.806 169.202 276.809 169.208C276.811 169.214 276.815 169.219 276.82 169.223C277.022 169.381 277.262 169.483 277.516 169.517C277.771 169.551 278.029 169.516 278.265 169.416C278.459 169.305 278.614 169.137 278.712 168.936C278.81 168.735 278.845 168.51 278.814 168.288C278.783 168.227 278.698 168.227 278.675 168.273Z" fill="#263238"/>
<path d="M273.396 165.406C273.396 165.406 273.52 166.99 273.674 167.724C273.674 167.794 273.875 167.786 274.122 167.724C274.774 167.704 275.408 167.505 275.953 167.147C276.498 166.79 276.934 166.289 277.213 165.7C277.22 165.683 277.22 165.664 277.214 165.647C277.208 165.63 277.196 165.615 277.18 165.606C277.164 165.597 277.146 165.593 277.128 165.596C277.11 165.599 277.093 165.609 277.082 165.623C276.292 166.457 275.254 167.016 274.122 167.214C274.03 167.021 274.007 164.487 273.891 164.502C273.345 164.678 272.826 164.924 272.345 165.236C271.99 161.937 272.175 158.615 271.774 155.331C271.774 155.305 271.763 155.279 271.744 155.26C271.725 155.241 271.7 155.231 271.673 155.231C271.647 155.231 271.621 155.241 271.602 155.26C271.583 155.279 271.573 155.305 271.573 155.331C271.271 158.895 271.325 162.479 271.735 166.032C271.758 166.465 273.133 165.592 273.396 165.406Z" fill="#263238"/>
<path d="M274.484 167.392C274.996 167.845 275.616 168.159 276.285 168.304C276.651 168.369 277.028 168.32 277.366 168.165C278.1 167.809 277.984 167.091 277.722 166.511C277.584 166.204 277.407 165.916 277.196 165.654C276.5 166.506 275.55 167.115 274.484 167.392Z" fill="#263238"/>
<path d="M276.287 168.304C276.653 168.369 277.031 168.32 277.369 168.165C278.103 167.809 277.987 167.091 277.724 166.511C277.319 166.606 276.957 166.835 276.696 167.16C276.436 167.485 276.292 167.887 276.287 168.304Z" fill="#FF98B9"/>
<path d="M294.275 158.87C291.833 159.751 289.175 153.693 289.175 153.693C289.175 153.693 284.115 155.107 280.429 148.285C281.176 150.431 282.535 152.311 284.339 153.693C284.339 153.693 275.137 155.239 269.311 148.772C269.311 148.772 271.861 152.171 273.645 153.137C273.645 153.137 269.604 153.137 266.939 150.587C266.939 150.587 266.568 155.331 265.687 156.861C265.687 156.861 260.588 140.713 276.682 138.781C276.682 138.781 287.035 136.147 292.274 142.42C297.512 148.694 294.275 158.87 294.275 158.87Z" fill="#263238"/>
<path d="M291.43 159.395C291.43 159.395 293.639 153.917 296.066 154.597C298.492 155.277 297.611 162.687 295.293 164.201C295.012 164.416 294.691 164.572 294.348 164.659C294.006 164.747 293.649 164.764 293.299 164.71C292.95 164.656 292.615 164.531 292.315 164.344C292.015 164.157 291.756 163.912 291.553 163.622L291.43 159.395Z" fill="#EB9481"/>
<path d="M295.735 156.714C295.781 156.714 295.797 156.714 295.735 156.776C294.143 157.896 293.587 159.743 293.332 161.59C293.393 161.39 293.497 161.206 293.636 161.05C293.776 160.895 293.947 160.771 294.139 160.688C294.331 160.605 294.538 160.565 294.747 160.57C294.956 160.575 295.161 160.625 295.348 160.717C295.403 160.717 295.348 160.817 295.348 160.825C295.017 160.796 294.685 160.871 294.398 161.04C294.111 161.209 293.884 161.463 293.749 161.767C293.523 162.278 293.352 162.812 293.239 163.359C293.193 163.537 292.891 163.521 292.907 163.32C292.358 161.041 293.378 157.495 295.735 156.714Z" fill="#263238"/>
<path d="M24.4772 220.07C20.9463 220.07 13.8071 217.297 15.0124 214.963C16.2177 212.63 19.8878 215.62 20.0423 215.736C19.9341 215.566 17.5544 210.907 19.6792 210.103C21.8039 209.3 23.9441 211.541 24.4772 214.121C25.0104 211.541 27.1042 209.269 29.283 210.103C31.4619 210.938 29.0204 215.566 28.9122 215.736C29.0667 215.643 32.7754 212.7 33.9498 214.963C35.1242 217.227 28.0082 220.07 24.4772 220.07Z" fill="#455A64"/>
<path d="M42.3028 239.108C42.1326 241.055 41.8332 242.988 41.4065 244.895C40.5643 248.689 39.189 252.367 37.2188 254.831C33.1368 256.39 28.8086 257.204 24.4394 257.234C20.0727 257.203 15.7471 256.389 11.6677 254.831C7.45678 249.57 5.95786 238.745 6.5528 233.198C7.64221 223.153 13.6456 219.29 18.8532 217.93C20.6742 217.453 22.5491 217.211 24.4316 217.212C29.5465 217.212 40.7961 219.058 42.3182 233.198C42.5013 235.164 42.4962 237.143 42.3028 239.108Z" fill="#FFC727"/>
<path d="M24.8095 217.196C24.9563 220.534 25.0335 223.872 25.0953 227.24C25.1571 230.609 25.1726 233.916 25.1881 237.285C25.2035 240.653 25.1881 243.96 25.0567 247.329C25.0302 250.67 24.798 254.007 24.3613 257.319L24.4927 256.075L24.5622 254.824C24.6163 253.997 24.6163 253.162 24.6395 252.328C24.7064 250.608 24.7399 248.91 24.7399 247.236C24.7708 243.899 24.7708 240.563 24.7399 237.231V227.186C24.7399 223.879 24.7399 220.542 24.8095 217.196Z" fill="white"/>
<path d="M22.6393 217.297C22.1466 218.889 21.7493 220.509 21.4495 222.149C21.1172 223.779 20.87 225.425 20.6768 227.071C20.2742 230.374 20.0447 233.695 19.9892 237.022V239.518C19.9892 240.345 19.9892 241.179 20.0355 242.013C20.0355 243.675 20.1823 245.336 20.2596 246.997C20.2596 247.831 20.3755 248.658 20.445 249.485L20.6691 251.973L21.2331 256.941C20.9627 255.295 20.6923 253.649 20.4605 252.004L20.1051 249.485C20.0046 248.65 19.9042 247.824 19.8501 246.989C19.7187 245.328 19.5951 243.659 19.5642 241.99C19.5642 241.156 19.487 240.321 19.4947 239.487V236.984C19.5589 233.641 19.8169 230.306 20.2673 226.993C20.724 223.688 21.5189 220.439 22.6393 217.297Z" fill="white"/>
<path d="M19.7489 217.683C18.7275 219.042 17.8764 220.521 17.2147 222.087C17.0524 222.481 16.867 222.86 16.7202 223.261L16.2875 224.459L16.0789 225.054C16.0094 225.263 15.963 225.463 15.9012 225.672L15.5612 226.893C14.7483 230.178 14.3614 233.554 14.41 236.937L14.4641 239.479L14.6959 242.021L14.8195 243.288C14.8813 243.705 14.9663 244.123 15.0358 244.54L15.4608 247.051C15.5226 247.476 15.6308 247.885 15.7312 248.295L16.0325 249.539L16.6352 252.019L18.1418 256.894C17.5624 255.295 16.9983 253.688 16.4266 252.081L15.7544 249.608L15.4221 248.372C15.3024 247.963 15.2044 247.548 15.1285 247.128L14.6959 244.617C14.6186 244.2 14.5336 243.783 14.4718 243.358L14.3327 242.083L14.0623 239.533L13.9928 236.968C13.9531 233.54 14.3794 230.122 15.2599 226.808L15.6308 225.579C15.7003 225.371 15.7544 225.162 15.8239 224.961L16.0557 224.366L16.5116 223.169C16.6738 222.767 16.867 222.396 17.0447 222.002C17.7528 220.45 18.662 218.998 19.7489 217.683Z" fill="white"/>
<path d="M17.6247 218.262C16.2983 219.382 15.1358 220.683 14.171 222.126C13.1792 223.533 12.3522 225.05 11.7063 226.646C10.4102 229.835 9.75139 233.247 9.76699 236.69C9.76699 237.548 9.80562 238.405 9.8288 239.263C9.85198 240.12 9.96788 240.978 10.1224 241.828L10.3156 243.103L10.5783 244.37C10.6555 244.787 10.7482 245.212 10.8641 245.629L11.1732 246.881C11.3973 247.715 11.6677 248.534 11.9458 249.361L12.8112 251.803L13.7693 254.206L14.8278 256.578C13.1714 253.513 11.8329 250.287 10.8332 246.951C10.6169 246.116 10.3465 245.282 10.1842 244.424L9.91379 243.149L9.70518 241.867C9.55065 241.009 9.49657 240.136 9.39612 239.27C9.29568 238.405 9.28023 237.532 9.31113 236.659C9.30689 233.162 10.0113 229.701 11.3818 226.483C12.0732 224.87 12.9495 223.343 13.9933 221.932C14.51 221.234 15.0727 220.571 15.6777 219.947C16.2723 219.325 16.9242 218.761 17.6247 218.262Z" fill="white"/>
<path d="M26.8496 217.297C27.9537 220.451 28.7305 223.711 29.1675 227.024C29.6218 230.336 29.8798 233.672 29.9402 237.014V239.518C29.9402 240.352 29.8938 241.187 29.8783 242.021C29.8783 243.69 29.7161 245.359 29.5847 247.02C29.5307 247.855 29.4302 248.681 29.3375 249.516L29.0516 252.004C28.8044 253.649 28.534 255.295 28.279 256.941L28.843 251.973L29.0671 249.485C29.1366 248.658 29.2216 247.831 29.2525 246.997C29.3298 245.336 29.4688 243.675 29.4843 242.013C29.4843 241.179 29.5384 240.345 29.4843 239.518V237.022C29.4288 233.695 29.1993 230.374 28.7967 227.071C28.588 225.425 28.3408 223.779 28.024 222.149C27.7293 220.51 27.3371 218.889 26.8496 217.297Z" fill="white"/>
<path d="M29.7402 217.706C30.8352 219.02 31.7523 220.472 32.4676 222.025C32.6454 222.412 32.8385 222.798 33.0008 223.192L33.4644 224.389L33.6884 224.984C33.758 225.185 33.8198 225.394 33.8816 225.603L34.2524 226.831C35.1423 230.144 35.5816 233.561 35.5582 236.991L35.4809 239.556L35.2105 242.106L35.0714 243.381C35.0096 243.806 34.9246 244.223 34.8474 244.648L34.3761 247.167C34.2976 247.587 34.197 248.002 34.0747 248.411L33.7425 249.647L33.0703 252.119C32.4986 253.727 31.9423 255.334 31.355 256.933L32.9003 252.058L33.503 249.578L33.8043 248.341C33.9048 247.924 34.0129 247.515 34.0747 247.09L34.4997 244.579C34.5769 244.161 34.6542 243.744 34.716 243.327L34.8396 242.06L35.0869 239.525L35.141 236.984C35.1934 233.6 34.8064 230.223 33.9897 226.939L33.6498 225.718C33.588 225.51 33.5416 225.309 33.4798 225.1L33.2403 224.482L32.8153 223.285C32.6608 222.891 32.4754 222.512 32.3131 222.118C31.6394 220.548 30.7753 219.066 29.7402 217.706Z" fill="white"/>
<path d="M31.873 218.286C32.5725 218.795 33.2218 219.369 33.8124 220.001C34.4173 220.625 34.98 221.288 35.4967 221.987C36.5385 223.386 37.4125 224.903 38.1005 226.507C39.479 229.722 40.1913 233.184 40.1944 236.682C40.1944 237.555 40.148 238.428 40.1094 239.294C40.0707 240.159 39.9626 241.032 39.8003 241.89L39.5917 243.172L39.3213 244.455C39.159 245.305 38.8963 246.139 38.6723 246.974C37.6835 250.301 36.358 253.519 34.7164 256.578L35.7749 254.206L36.7329 251.803L37.606 249.361C37.8455 248.535 38.116 247.716 38.34 246.881L38.6491 245.629C38.765 245.212 38.8577 244.787 38.935 244.37L39.1977 243.103L39.3985 241.828C39.5453 240.978 39.584 240.121 39.6844 239.263C39.7849 238.405 39.7771 237.548 39.7462 236.69C39.7618 233.247 39.103 229.835 37.8069 226.646C37.1641 225.048 36.3369 223.531 35.3422 222.126C34.3695 220.691 33.202 219.399 31.873 218.286Z" fill="white"/>
<path d="M23.6211 229.134C24.1572 229.845 24.65 230.588 25.0968 231.359H24.8264C25.0814 230.911 25.3441 230.47 25.599 230.03C25.7381 229.814 25.8772 229.597 26.024 229.381C26.1708 229.165 26.3176 228.956 26.4799 228.747C26.3871 228.995 26.2712 229.226 26.1631 229.458C26.0549 229.69 25.939 229.929 25.8231 230.154C25.5836 230.617 25.3441 231.065 25.0505 231.513L24.9114 231.745L24.7801 231.513C24.3467 230.744 23.9596 229.949 23.6211 229.134Z" fill="white"/>
<path d="M24.8481 227.974C25.0977 229.112 25.137 230.285 24.964 231.436C24.7143 230.299 24.6751 229.126 24.8481 227.974Z" fill="white"/>
<path d="M35.1883 217.297C35.2423 218.187 35.2423 219.08 35.1883 219.97L34.9642 219.823C35.4201 219.584 35.8837 219.352 36.3473 219.136L37.1044 218.842C37.344 218.749 37.5835 218.649 37.8307 218.564L37.1817 218.989C36.9576 219.128 36.7413 219.259 36.5172 219.383C36.0691 219.646 35.6133 219.885 35.1497 220.117L34.9102 220.241V219.978C34.9519 219.08 35.0447 218.184 35.1883 217.297Z" fill="white"/>
<path d="M36.8492 217.003C36.4301 218.089 35.8234 219.094 35.0566 219.97C35.2619 219.43 35.5207 218.913 35.8293 218.425C36.1221 217.919 36.4636 217.443 36.8492 217.003Z" fill="white"/>
<path d="M32.4141 225.293C32.8673 226.061 33.2724 226.856 33.6271 227.673H33.3567C33.658 227.256 33.9748 226.846 34.2993 226.445C34.4616 226.244 34.6238 226.043 34.7938 225.85C34.9638 225.657 35.1338 225.463 35.3192 225.278C35.1956 225.502 35.0565 225.726 34.9251 225.942C34.7938 226.159 34.647 226.383 34.5002 226.599C34.2143 227.024 33.9207 227.449 33.6117 227.859L33.4494 228.075L33.3412 227.828C32.9843 227.001 32.6747 226.155 32.4141 225.293Z" fill="white"/>
<path d="M33.7725 224.289C33.8305 224.867 33.8305 225.45 33.7725 226.028C33.733 226.606 33.6319 227.178 33.4712 227.735C33.4132 227.157 33.4132 226.575 33.4712 225.997C33.5108 225.418 33.6118 224.846 33.7725 224.289Z" fill="white"/>
<path d="M27.3984 251.671C27.9346 252.385 28.4274 253.131 28.8742 253.904H28.6038C28.8587 253.448 29.1214 253.008 29.3764 252.568C29.5155 252.351 29.6545 252.135 29.8013 251.926C29.9481 251.718 30.0949 251.494 30.2572 251.293C30.1645 251.532 30.0486 251.764 29.9481 252.004L29.6005 252.699C29.3609 253.155 29.1214 253.611 28.8278 254.059L28.6887 254.291L28.5574 254.059C28.124 253.287 27.737 252.489 27.3984 251.671Z" fill="white"/>
<path d="M28.6041 250.52C28.73 251.086 28.8024 251.663 28.8205 252.243C28.8407 252.824 28.8071 253.406 28.72 253.982C28.5873 253.414 28.5147 252.834 28.5037 252.251C28.4757 251.672 28.5093 251.092 28.6041 250.52Z" fill="white"/>
<path d="M15.6543 221.237C15.961 222.077 16.2189 222.933 16.4269 223.802L16.172 223.725C16.5428 223.362 16.9446 223.014 17.3077 222.674L17.9027 222.18C18.1113 222.018 18.3044 221.855 18.5208 221.708C18.3585 221.909 18.1808 222.103 18.0186 222.296L17.4854 222.86C17.13 223.231 16.7592 223.594 16.3806 223.949L16.1874 224.135L16.1256 223.872C15.9135 223.004 15.7561 222.124 15.6543 221.237Z" fill="white"/>
<path d="M17.1599 220.488C17.1181 221.068 17.0197 221.642 16.8663 222.203C16.722 222.766 16.52 223.312 16.2637 223.833C16.305 223.255 16.406 222.683 16.565 222.126C16.7067 221.561 16.906 221.012 17.1599 220.488Z" fill="white"/>
<path d="M43.0912 230.856C43.0503 231.747 42.9548 232.635 42.8053 233.514L42.6044 233.344C43.0835 233.159 43.5702 232.981 44.057 232.819L44.8296 232.587C45.0769 232.525 45.3241 232.448 45.6023 232.394C45.3782 232.518 45.1387 232.626 44.9069 232.742L44.2038 233.058C43.7248 233.267 43.2457 233.452 42.7667 233.63L42.5117 233.731L42.5581 233.46C42.6827 232.582 42.8608 231.713 43.0912 230.856Z" fill="white"/>
<path d="M44.7675 230.748C44.5109 231.269 44.2001 231.761 43.8403 232.216C43.4912 232.69 43.0951 233.128 42.6582 233.522C42.913 233.001 43.2239 232.508 43.5854 232.054C43.9347 231.58 44.3307 231.143 44.7675 230.748Z" fill="white"/>
<path d="M18.5605 240.677C19.1015 241.387 19.6019 242.128 20.0595 242.894H19.789C20.0363 242.446 20.299 241.998 20.5617 241.558L20.9789 240.901C21.1334 240.692 21.2725 240.476 21.427 240.267C21.3343 240.507 21.2261 240.746 21.1257 240.978C21.0253 241.21 20.9016 241.45 20.7857 241.681C20.554 242.145 20.3144 242.601 20.0595 243.049L19.9281 243.281L19.7968 243.049C19.333 242.286 18.92 241.494 18.5605 240.677Z" fill="white"/>
<path d="M19.7492 239.51C19.8832 240.075 19.9609 240.652 19.981 241.233C20.017 241.814 19.9911 242.396 19.9038 242.971C19.7619 242.408 19.6842 241.83 19.672 241.248C19.636 240.668 19.6619 240.085 19.7492 239.51Z" fill="white"/>
<path d="M9.28711 246.587C10.056 247.036 10.7965 247.531 11.5046 248.071L11.2573 248.179C11.3191 247.669 11.3887 247.159 11.4737 246.634C11.52 246.379 11.5664 246.124 11.6205 245.861C11.6746 245.598 11.7209 245.359 11.7905 245.088C11.7905 245.351 11.7905 245.606 11.7905 245.861C11.7905 246.116 11.7905 246.371 11.7441 246.634C11.7441 247.144 11.6514 247.661 11.5818 248.179V248.449L11.3732 248.279C10.645 247.757 9.94845 247.192 9.28711 246.587Z" fill="white"/>
<path d="M10 245.042C10.3403 245.526 10.6303 246.044 10.8654 246.587C11.1109 247.113 11.3024 247.661 11.4371 248.225C11.0927 247.737 10.8049 247.211 10.5795 246.657C10.3323 246.14 10.1382 245.599 10 245.042Z" fill="white"/>
<path d="M7.02344 223.146C7.8614 223.447 8.68171 223.795 9.48043 224.189L9.25636 224.336C9.21773 223.826 9.19455 223.308 9.1791 222.79C9.1791 222.535 9.1791 222.273 9.1791 222.018C9.1791 221.763 9.1791 221.5 9.1791 221.245C9.23318 221.5 9.26409 221.763 9.31045 222.018C9.3568 222.273 9.37999 222.528 9.40316 222.79C9.46498 223.308 9.50361 223.818 9.53451 224.336V224.606L9.29499 224.482C8.51282 224.081 7.75438 223.635 7.02344 223.146Z" fill="white"/>
<path d="M7.41016 221.5C7.81935 221.904 8.18929 222.347 8.51503 222.821C8.85862 223.305 9.15121 223.823 9.38811 224.366C8.96907 223.965 8.59117 223.522 8.26006 223.045C7.92113 222.563 7.63613 222.044 7.41016 221.5Z" fill="white"/>
<path d="M38.5098 240.082C38.9704 240.845 39.3907 241.631 39.7692 242.438H39.4987C39.7923 242.013 40.0937 241.604 40.4105 241.194C40.5727 240.986 40.7272 240.785 40.8972 240.584C41.0672 240.383 41.2295 240.19 41.4072 239.997C41.2913 240.229 41.1522 240.453 41.0286 240.677C40.9049 240.901 40.7581 241.117 40.6191 241.341C40.3409 241.774 40.055 242.199 39.7537 242.616L39.5992 242.84L39.4833 242.593C39.1101 241.776 38.7851 240.937 38.5098 240.082Z" fill="white"/>
<path d="M39.8387 239.054C39.9185 239.63 39.9366 240.213 39.8928 240.793C39.8594 241.372 39.7688 241.946 39.6224 242.508C39.5492 241.931 39.5336 241.349 39.576 240.769C39.6056 240.19 39.6936 239.616 39.8387 239.054Z" fill="white"/>
<path d="M9.42773 255.078H39.7692L36.7096 280.444H12.4797L9.42773 255.078Z" fill="#455A64"/>
<path d="M9.42773 255.078L10.1154 260.796L39.2438 259.398L39.7692 255.078H9.42773Z" fill="#263238"/>
<path d="M41.6701 251.872H7.51953V256.408H41.6701V251.872Z" fill="#455A64"/>
</svg>
