<svg width="483" height="312" viewBox="0 0 483 312" fill="none" xmlns="http://www.w3.org/2000/svg">
<path d="M474.61 73.538L467.057 109.591L462.195 104.917L453.923 110.735L447.601 102.995L433.426 113.154L421.311 93.1866L407.799 100.988L402.44 93.7077L385.281 103.236L380.119 92.3387L392.148 34.9254L456.631 48.0478L474.61 73.538Z" fill="#EBEBEB"/>
<path d="M456.629 48.0479L474.608 73.5381L452.24 68.9876L456.629 48.0479Z" fill="#DBDBDB"/>
<path d="M465.446 116.795L454.372 169.689L367.514 152.016L378.508 99.5496L383.67 110.439L400.836 100.911L406.188 108.192L419.708 100.397L431.815 120.365L445.998 110.206L452.312 117.938L460.592 112.127L465.446 116.795Z" fill="#EBEBEB"/>
<path d="M341.131 110.595L252.614 115.993L245.582 4.01372L311.312 0L335.44 19.9519L341.131 110.595Z" fill="#EBEBEB"/>
<path d="M311.311 0L335.438 19.9519L312.644 21.3443L311.311 0Z" fill="#DBDBDB"/>
<path d="M286.804 75.3505L286.456 72.8225C285.564 67.5876 287.017 61.7303 291.634 55.6086C295.801 50.1637 298.059 46.2744 297.806 41.8562C297.522 36.8779 294.167 33.7354 287.924 33.9843C284.356 34.167 280.929 35.4149 278.098 37.5625L275.375 31.5497C278.532 29.0216 284.057 27.1548 289.306 26.8825C300.695 26.2603 306.235 32.9031 306.669 40.316C307.048 46.9511 303.56 51.9372 299.124 57.7633C295.051 63.076 293.718 67.4553 294.294 72.4102L294.538 74.946L286.804 75.3505ZM285.399 89.1263C285.193 85.5171 287.522 82.8413 290.987 82.6546C294.452 82.4679 296.977 84.8637 297.182 88.4807C297.372 91.8954 295.249 94.649 291.587 94.8513C288.09 95.0457 285.564 92.5411 285.367 89.1263H285.399Z" fill="#DBDBDB"/>
<path d="M65.3999 56.3009L56.497 52.326L55.2579 55.0096C55.0749 55.3931 54.7894 55.7203 54.4321 55.956C54.0747 56.1917 53.659 56.3271 53.2295 56.3475C52.7402 56.3633 52.2525 56.4101 51.7693 56.4876C51.3452 56.5496 50.9119 56.497 50.5157 56.3354C50.1196 56.1737 49.7754 55.9091 49.5199 55.5697L47.7756 53.1661L39.8277 58.7822L41.572 61.1858C41.8146 61.5327 41.9574 61.9379 41.9852 62.3583C42.013 62.7788 41.9247 63.1988 41.7299 63.5738C41.5048 64.0016 41.302 64.4403 41.1221 64.8884C40.9658 65.2834 40.7031 65.6291 40.3624 65.8881C40.0217 66.1471 39.6159 66.3097 39.1884 66.3585L36.2129 66.6463L37.1679 76.2372L40.1592 75.9417C40.5882 75.9079 41.0184 75.99 41.4036 76.1791C41.7888 76.3682 42.1145 76.6572 42.3455 77.0151C42.4718 77.2173 42.6059 77.4118 42.748 77.6063C42.8901 77.8007 43.0322 77.9874 43.1821 78.1741C43.4545 78.5007 43.6296 78.8953 43.6882 79.3141C43.7467 79.7329 43.6863 80.1595 43.5136 80.5465L42.2666 83.2535L51.1774 87.2361L52.4165 84.5369C52.6012 84.1537 52.8884 83.8274 53.2472 83.5931C53.606 83.3587 54.0228 83.2251 54.4528 83.2068C54.9366 83.1871 55.4188 83.1404 55.8972 83.0668C56.3213 83.0047 56.7546 83.0573 57.1508 83.219C57.5469 83.3806 57.8911 83.6453 58.1466 83.9846L59.8909 86.3882L67.8467 80.7721L66.1024 78.3685C65.8523 78.0248 65.705 77.6189 65.6771 77.1968C65.6492 76.7747 65.7418 76.3534 65.9445 75.9805C66.1644 75.5552 66.362 75.119 66.5365 74.6737C66.6883 74.2758 66.9496 73.9274 67.2912 73.6677C67.6328 73.408 68.0411 73.2473 68.4702 73.2036L71.4615 72.908L70.4986 63.3171L67.5073 63.6049C67.081 63.6418 66.6526 63.5618 66.2696 63.3737C65.8865 63.1857 65.5637 62.8969 65.3368 62.5393C65.2026 62.337 65.0685 62.1425 64.9264 61.9481C64.7843 61.7536 64.6423 61.5592 64.4923 61.3803C64.2218 61.0496 64.0479 60.6525 63.9895 60.2317C63.9311 59.8109 63.9903 59.3823 64.1608 58.9923L65.3999 56.3009ZM60.3486 65.1762C61.2716 66.4455 61.7919 67.9561 61.8437 69.5169C61.8955 71.0777 61.4765 72.6186 60.6396 73.9447C59.8028 75.2708 58.5857 76.3225 57.1423 76.9668C55.699 77.6111 54.0941 77.8192 52.5308 77.5645C50.9674 77.3099 49.5158 76.6041 48.3595 75.5364C47.2032 74.4687 46.3942 73.087 46.0347 71.5661C45.6753 70.0451 45.7815 68.4533 46.3401 66.9919C46.8986 65.5305 47.8844 64.2652 49.1726 63.356C50.8997 62.1371 53.0473 61.6441 55.1431 61.9854C57.2389 62.3268 59.1113 63.4745 60.3486 65.1762Z" fill="#EBEBEB"/>
<path d="M467.845 183.558L461.91 186.933L462.96 188.723C463.116 188.979 463.194 189.275 463.185 189.575C463.175 189.874 463.077 190.164 462.904 190.41C462.723 190.691 462.549 190.978 462.391 191.282C462.262 191.55 462.057 191.776 461.801 191.933C461.545 192.09 461.249 192.172 460.947 192.168H458.863V198.928H460.963C461.264 198.924 461.561 199.006 461.817 199.163C462.072 199.32 462.277 199.546 462.407 199.815C462.565 200.118 462.739 200.406 462.92 200.686C463.093 200.932 463.191 201.222 463.2 201.522C463.21 201.821 463.132 202.117 462.975 202.374L461.926 204.163L467.861 207.539L468.919 205.742C469.072 205.487 469.294 205.279 469.56 205.142C469.826 205.005 470.126 204.943 470.426 204.964H471.436C471.736 204.944 472.035 205.006 472.302 205.143C472.568 205.28 472.79 205.488 472.944 205.742L474.001 207.547L479.929 204.171L478.879 202.374C478.73 202.116 478.657 201.822 478.668 201.525C478.679 201.228 478.774 200.94 478.942 200.694C479.124 200.414 479.297 200.118 479.455 199.823C479.585 199.554 479.79 199.328 480.046 199.171C480.302 199.014 480.598 198.932 480.9 198.936H482.999V192.176H480.884C480.582 192.18 480.286 192.098 480.03 191.941C479.774 191.784 479.569 191.558 479.439 191.289C479.282 190.994 479.108 190.698 478.926 190.418C478.758 190.172 478.663 189.884 478.652 189.587C478.641 189.29 478.714 188.996 478.863 188.738L479.913 186.941L473.986 183.565L472.928 185.339C472.775 185.594 472.553 185.802 472.286 185.939C472.02 186.076 471.72 186.138 471.42 186.117H470.915H470.41C470.11 186.137 469.809 186.075 469.542 185.937C469.274 185.8 469.051 185.593 468.895 185.339L467.845 183.558ZM470.915 190.014C472.028 190.012 473.115 190.336 474.04 190.944C474.966 191.552 475.687 192.417 476.114 193.429C476.54 194.441 476.652 195.556 476.435 196.631C476.219 197.706 475.683 198.693 474.897 199.468C474.111 200.243 473.108 200.771 472.018 200.984C470.927 201.198 469.796 201.087 468.769 200.667C467.742 200.247 466.864 199.536 466.247 198.624C465.631 197.712 465.302 196.64 465.304 195.544C465.303 194.817 465.447 194.097 465.729 193.426C466.01 192.754 466.423 192.143 466.945 191.629C467.466 191.114 468.085 190.706 468.766 190.428C469.447 190.149 470.178 190.006 470.915 190.006V190.014Z" fill="#EBEBEB"/>
<path d="M83.4075 27.5594L77.9694 31.6665L79.2244 33.3077C79.4116 33.5416 79.5267 33.8235 79.5561 34.12C79.5854 34.4164 79.5279 34.715 79.3901 34.9801C79.2391 35.2829 79.1073 35.5946 78.9955 35.9135C78.8982 36.1945 78.7233 36.4431 78.4904 36.6313C78.2576 36.8196 77.976 36.9401 77.6774 36.9792L75.5938 37.2437L76.4777 43.941L78.5614 43.6765C78.8647 43.6348 79.1738 43.6784 79.4531 43.8023C79.7323 43.9261 79.9704 44.1252 80.1399 44.3766C80.33 44.6472 80.5355 44.9069 80.7556 45.1544C80.9589 45.3748 81.0938 45.6481 81.1441 45.9418C81.1945 46.2355 81.1582 46.5372 81.0397 46.8112L80.2504 48.7248L86.5646 51.315L87.3538 49.4015C87.4713 49.127 87.6644 48.8904 87.9113 48.7186C88.1582 48.5467 88.4491 48.4465 88.7508 48.4292L89.256 48.3747L89.7532 48.2969C90.0453 48.2427 90.3469 48.2684 90.6252 48.3712C90.9035 48.4741 91.1478 48.6502 91.3317 48.8803L92.6182 50.5372L98.0563 46.4301L96.7855 44.7888C96.602 44.5517 96.4893 44.2688 96.46 43.972C96.4307 43.6752 96.486 43.3762 96.6198 43.1087C96.7694 42.8079 96.9012 42.4988 97.0144 42.183C97.1117 41.9021 97.2866 41.6535 97.5195 41.4652C97.7524 41.277 98.0339 41.1565 98.3325 41.1174L100.416 40.8529L99.5322 34.1556L97.4485 34.4201C97.146 34.4625 96.8374 34.4201 96.5582 34.2977C96.279 34.1752 96.0405 33.9777 95.87 33.7278C95.6727 33.4477 95.4675 33.1833 95.2465 32.9499C95.0626 32.7248 94.9436 32.4551 94.902 32.169C94.8603 31.883 94.8975 31.5912 95.0097 31.3242L95.799 29.4107L89.4848 26.8204L88.6956 28.734C88.5766 29.0074 88.3831 29.243 88.1365 29.4147C87.8899 29.5863 87.5998 29.6872 87.2986 29.7063L86.7934 29.7529L86.3278 29.7685C86.0357 29.8227 85.7341 29.797 85.4558 29.6942C85.1775 29.5913 84.9331 29.4153 84.7492 29.1851L83.4075 27.5594ZM87.2986 33.5722C88.398 33.4329 89.5147 33.6176 90.5077 34.1031C91.5007 34.5885 92.3256 35.3529 92.8783 36.2999C93.4311 37.2469 93.6868 38.3339 93.6134 39.424C93.54 40.514 93.1406 41.5582 92.4657 42.4248C91.7908 43.2915 90.8706 43.9417 89.8212 44.2935C88.7718 44.6453 87.6401 44.6829 86.569 44.4016C85.4979 44.1203 84.5354 43.5327 83.8027 42.7128C83.0701 41.893 82.6003 40.8777 82.4525 39.795C82.3538 39.0725 82.4011 38.3379 82.5916 37.6335C82.7821 36.929 83.112 36.2687 83.5624 35.6903C84.0128 35.112 84.5747 34.6272 85.2159 34.2636C85.8571 33.9001 86.5649 33.6651 87.2986 33.5722Z" fill="#EBEBEB"/>
<path d="M42.7792 203.058C43.0757 195.539 42.9703 188.009 42.4635 180.501C41.3342 164.996 38.9349 149.607 35.2891 134.483C33.2843 125.973 30.8218 117.604 28.2488 109.242C28.1699 108.985 27.7595 109.055 27.8305 109.319C35.7784 138.8 42.2977 169.214 41.8479 199.861C41.7216 208.418 40.7113 216.857 39.8905 225.383C39.8905 225.608 40.2456 225.702 40.3009 225.468C41.9347 218.149 42.4714 210.51 42.7792 203.058Z" fill="#EBEBEB"/>
<path d="M27.8273 109.296C27.8273 109.296 15.7988 139.399 18.4902 146.446C21.1816 153.494 26.7381 155.003 26.7381 155.003C26.7381 155.003 19.3742 165.364 24.5202 175.079C29.6663 184.794 41.0948 184.335 41.8841 195.35C41.8604 195.404 42.4918 149.348 27.8273 109.296Z" fill="#EBEBEB"/>
<path d="M40.5536 176.386C40.573 176.336 40.573 176.28 40.5536 176.23C38.9749 155.679 35.0619 135.366 28.8882 115.675C28.8882 115.62 28.7698 115.636 28.7856 115.675C31.1692 124.49 33.2739 133.342 35.0997 142.23C33.4826 140.721 31.507 139.635 29.3539 139.072C29.3539 139.072 29.2907 139.119 29.3539 139.135C31.6159 139.951 33.6497 141.284 35.2891 143.024C35.6364 144.774 35.9837 146.516 36.3073 148.267C33.6159 145.303 29.8906 143.833 26.1573 142.433C26.1489 142.436 26.1417 142.442 26.1367 142.45C26.1316 142.457 26.1289 142.466 26.1289 142.475C26.1289 142.485 26.1316 142.493 26.1367 142.501C26.1417 142.509 26.1489 142.515 26.1573 142.518C30.0484 144.074 33.9158 146.081 36.552 149.387C37.4675 154.38 38.2726 159.392 38.9671 164.423C37.0238 162.416 34.5316 161.008 31.7927 160.37C31.7059 160.37 31.6585 160.471 31.7453 160.494C34.5589 161.311 37.0708 162.916 38.975 165.115H39.0224C39.2592 166.878 39.4854 168.649 39.7011 170.428C38.1978 169.174 36.5004 168.165 34.6735 167.441C34.6262 167.441 34.5946 167.495 34.6735 167.511C36.5379 168.307 38.2452 169.42 39.7169 170.801C39.7169 170.801 39.7564 170.801 39.7801 170.801C39.9774 172.489 40.1747 174.177 40.3483 175.865C37.6381 172.636 34.1208 170.159 30.1431 168.677C30.1264 168.677 30.1103 168.684 30.0985 168.696C30.0866 168.707 30.08 168.723 30.08 168.74C30.08 168.756 30.0866 168.772 30.0985 168.784C30.1103 168.795 30.1264 168.802 30.1431 168.802C34.0708 170.508 37.5209 173.126 40.1984 176.433C40.2278 176.469 40.2676 176.496 40.3126 176.509C40.3576 176.523 40.4058 176.524 40.4509 176.51C40.7114 179.101 40.9482 181.691 41.1376 184.289C41.1376 184.328 41.2007 184.328 41.2007 184.289C40.9955 181.68 40.7798 179.046 40.5536 176.386Z" fill="white"/>
<path d="M30.8825 136.109C28.7041 134.772 26.2156 134.007 23.6528 133.884C23.6403 133.884 23.6282 133.889 23.6193 133.898C23.6105 133.906 23.6055 133.918 23.6055 133.931C23.6055 133.943 23.6105 133.955 23.6193 133.964C23.6282 133.972 23.6403 133.977 23.6528 133.977C26.1306 134.44 28.5351 135.225 30.8036 136.311C30.8983 136.334 30.9693 136.171 30.8825 136.109Z" fill="white"/>
<path d="M32.3418 167.977C30.6676 167.03 28.824 166.409 26.9117 166.149C26.8485 166.149 26.8407 166.235 26.9117 166.25C28.7791 166.619 30.5853 167.242 32.2787 168.102C32.3497 168.14 32.4129 168.016 32.3418 167.977Z" fill="white"/>
<path d="M74.4129 146.967C69.3244 150.434 64.6511 154.458 60.4824 158.962C56.1832 163.731 52.8672 169.279 50.7192 175.297C46.1476 187.834 43.6894 201.025 43.4421 214.345C43.2888 221.721 44.0066 229.091 45.581 236.304C45.5938 236.356 45.6265 236.402 45.6725 236.431C45.7184 236.46 45.774 236.471 45.8278 236.461C45.8815 236.451 45.9293 236.421 45.9613 236.377C45.9932 236.334 46.0068 236.279 45.9993 236.226C44.0402 223.497 44.1148 210.545 46.2203 197.839C48.2882 185.393 51.5321 171.843 59.5668 161.723C63.9394 156.208 69.3932 151.876 74.7839 147.395C75.068 147.146 74.7049 146.765 74.4129 146.967Z" fill="#EBEBEB"/>
<path d="M45.209 205.369C48.1055 200.751 51.5093 196.463 55.3589 192.581C61.381 186.646 66.4481 182.43 67.2374 178.509C68.0267 174.589 61.2074 171.695 61.2074 171.695C61.2074 171.695 69.5342 173.173 71.8151 169.727C74.0961 166.281 75.1932 146.322 75.1932 146.322C75.1932 146.322 60.0393 156.986 52.9754 171.936C45.9114 186.887 45.209 205.369 45.209 205.369Z" fill="#EBEBEB"/>
<path d="M69.7571 165.045C68.7593 164.898 67.7477 164.865 66.7421 164.944C66.6237 164.944 66.6316 165.146 66.7421 165.154C67.7366 165.154 68.739 165.107 69.7334 165.154C69.7448 165.151 69.7551 165.145 69.7633 165.137C69.7714 165.128 69.777 165.118 69.7795 165.106C69.7819 165.095 69.7811 165.083 69.7772 165.073C69.7732 165.062 69.7663 165.052 69.7571 165.045Z" fill="white"/>
<path d="M58.8717 184.405C57.2715 184.437 55.6896 184.748 54.1992 185.323C54.1992 185.323 54.1992 185.401 54.1992 185.393C55.7778 185.028 57.301 184.88 58.8638 184.615C58.8842 184.607 58.9017 184.592 58.9142 184.574C58.9267 184.556 58.9338 184.535 58.9346 184.513C58.9354 184.491 58.93 184.469 58.9188 184.45C58.9077 184.431 58.8914 184.416 58.8717 184.405Z" fill="white"/>
<path d="M55.6043 177.716C54.9399 177.711 54.2765 177.768 53.6232 177.887C53.6111 177.891 53.6007 177.899 53.5933 177.91C53.586 177.92 53.582 177.933 53.582 177.945C53.582 177.958 53.586 177.97 53.5933 177.981C53.6007 177.991 53.6111 177.999 53.6232 178.004C54.2848 178.041 54.9486 178.013 55.6043 177.918C55.6315 177.918 55.6576 177.907 55.6768 177.888C55.6961 177.869 55.7069 177.844 55.7069 177.817C55.7069 177.79 55.6961 177.764 55.6768 177.745C55.6576 177.726 55.6315 177.716 55.6043 177.716Z" fill="white"/>
<path d="M0.781003 168.14C5.71328 169.788 10.4397 171.983 14.8694 174.682C19.4656 177.561 23.4514 181.291 26.6058 185.665C33.2427 194.77 38.3242 204.884 41.6492 215.605C43.5036 221.541 44.6479 227.671 45.0588 233.869C45.0502 233.909 45.0279 233.945 44.9955 233.971C44.9632 233.997 44.9229 234.011 44.8812 234.011C44.8396 234.011 44.7993 233.997 44.767 233.971C44.7346 233.945 44.7123 233.909 44.7037 233.869C43.3105 223.122 40.2158 212.658 35.5324 202.856C30.931 193.25 25.1299 183.029 16.2585 176.666C11.4282 173.204 5.99805 170.933 0.583686 168.537C0.29955 168.444 0.496867 168.047 0.781003 168.14Z" fill="#EBEBEB"/>
<path d="M38.1137 208.752C34.6847 205.677 30.9237 202.983 26.8982 200.717C20.6314 197.287 15.5406 195.031 13.9858 192.036C12.4309 189.041 17.2691 185.152 17.2691 185.152C17.2691 185.152 10.8761 188.264 8.22415 185.969C5.57222 183.674 0 167.806 0 167.806C0 167.806 14.7672 172.979 23.9779 183.472C33.1886 193.965 38.1137 208.752 38.1137 208.752Z" fill="#EBEBEB"/>
<path d="M25.8561 194.144C24.4042 194.044 22.9464 194.221 21.5625 194.665C21.5625 194.665 21.5625 194.735 21.5625 194.728C22.9744 194.489 24.4009 194.344 25.8324 194.292C25.935 194.292 25.9587 194.152 25.8561 194.144Z" fill="white"/>
<path d="M12.9751 177.498C12.3128 177.445 11.6462 177.482 10.9941 177.607C10.923 177.607 10.9467 177.732 10.9941 177.724C11.6491 177.654 12.2884 177.677 12.9356 177.662C12.9557 177.662 12.9755 177.656 12.9915 177.644C13.0076 177.632 13.0189 177.615 13.0235 177.596C13.0282 177.577 13.0259 177.556 13.0171 177.538C13.0083 177.521 12.9934 177.506 12.9751 177.498Z" fill="white"/>
<path d="M57.1588 253.93H23.8281L28.5795 219.619L29.795 210.821H51.192L52.4075 219.619L57.1588 253.93Z" fill="#DBDBDB"/>
<path d="M52.4061 219.619H28.5781L29.7936 210.821H51.1906L52.4061 219.619Z" fill="#C7C7C7"/>
<path d="M54.2462 207.772H26.7324V215.224H54.2462V207.772Z" fill="#DBDBDB"/>
<path d="M2.63281 253.93L62.6249 253.743L122.617 253.673L242.601 253.541L362.586 253.673L422.578 253.743L482.57 253.93L422.578 254.124L362.586 254.187L242.601 254.319L122.617 254.187L62.6249 254.117L2.63281 253.93Z" fill="#263238"/>
<path d="M244.183 311.903C369.173 311.903 470.497 300.961 470.497 287.463C470.497 273.965 369.173 263.023 244.183 263.023C119.193 263.023 17.8691 273.965 17.8691 287.463C17.8691 300.961 119.193 311.903 244.183 311.903Z" fill="#EBEBEB"/>
<path d="M191.502 283.418C189.663 284.033 136.933 284.196 134.912 282.967C134.123 282.501 133.673 274.932 133.334 265.769C133.263 263.793 133.207 261.747 133.16 259.678L128.953 231.956L164.21 231.73L167.532 259.461L167.398 265.559C167.398 265.559 187.619 274.388 189.687 275.99C191.755 277.592 193.341 282.804 191.502 283.418Z" fill="#EB9481"/>
<path d="M191.502 283.418C189.663 284.033 136.933 284.196 134.912 282.967C133.981 282.392 133.476 271.338 133.191 259.678L167.493 259.46L167.359 265.559C167.359 265.559 187.58 274.387 189.648 275.99C191.715 277.592 193.341 282.804 191.502 283.418Z" fill="white"/>
<path d="M191.499 283.418C189.66 284.033 136.929 284.196 134.909 282.967C134.119 282.5 133.669 274.932 133.33 265.769L167.324 265.559C167.324 265.559 187.545 274.387 189.613 275.99C191.681 277.592 193.338 282.804 191.499 283.418Z" fill="#A6A6A6"/>
<path d="M190.737 281.342C181.897 281.155 146.222 281.24 137.469 281.723C137.398 281.723 137.398 281.769 137.469 281.777C146.23 282.143 181.905 281.777 190.737 281.482C190.926 281.474 190.926 281.342 190.737 281.342Z" fill="#263238"/>
<path d="M186.245 274.131C185.262 274.109 184.286 274.289 183.377 274.658C182.468 275.028 181.647 275.579 180.965 276.278C179.723 277.524 179.021 279.198 179.008 280.945C179.008 280.999 179.103 280.999 179.11 280.945C179.404 279.224 180.254 277.643 181.534 276.437C182.815 275.231 184.456 274.466 186.214 274.255C186.231 274.26 186.248 274.257 186.263 274.248C186.278 274.239 186.289 274.225 186.293 274.209C186.297 274.192 186.294 274.175 186.285 274.16C186.277 274.146 186.262 274.135 186.245 274.131Z" fill="#263238"/>
<path d="M170.783 266.414C167.247 266.376 163.151 267.62 160.957 270.483C160.878 270.592 161.036 270.708 161.138 270.654C164.228 269.047 167.482 267.769 170.846 266.842C170.898 266.828 170.943 266.796 170.973 266.751C171.003 266.707 171.015 266.653 171.007 266.601C170.999 266.548 170.972 266.5 170.931 266.466C170.89 266.432 170.837 266.413 170.783 266.414Z" fill="#263238"/>
<path d="M173.531 267.449C169.987 267.449 165.891 268.663 163.705 271.517C163.618 271.634 163.776 271.751 163.886 271.696C166.971 270.083 170.223 268.803 173.586 267.877C173.638 267.863 173.682 267.831 173.712 267.788C173.741 267.744 173.754 267.691 173.747 267.639C173.74 267.587 173.715 267.539 173.675 267.504C173.636 267.47 173.584 267.45 173.531 267.449Z" fill="#263238"/>
<path d="M176.26 268.491C172.724 268.491 168.628 269.697 166.433 272.559C166.355 272.668 166.512 272.785 166.615 272.731C169.704 271.124 172.959 269.846 176.323 268.919C176.375 268.905 176.42 268.873 176.45 268.828C176.479 268.784 176.491 268.73 176.483 268.678C176.476 268.625 176.449 268.577 176.407 268.543C176.366 268.508 176.314 268.49 176.26 268.491Z" fill="#263238"/>
<path d="M179.001 269.534C175.457 269.495 171.361 270.739 169.175 273.602C169.088 273.711 169.254 273.827 169.356 273.773C172.445 272.165 175.699 270.887 179.064 269.961C179.116 269.947 179.161 269.915 179.191 269.871C179.22 269.826 179.232 269.773 179.225 269.72C179.217 269.667 179.19 269.619 179.149 269.585C179.107 269.551 179.055 269.532 179.001 269.534Z" fill="#263238"/>
<path d="M139.694 273.438C135.748 273.438 135.748 279.544 139.694 279.521C143.64 279.498 143.672 273.415 139.694 273.438Z" fill="#263238"/>
<path d="M174.578 257.096C172.787 255.633 170.53 257.096 169.432 258.597C167.606 261.251 166.518 264.329 166.275 267.527C166.275 267.597 166.331 267.628 166.386 267.628C166.4 267.694 166.43 267.755 166.473 267.807C166.516 267.86 166.571 267.901 166.634 267.927C166.697 267.954 166.765 267.965 166.833 267.961C166.901 267.956 166.967 267.935 167.025 267.9C169.535 266.181 172.44 264.641 174.342 262.206C175.423 260.791 176.307 258.457 174.578 257.096ZM170.269 264.517C169.054 265.396 167.799 266.212 166.615 267.138C167.246 265.396 167.791 263.638 168.596 261.957C168.968 261.152 169.395 260.372 169.874 259.624C170.664 258.465 174.105 255.54 174.468 259.328C174.673 261.405 171.713 263.474 170.269 264.517Z" fill="#263238"/>
<path d="M157.467 268.849C160.545 269.3 163.726 268.429 166.749 267.955C166.814 267.938 166.875 267.906 166.926 267.862C166.977 267.818 167.017 267.762 167.042 267.7C167.067 267.638 167.078 267.571 167.072 267.505C167.066 267.438 167.045 267.374 167.009 267.317C167.021 267.308 167.03 267.297 167.036 267.284C167.043 267.271 167.046 267.257 167.046 267.243C167.046 267.229 167.043 267.215 167.036 267.202C167.03 267.189 167.021 267.178 167.009 267.169C164.58 265.034 161.624 263.567 158.438 262.914C156.575 262.564 153.939 263.07 153.702 265.349C153.418 267.496 155.667 268.569 157.467 268.849ZM155.32 266.873C152.952 263.887 157.475 263.63 158.832 263.941C159.713 264.158 160.578 264.434 161.421 264.765C163.148 265.471 164.836 266.263 166.48 267.138C164.981 267.286 163.505 267.55 162.013 267.752C160.229 267.986 156.646 268.515 155.32 266.873Z" fill="#263238"/>
<path d="M77.1133 103.82C77.1133 103.82 118.053 172.458 119.15 177.28C120.831 184.686 129.742 257.811 129.742 257.811L172.362 257.034C172.362 257.034 165.022 192.557 158.068 171.314C153.064 156.014 116.932 105.267 116.932 105.267L77.1133 103.82Z" fill="#37474F"/>
<path d="M168.486 250.624C162.369 250.577 140.688 250.336 132.542 251.083C132.479 251.083 132.487 251.192 132.542 251.2C135.344 251.596 162.361 250.982 168.478 250.787C168.491 250.792 168.504 250.793 168.518 250.792C168.531 250.79 168.544 250.786 168.555 250.778C168.567 250.771 168.576 250.761 168.583 250.749C168.59 250.737 168.593 250.724 168.594 250.711C168.595 250.698 168.592 250.684 168.587 250.672C168.581 250.66 168.573 250.649 168.562 250.641C168.552 250.632 168.539 250.626 168.526 250.623C168.513 250.62 168.499 250.621 168.486 250.624Z" fill="#263238"/>
<path d="M84.0999 110.121C86.7834 114.267 89.6247 118.327 92.3556 122.442C95.0865 126.557 97.8331 130.671 100.54 134.778C105.939 143.076 111.201 151.427 116.326 159.833C118.827 163.73 120.966 167.84 122.719 172.115C124.318 176.391 125.52 180.802 126.31 185.292C127.146 189.796 127.699 194.346 128.212 198.897C128.738 203.735 129.288 208.576 129.862 213.419C130.982 223.329 132.106 233.239 133.232 243.149C133.366 244.362 133.5 245.576 133.626 246.797C133.626 246.976 133.318 247.007 133.295 246.797C132.04 236.957 130.998 227.078 129.862 217.239C129.293 212.328 128.728 207.42 128.165 202.514C127.636 197.948 127.131 193.374 126.412 188.839C125.753 184.363 124.751 179.942 123.413 175.616C121.939 171.136 119.965 166.831 117.525 162.781C112.592 154.388 107.367 146.143 102.142 137.89C96.9175 129.637 91.5505 121.314 86.0415 113.162C85.3627 112.159 84.676 111.155 83.9657 110.167C83.9104 110.113 84.0525 110.043 84.0999 110.121Z" fill="#263238"/>
<path d="M90.5305 287.463C88.5889 287.347 38.4389 267.325 37.0498 265.427C36.9879 265.315 36.9605 265.188 36.9709 265.061C36.9709 263.358 40.4516 257.415 43.3561 249.605C43.5376 249.107 44.832 246.789 46.6236 243.67C51.6039 235.122 60.2858 220.397 60.2858 220.397L93.064 233.231L77.3734 256.373L74.9346 261.973C74.9346 261.973 90.3174 277.647 91.6118 279.864C92.9062 282.081 92.4642 287.572 90.5305 287.463Z" fill="#EB9481"/>
<path d="M90.5305 287.463C88.5889 287.347 38.4389 267.325 37.0498 265.427C36.9879 265.315 36.9605 265.188 36.9709 265.061C36.9709 263.358 40.4516 257.415 43.3561 249.605C43.5376 249.107 44.832 246.789 46.6236 243.67L77.405 256.373L74.9662 261.973C74.9662 261.973 90.349 277.647 91.6434 279.864C92.9378 282.081 92.4642 287.572 90.5305 287.463Z" fill="white"/>
<path d="M90.5315 287.463C88.5899 287.347 38.4399 267.325 37.0508 265.427C36.5141 264.703 38.7556 257.959 43.3649 249.605L74.9356 261.981C74.9356 261.981 90.3184 277.639 91.6207 279.871C92.9229 282.104 92.4652 287.572 90.5315 287.463Z" fill="#A6A6A6"/>
<path d="M90.6091 285.254C82.4876 281.816 49.3858 268.701 41.0906 265.917C41.0196 265.917 41.0038 265.917 41.0906 265.963C49.0701 269.542 82.2745 282.392 90.5776 285.41C90.7354 285.449 90.7828 285.324 90.6091 285.254Z" fill="#263238"/>
<path d="M89.1901 276.908C88.2896 276.518 87.3166 276.317 86.333 276.317C85.3493 276.317 84.3764 276.518 83.4759 276.908C81.8566 277.607 80.5731 278.894 79.8926 280.502C79.8926 280.548 79.9636 280.587 79.9873 280.541C80.9177 279.049 82.3136 277.895 83.9657 277.251C85.6177 276.608 87.4369 276.509 89.1507 276.97C89.1639 276.966 89.1753 276.958 89.1826 276.947C89.1899 276.935 89.1926 276.921 89.1901 276.908Z" fill="#263238"/>
<path d="M77.8022 264.042C74.5425 262.696 70.2647 262.339 67.1471 264.182C67.0287 264.252 67.1471 264.415 67.2497 264.408C70.7251 264.06 74.2281 264.078 77.6996 264.462C77.753 264.468 77.8067 264.454 77.8506 264.424C77.8946 264.393 77.9258 264.348 77.9383 264.297C77.9509 264.245 77.944 264.191 77.919 264.144C77.8939 264.097 77.8524 264.061 77.8022 264.042Z" fill="#263238"/>
<path d="M79.937 266.018C76.6773 264.672 72.3995 264.314 69.2819 266.158C69.1635 266.228 69.2819 266.391 69.3845 266.383C72.8597 266.032 76.3631 266.05 79.8344 266.438C79.8878 266.444 79.9415 266.43 79.9854 266.399C80.0294 266.369 80.0605 266.324 80.0731 266.272C80.0857 266.221 80.0788 266.167 80.0537 266.12C80.0287 266.073 79.9872 266.037 79.937 266.018Z" fill="#263238"/>
<path d="M82.0852 267.994C78.8176 266.648 74.5398 266.29 71.4301 268.134C71.3038 268.204 71.4301 268.367 71.5248 268.359C75 268.008 78.5035 268.026 81.9747 268.414C82.0292 268.423 82.0851 268.411 82.1315 268.381C82.1779 268.352 82.2113 268.306 82.2251 268.253C82.239 268.201 82.2323 268.145 82.2064 268.097C82.1805 268.049 82.1373 268.012 82.0852 267.994Z" fill="#263238"/>
<path d="M84.2239 269.969C80.9563 268.624 76.6864 268.266 73.5688 270.102C73.4425 270.179 73.5688 270.343 73.6635 270.335C77.1387 269.984 80.6421 270.002 84.1134 270.39C84.1679 270.399 84.2238 270.387 84.2702 270.357C84.3165 270.328 84.3499 270.282 84.3638 270.229C84.3777 270.177 84.371 270.121 84.3451 270.073C84.3192 270.024 84.2759 269.988 84.2239 269.969Z" fill="#263238"/>
<path d="M46.2987 259.056C42.6128 257.609 40.324 263.264 44.0256 264.711C47.7273 266.158 50.024 260.503 46.2987 259.056Z" fill="#263238"/>
<path d="M84.8645 256.808C83.7517 254.794 81.1234 255.291 79.5212 256.295C76.8222 258.077 74.645 260.526 73.2071 263.397C73.2008 263.409 73.1974 263.423 73.1973 263.437C73.1971 263.451 73.2002 263.465 73.2063 263.478C73.2124 263.49 73.2213 263.502 73.2323 263.51C73.2434 263.519 73.2564 263.526 73.2702 263.529C73.2702 263.785 73.4439 264.089 73.7517 264.027C76.743 263.35 80.0185 263 82.702 261.444C84.241 260.542 85.9143 258.714 84.8645 256.808ZM78.0374 262.09C76.5773 262.455 75.1092 262.751 73.6649 263.171C74.8596 261.752 76.1266 260.395 77.4612 259.103C78.1182 258.486 78.817 257.915 79.5528 257.392C80.6972 256.614 85.0224 255.175 83.9174 258.823C83.3097 260.837 79.7817 261.654 78.0374 262.09Z" fill="#263238"/>
<path d="M64.5246 261.374C67.2081 262.93 70.4836 263.295 73.467 263.98C73.7748 264.05 73.98 263.747 73.9564 263.482C73.9712 263.48 73.9853 263.475 73.9974 263.467C74.0096 263.458 74.0193 263.447 74.0256 263.433C74.0319 263.42 74.0347 263.405 74.0336 263.391C74.0326 263.376 74.0277 263.362 74.0195 263.35C72.5839 260.473 70.4064 258.019 67.7054 256.232C66.1268 255.221 63.4828 254.716 62.362 256.722C61.2413 258.729 62.954 260.464 64.5246 261.374ZM63.2934 258.745C62.1963 255.097 66.5136 256.544 67.658 257.329C68.3929 257.853 69.0892 258.428 69.7417 259.048C71.0737 260.343 72.3382 261.703 73.5301 263.124C72.0858 262.704 70.6178 262.401 69.1576 262.035C67.3897 261.569 63.8932 260.791 63.2934 258.745Z" fill="#263238"/>
<path d="M79.9215 255.081L43.2285 240.481C43.2285 240.481 88.7218 174.558 89.0533 169.65C89.3532 165.309 69.369 127.49 68.5876 116.468C67.7352 104.567 73.5442 95.3647 79.9373 89.6475L117.783 105.508C117.783 105.508 113.789 111.801 107.522 115.309C107.522 115.309 126.93 159.024 125.825 172.465C124.72 185.907 79.9215 255.081 79.9215 255.081Z" fill="#37474F"/>
<path d="M81.5496 248.205C76.2457 245.957 77.8006 246.525 72.4651 244.316C69.8605 243.242 52.7335 236.218 50.0973 235.635C50.0421 235.635 50.0026 235.713 50.0579 235.744C52.3388 237.12 69.608 243.849 72.2362 244.876C77.6111 246.96 76.0879 246.307 81.4864 248.329C81.4945 248.34 81.5052 248.348 81.5175 248.354C81.5298 248.359 81.5433 248.361 81.5567 248.36C81.5701 248.359 81.5829 248.354 81.594 248.347C81.6052 248.339 81.6142 248.329 81.6202 248.317C81.6262 248.306 81.629 248.292 81.6284 248.279C81.6278 248.266 81.6238 248.253 81.6167 248.242C81.6097 248.23 81.5998 248.221 81.588 248.215C81.5763 248.208 81.563 248.205 81.5496 248.205Z" fill="#263238"/>
<path d="M113.728 114.508C109.788 115.413 105.933 116.646 102.205 118.195C102.19 118.2 102.176 118.208 102.164 118.218C102.152 118.229 102.142 118.241 102.135 118.255C102.128 118.269 102.124 118.285 102.123 118.3C102.122 118.316 102.124 118.332 102.13 118.346C102.135 118.361 102.143 118.375 102.153 118.387C102.164 118.398 102.177 118.408 102.191 118.415C102.205 118.422 102.221 118.426 102.237 118.427C102.253 118.428 102.269 118.425 102.284 118.42C106.151 117.308 110.082 116.266 113.886 114.951C114.178 114.85 114.028 114.445 113.728 114.508Z" fill="#263238"/>
<path d="M109.22 112.999C108.852 113.643 108.528 114.311 108.249 114.998C107.977 115.519 107.808 116.087 107.752 116.67C107.752 116.787 107.91 116.81 107.981 116.74C108.377 116.273 108.696 115.749 108.928 115.184C109.252 114.57 109.583 113.963 109.891 113.333C110.104 112.874 109.465 112.579 109.22 112.999Z" fill="#263238"/>
<path d="M109.693 109.467C109.93 108.892 110.159 108.324 110.403 107.748C110.648 107.173 110.956 106.581 111.193 105.975C111.193 105.881 111.382 105.975 111.342 106.045C111.106 106.62 110.956 107.227 110.774 107.818C110.593 108.409 110.387 109.001 110.19 109.592C109.819 110.688 109.401 111.777 108.888 112.843C109.509 112.874 110.129 112.767 110.703 112.532C111.29 112.162 111.74 111.617 111.99 110.976C112.321 110.338 112.629 109.685 112.968 109.047C113.386 108.358 113.738 107.631 114.018 106.877C114.018 106.784 114.208 106.877 114.168 106.947C113.653 108.541 112.979 110.081 112.155 111.544C111.8 112.112 111.524 112.711 110.877 112.929C110.176 113.122 109.443 113.172 108.722 113.076C108.627 113.076 108.517 113.076 108.548 112.936C108.872 111.762 109.254 110.604 109.693 109.467Z" fill="#263238"/>
<path d="M108.083 116.732C109.432 119.54 110.616 122.341 111.871 125.141C113.126 127.941 114.239 130.648 115.368 133.433C117.625 139.049 119.646 144.774 121.421 150.546C122.297 153.408 123.11 156.294 123.837 159.203C124.636 162.103 125.222 165.056 125.589 168.039C125.905 171.018 125.637 174.028 124.799 176.907C123.929 179.752 122.812 182.519 121.461 185.176C120.632 186.856 120.356 186.63 120.75 185.782C121.879 183.371 124.839 176.067 124.626 169.93C124.453 166.991 123.993 164.077 123.252 161.225C122.563 158.285 121.787 155.368 120.924 152.475C119.243 146.765 117.246 141.172 115.194 135.587C114.042 132.476 112.826 129.365 111.642 126.253C110.458 123.142 109.275 120.279 107.949 116.841C107.909 116.701 108.043 116.647 108.083 116.732Z" fill="#263238"/>
<path d="M80.2305 107.453C80.8856 107.211 81.809 107.608 82.472 107.717C83.3306 107.861 84.1982 107.946 85.0687 107.974C85.9299 108.004 86.7923 107.975 87.6496 107.888C88.5129 107.866 89.359 107.645 90.12 107.243C91.3685 106.346 92.4387 105.231 93.2771 103.952C94.276 102.646 95.101 101.218 95.7317 99.7051C95.7317 99.6118 95.8974 99.7051 95.8658 99.7674C95.5896 100.631 95.3844 101.502 95.0766 102.35C94.7363 103.146 94.3298 103.914 93.8611 104.644C93.1012 106.115 91.9774 107.372 90.5935 108.3C89.0703 109.156 87.1129 109.078 85.416 109.008C84.4318 108.952 83.4531 108.824 82.4878 108.627C81.7932 108.479 80.6251 108.37 80.1831 107.771C80.1623 107.749 80.1469 107.721 80.1379 107.692C80.129 107.663 80.1266 107.632 80.1312 107.601C80.1357 107.571 80.1469 107.542 80.1641 107.516C80.1812 107.49 80.2039 107.469 80.2305 107.453Z" fill="#263238"/>
<path d="M53.7039 233.566C59.7339 224.564 65.6534 215.489 71.4624 206.341C77.2714 197.194 83.0015 187.976 88.6526 178.688C90.0023 176.472 91.5571 174.262 92.4253 171.804C93.3724 169.136 92.8358 166.546 91.9833 163.933C90.3737 159.165 88.4923 154.49 86.348 149.931C84.2327 145.334 81.9518 140.815 79.7103 136.28C77.4687 131.745 75.1246 127.265 73.3961 122.535C71.8176 118.016 71.1783 113.333 72.4095 108.651C73.6408 103.968 76.2927 99.8297 79.063 95.9327C79.7892 94.9059 80.539 93.8869 81.273 92.8213C81.3282 92.7435 81.4466 92.8213 81.3914 92.9146C78.3369 96.975 75.3614 101.277 73.5698 106.045C72.6541 108.395 72.1419 110.879 72.0544 113.395C72.0394 115.95 72.4419 118.489 73.2462 120.917C74.73 125.647 77.0741 130.119 79.2604 134.569C81.4466 139.018 83.7829 143.623 85.9376 148.204C88.1604 152.815 90.1363 157.538 91.8571 162.354C92.5911 164.493 93.4356 166.733 93.3724 169.027C93.3172 171.54 92.1017 173.803 90.8389 175.919C85.314 185.137 79.655 194.245 73.8934 203.3C68.1317 212.354 62.2043 221.408 56.2059 230.369L53.9328 233.753C53.8144 233.893 53.6092 233.729 53.7039 233.566Z" fill="#263238"/>
<path d="M119.881 63.5819C123.298 70.9715 140.559 81.1536 148.642 82.2503C154.451 83.0282 172.114 83.3082 178.168 82.3981C185.271 81.3247 179.841 62.4618 175.65 62.9518C164.127 64.2742 154.34 65.7521 151.262 65.7521C147.505 65.7521 127.181 59.327 124.735 58.4169C118.736 56.2156 117.947 59.3893 119.881 63.5819Z" fill="#EB9481"/>
<path d="M119.995 65.5496C124.32 71.858 138.692 82.1723 138.692 82.1723L140.689 77.8163L147.295 63.4105C147.295 63.4105 134.091 59.3268 125.401 57.4599C124.378 57.2305 123.338 57.0848 122.291 57.0243C116.743 56.7287 116.261 60.1046 119.995 65.5496Z" fill="#FF5D5D"/>
<path d="M119.995 65.5497C124.32 71.858 138.692 82.1724 138.692 82.1724L140.689 77.8164C135.33 71.6791 127.051 62.3838 122.291 57.04C116.743 56.7288 116.261 60.1047 119.995 65.5497Z" fill="#263238"/>
<path d="M136.102 79.2477C137.199 76.5952 142.077 65.9153 143.293 63.6906C143.371 63.5351 143.498 63.5506 143.427 63.6906C141.311 69.0017 138.903 74.1951 136.213 79.2477C136.181 79.341 136.055 79.3099 136.102 79.2477Z" fill="#263238"/>
<path d="M173.537 63.1462C180.546 62.2439 189.22 60.696 196.568 63.7685C197.393 64.0875 198.086 64.6711 198.533 65.4253C201.848 66.7477 202.211 68.6845 202.211 68.6845C204.918 70.8469 205.013 72.8849 205.013 72.8849C205.013 72.8849 208.896 74.4406 208.304 76.9453C207.657 79.7145 202.337 76.9453 198.47 77.1709C189.591 77.7154 177.16 80.9279 174.595 81.3324L173.537 63.1462Z" fill="#EB9481"/>
<path d="M188.763 71.298C191.359 71.123 193.964 71.123 196.561 71.298C199.388 71.6476 202.185 72.2067 204.927 72.9704C204.945 72.9766 204.964 72.9756 204.981 72.9675C204.998 72.9595 205.011 72.9452 205.018 72.9276C205.024 72.9101 205.023 72.8908 205.015 72.874C205.007 72.8573 204.992 72.8444 204.974 72.8382C199.823 70.8462 194.215 70.2865 188.763 71.2202C188.636 71.2047 188.636 71.3058 188.763 71.298Z" fill="#263238"/>
<path d="M187.113 63.2161C191.446 63.4339 194.153 64.1184 198.51 65.4097V65.363C193.711 63.3872 191.746 63.2005 187.089 63.0294C186.939 63.0916 186.947 63.2161 187.113 63.2161Z" fill="#263238"/>
<path d="M187.816 78.493C186.687 79.0142 186.964 79.5976 189.118 80.0876C191.273 80.5777 200.231 80.7255 199.915 83.8058C199.6 86.8861 186.964 86.4971 183.435 85.4081C179.907 84.3192 174.596 81.3322 174.596 81.3322C177.098 80.9199 182.97 79.3565 187.816 78.493Z" fill="#EB9481"/>
<path d="M129.266 75.3583C129.211 76.6884 129.085 78.0419 128.895 79.3876C128.895 79.3331 128.895 79.2865 128.95 79.2398C129.211 78.5397 129.471 77.8241 129.787 77.1474C129.787 77.1474 129.866 77.1474 129.858 77.1474C129.706 77.8889 129.479 78.6134 129.179 79.3098C129.037 79.6443 128.903 79.971 128.753 80.2977C128.658 80.8966 128.548 81.4878 128.429 82.079C128.193 83.1913 127.127 87.9206 126.851 88.7218C126.804 88.8852 126.598 88.8463 126.614 88.6596C126.669 87.7884 127.561 82.8646 127.743 81.7445C128.095 79.5817 128.567 77.4395 129.156 75.3272C129.195 75.2883 129.274 75.3194 129.266 75.3583Z" fill="#263238"/>
<path d="M121.058 110.727C118.951 111.793 116.236 113.45 104.002 111.077C103.213 110.922 102.471 110.735 101.698 110.51C90.2297 107.118 76.4412 93.8246 75.6914 92.8834C75.6914 92.8834 93.9156 63.7684 117.223 54.613C120.103 53.4852 124.871 55.6631 127.483 58.3778C128.422 59.3502 130.466 66.4986 129.685 72.2858C128.904 78.0731 123.158 109.662 121.058 110.727Z" fill="#FF5D5D"/>
<path d="M119.417 72.0215C119.505 73.2518 119.331 74.4866 118.904 75.6463C118.804 74.4156 118.979 73.1782 119.417 72.0215Z" fill="white"/>
<path d="M111.47 91.849C111.52 92.4613 111.499 93.0772 111.407 93.6847C111.331 94.2968 111.18 94.8976 110.957 95.4738C110.903 94.859 110.924 94.24 111.02 93.6303C111.101 93.0216 111.252 92.424 111.47 91.849Z" fill="white"/>
<path d="M97.9638 76.8596C98.0527 78.0925 97.8779 79.3301 97.4508 80.4922C97.3516 79.259 97.5267 78.0193 97.9638 76.8596Z" fill="white"/>
<path d="M124.617 90.8378C124.667 91.4526 124.646 92.0712 124.553 92.6813C124.477 93.2934 124.326 93.8941 124.104 94.4703C124.049 93.8556 124.07 93.2366 124.167 92.6268C124.246 92.0154 124.397 91.4151 124.617 90.8378Z" fill="white"/>
<path d="M107.277 74.2927C107.898 74.2407 108.523 74.2589 109.14 74.3472C109.761 74.4248 110.371 74.5763 110.955 74.7983C109.707 74.8867 108.454 74.7144 107.277 74.2927Z" fill="white"/>
<path d="M91.9512 88.6129C93.1995 88.5262 94.4525 88.6984 95.6292 89.1185C94.3804 89.2171 93.1249 89.0445 91.9512 88.6129Z" fill="white"/>
<path d="M110.008 104.116C111.256 104.027 112.51 104.2 113.686 104.621C112.437 104.718 111.182 104.546 110.008 104.116Z" fill="white"/>
<path d="M87.2227 98.484C88.471 98.3973 89.724 98.5695 90.9006 98.9896C89.6519 99.0867 88.3967 98.9142 87.2227 98.484Z" fill="white"/>
<path d="M119.301 58.0823C120.549 57.9955 121.802 58.1678 122.979 58.5879C121.73 58.6746 120.477 58.5024 119.301 58.0823Z" fill="white"/>
<path d="M114.84 63.0449C114.441 63.5176 113.986 63.9408 113.483 64.305C112.994 64.6778 112.464 64.996 111.904 65.254C112.301 64.7843 112.751 64.3615 113.246 63.9939C113.74 63.6198 114.275 63.3014 114.84 63.0449Z" fill="white"/>
<path d="M90.5377 77.1475C90.1338 77.6161 89.6755 78.0364 89.1723 78.3998C88.6882 78.7796 88.1579 79.0984 87.5938 79.3488C87.9998 78.8822 88.4578 78.4621 88.9592 78.0964C89.4444 77.7183 89.9745 77.3996 90.5377 77.1475Z" fill="white"/>
<path d="M120.885 83.5104C120.482 83.9814 120.023 84.4043 119.52 84.7705C119.035 85.1486 118.505 85.4673 117.941 85.7195C118.345 85.2484 118.803 84.8255 119.307 84.4594C119.795 84.085 120.324 83.7666 120.885 83.5104Z" fill="white"/>
<path d="M101.233 95.7072C100.829 96.1782 100.371 96.6011 99.8676 96.9673C99.3816 97.3443 98.8516 97.6629 98.2891 97.9163C98.6928 97.4452 99.1511 97.0223 99.6545 96.6561C100.142 96.2818 100.672 95.9634 101.233 95.7072Z" fill="white"/>
<path d="M128.413 66.8486C128.009 67.3197 127.551 67.7426 127.047 68.1087C126.558 68.4815 126.029 68.7997 125.469 69.0577C125.873 68.5867 126.331 68.1638 126.834 67.7976C127.32 67.4206 127.85 67.102 128.413 66.8486Z" fill="white"/>
<path d="M128.005 80.9823C127.527 80.5844 127.098 80.1328 126.727 79.6366C126.342 79.1587 126.019 78.6363 125.764 78.0809C126.243 78.4742 126.673 78.9234 127.042 79.4188C127.419 79.9044 127.742 80.4286 128.005 80.9823Z" fill="white"/>
<path d="M84.2005 90.721C83.7225 90.323 83.2934 89.8714 82.9219 89.3753C82.542 88.8944 82.219 88.3725 81.959 87.8196C82.4369 88.2175 82.8661 88.6691 83.2376 89.1653C83.6202 89.6443 83.9434 90.1665 84.2005 90.721Z" fill="white"/>
<path d="M122.679 102.303C122.199 101.91 121.77 101.461 121.4 100.965C121.022 100.483 120.699 99.9616 120.438 99.4097C120.915 99.8076 121.345 100.259 121.716 100.755C122.097 101.233 122.42 101.752 122.679 102.303Z" fill="white"/>
<path d="M103.396 69.2835C102.918 68.8883 102.489 68.4393 102.117 67.9456C101.741 67.4625 101.418 66.941 101.154 66.3899C101.634 66.7831 102.063 67.2324 102.433 67.7278C102.809 68.2109 103.132 68.7324 103.396 69.2835Z" fill="white"/>
<path d="M103.734 108.899C103.256 108.502 102.827 108.05 102.455 107.554C102.076 107.072 101.753 106.55 101.492 105.998C101.972 106.391 102.401 106.841 102.771 107.336C103.151 107.82 103.474 108.344 103.734 108.899Z" fill="white"/>
<path d="M107.011 85.5327C106.538 85.1326 106.111 84.6812 105.74 84.1871C105.355 83.7099 105.031 83.1873 104.777 82.6313C105.253 83.0294 105.679 83.4811 106.048 83.977C106.432 84.4553 106.755 84.9777 107.011 85.5327Z" fill="white"/>
<path d="M123.213 66.133C120.237 65.5885 117.443 59.529 117.088 55.4531C117.088 55.1731 118.477 52.9562 120.063 50.1793C121.026 48.4913 122.044 46.5856 122.857 44.781C123.023 44.4154 123.994 45.6522 123.994 45.6522L126.109 47.2079L133.094 52.4895C131.431 54.4566 130.018 56.6169 128.887 58.9223C128.776 59.1721 128.691 59.4329 128.635 59.7002C128.632 59.7442 128.632 59.7884 128.635 59.8324C128.201 61.3725 126.078 66.6542 123.213 66.133Z" fill="#EB9481"/>
<path d="M128.637 59.7392C128.634 59.7832 128.634 59.8274 128.637 59.8715C128.222 59.7516 127.819 59.5981 127.43 59.4125C119.782 55.8811 123.152 45.7845 123.152 45.7845L126.151 47.2469L133.136 52.5285C131.473 54.4956 130.06 56.656 128.929 58.9614C128.804 59.2097 128.706 59.4704 128.637 59.7392Z" fill="#263238"/>
<path d="M141.123 30.9976C141.123 30.9976 144.619 33.1833 144.635 37.0726C144.651 40.9618 143.057 44.7655 142.725 44.9056C142.394 45.0456 141.123 30.9976 141.123 30.9976Z" fill="#263238"/>
<path d="M123.776 33.0199C121.676 37.1036 121.787 49.9771 124.407 53.2907C128.211 58.0979 135.536 59.7547 139.964 55.002C144.249 50.3971 143.807 33.6266 140.753 30.4997C136.309 25.8792 126.885 26.976 123.776 33.0199Z" fill="#EB9481"/>
<path d="M134.917 43.3265C134.917 43.3265 134.846 43.3732 134.854 43.4043C134.902 44.2833 134.807 45.2945 134.01 45.6056C134.01 45.6056 134.01 45.6601 134.01 45.6523C134.996 45.4967 135.107 44.1511 134.917 43.3265Z" fill="#263238"/>
<path d="M134.105 42.432C132.669 42.3542 132.622 45.1856 133.955 45.2556C135.289 45.3256 135.305 42.4942 134.105 42.432Z" fill="#263238"/>
<path d="M139.79 43.2953C139.79 43.2953 139.861 43.2953 139.861 43.3731C139.813 44.252 139.916 45.2633 140.721 45.5666C140.721 45.5666 140.721 45.6211 140.721 45.6133C139.727 45.4655 139.608 44.1198 139.79 43.2953Z" fill="#263238"/>
<path d="M140.602 42.393C142.031 42.3075 142.102 45.1388 140.776 45.2166C139.45 45.2944 139.403 42.463 140.602 42.393Z" fill="#263238"/>
<path d="M133.205 40.2773C133.582 40.1715 133.953 40.0469 134.317 39.9039C134.732 39.83 135.11 39.622 135.391 39.3127C135.459 39.1995 135.488 39.0673 135.472 38.9365C135.456 38.8058 135.397 38.6837 135.304 38.5893C135.09 38.4293 134.837 38.3284 134.571 38.2969C134.305 38.2655 134.035 38.3047 133.789 38.4104C133.256 38.551 132.795 38.8807 132.494 39.3361C132.434 39.4444 132.407 39.5675 132.416 39.6906C132.424 39.8138 132.469 39.9319 132.544 40.0309C132.618 40.13 132.72 40.2058 132.837 40.2495C132.955 40.2932 133.082 40.3028 133.205 40.2773Z" fill="#263238"/>
<path d="M141.581 41.5297C141.197 41.4451 140.818 41.3412 140.445 41.2185C140.029 41.1643 139.643 40.9755 139.348 40.6818C139.272 40.5737 139.235 40.4433 139.243 40.312C139.252 40.1807 139.305 40.0561 139.395 39.9584C139.598 39.7869 139.845 39.6726 140.109 39.6274C140.373 39.5822 140.644 39.6079 140.895 39.7017C141.434 39.812 141.913 40.1172 142.236 40.5574C142.304 40.6616 142.339 40.7829 142.338 40.9065C142.337 41.0302 142.3 41.1509 142.23 41.2539C142.161 41.357 142.063 41.4379 141.947 41.4869C141.832 41.5358 141.705 41.5507 141.581 41.5297Z" fill="#263238"/>
<path d="M132.898 51.6418C133.111 51.8518 133.316 52.1318 133.64 52.1629C133.972 52.1627 134.3 52.0938 134.603 51.9607C134.603 51.9607 134.658 51.9607 134.603 52.0073C134.474 52.1783 134.3 52.3114 134.099 52.3922C133.899 52.4731 133.68 52.4987 133.466 52.4663C133.286 52.4178 133.124 52.3183 133.001 52.18C132.877 52.0418 132.798 51.8708 132.772 51.6884C132.766 51.6719 132.766 51.6536 132.774 51.6376C132.781 51.6215 132.795 51.6091 132.811 51.6029C132.828 51.5967 132.847 51.5973 132.863 51.6046C132.879 51.6119 132.892 51.6253 132.898 51.6418Z" fill="#263238"/>
<path d="M138.059 47.8925C138.059 47.8925 138.099 49.1993 138.059 49.8138C136.846 49.687 135.621 49.7289 134.421 49.9383C134.136 50.0005 134.168 49.7749 134.492 49.6271C135.459 49.1914 136.536 49.0506 137.586 49.2227C137.649 49.0593 137.483 47.2002 137.586 47.208C138.063 47.3004 138.525 47.4575 138.959 47.6747C138.959 44.9367 138.517 42.2298 138.556 39.4917C138.556 39.3984 138.706 39.3828 138.722 39.4917C139.283 42.3882 139.547 45.3329 139.511 48.2815C139.519 48.6159 138.296 48.017 138.059 47.8925Z" fill="#263238"/>
<path d="M136.284 49.347C135.969 50.1626 135.385 50.8503 134.626 51.2994C133.435 51.7739 133.048 50.7083 134.248 49.7437C134.877 49.4303 135.581 49.2931 136.284 49.347Z" fill="#263238"/>
<path d="M135.046 51.0582C134.92 51.1594 134.779 51.2407 134.628 51.2994C133.531 51.735 133.097 50.8716 133.981 50.0004C134.581 50.047 135.267 50.2648 135.046 51.0582Z" fill="#FF99BA"/>
<path d="M123.174 44.0266C124.619 44.4622 126.276 40.184 126.75 38.5816C127.16 37.1348 127.634 32.5377 127.705 32.2188C127.776 31.8999 134.019 36.2869 137.634 35.2446C141.249 34.2023 143.703 30.9742 143.758 29.473C143.814 27.9717 139.291 24.1602 135.384 23.9658C131.477 23.7713 126.181 28.6329 126.181 28.6329C126.821 27.9174 127.402 27.1527 127.918 26.346C127.855 26.1749 125.329 27.1705 124.863 28.944C124.863 28.944 125.369 26.7116 125.179 26.6727C124.99 26.6338 123.024 28.5395 123.466 29.9863C123.466 29.9863 121.193 31.9232 120.988 34.0467C120.783 36.1703 121.477 43.5132 123.174 44.0266Z" fill="#263238"/>
<path d="M140.223 34.4356C139.148 35.0101 137.99 35.4193 136.789 35.649C135.442 35.7675 134.086 35.5536 132.843 35.0268C131.591 34.5501 130.428 33.872 129.402 33.0199C128.494 32.2887 127.681 31.3942 126.71 30.7408C126.466 30.5697 126.189 30.9197 126.339 31.1375C127.959 33.3922 130.273 35.0724 132.938 35.9291C134.175 36.3268 135.497 36.4011 136.772 36.1448C138.048 35.8884 139.234 35.3102 140.215 34.4667C140.215 34.4667 140.238 34.4356 140.223 34.4356Z" fill="#263238"/>
<path d="M124.685 43.6454C124.685 43.6454 122.443 39.165 120.423 39.8884C118.402 40.6118 119.634 46.8113 121.709 47.9469C121.964 48.109 122.248 48.2189 122.547 48.2699C122.845 48.3209 123.151 48.312 123.446 48.2437C123.741 48.1754 124.018 48.0492 124.262 47.8725C124.507 47.6959 124.712 47.4725 124.866 47.2157L124.685 43.6454Z" fill="#EB9481"/>
<path d="M120.822 41.6541C120.822 41.6541 120.774 41.6541 120.822 41.7163C122.258 42.5564 122.842 44.0498 123.19 45.6055C123.124 45.4409 123.023 45.2921 122.894 45.1696C122.764 45.0472 122.61 44.9538 122.44 44.8961C122.27 44.8385 122.09 44.8178 121.911 44.8355C121.733 44.8532 121.56 44.9089 121.406 44.9988C121.359 44.9988 121.406 45.0844 121.406 45.0844C121.688 45.0411 121.977 45.0852 122.233 45.2106C122.489 45.336 122.699 45.5365 122.834 45.7844C123.06 46.1998 123.24 46.6379 123.371 47.0912C123.419 47.239 123.679 47.2001 123.655 47.0368C123.995 45.0999 122.89 42.1674 120.822 41.6541Z" fill="#263238"/>
<path d="M109.884 63.6516C108.306 72.4647 117.998 102.155 124.209 107.701C133.452 115.947 150.539 121.368 156.735 123.134C159.434 123.912 166.901 105.189 164.17 103.952C158.321 101.331 140.153 95.7303 138.424 94.3301C136.696 92.93 126.277 78.0963 121.636 69.5555C115.425 58.0589 110.666 59.1945 109.884 63.6516Z" fill="#EB9481"/>
<path d="M159.57 102.303C159.57 102.303 167.636 104.334 172.837 105.897C175.742 106.776 180.588 108.713 182.427 110.315C185.174 112.719 195.103 124.48 192.261 126.915C189.688 129.124 182.459 117.946 182.459 117.946C182.459 117.946 190.762 128.587 187.194 130.679C183.627 132.772 177.099 119.074 177.099 119.074C177.099 119.074 185.379 130.197 181.33 131.776C178.268 132.966 171.701 120.886 171.701 120.886C171.701 120.886 178.757 130.493 175.647 131.854C172.222 133.363 165.458 122.582 165.458 122.582C156.997 124.737 152.04 122.349 148.781 120.248C148.015 119.735 159.57 102.303 159.57 102.303Z" fill="#EB9481"/>
<path d="M179.821 114.08C180.847 115.293 181.889 116.522 182.797 117.821C183.705 119.12 184.565 120.458 185.346 121.835C186.405 123.616 187.252 125.511 187.872 127.482C186.514 124.06 183.334 119.354 182.426 118.055C181.518 116.756 180.674 115.41 179.774 114.111C179.75 114.08 179.798 114.049 179.821 114.08Z" fill="#263238"/>
<path d="M174.998 117.23C176.75 118.599 180.42 123.686 181.833 127.101C181.896 127.241 181.833 127.233 181.73 127.101C180.625 125.413 176.142 118.879 174.958 117.254C174.935 117.23 174.974 117.207 174.998 117.23Z" fill="#263238"/>
<path d="M170.364 119.222C172.541 121.472 174.261 124.112 175.431 127C175.487 127.14 175.376 127.117 175.289 127C173.655 124.379 172.393 122.333 170.277 119.292C170.246 119.222 170.317 119.151 170.364 119.222Z" fill="#263238"/>
<path d="M118.691 64.2974C111.485 54.2553 107.175 57.9735 108.62 68.879C109.977 79.0766 113.6 91.2267 113.6 91.2267L131.753 82.5458C131.753 82.5458 123.276 70.7302 118.691 64.2974Z" fill="#FF5D5D"/>
<path d="M123.072 68.2488C123.311 68.816 123.483 69.4085 123.585 70.0145C123.695 70.6225 123.735 71.2411 123.703 71.858C123.466 71.2879 123.297 70.6928 123.198 70.0845C123.081 69.4799 123.038 68.8635 123.072 68.2488Z" fill="white"/>
<path d="M112.314 74.355C113.473 73.8906 114.719 73.6783 115.969 73.7327C115.393 73.966 114.792 74.133 114.177 74.2305C113.564 74.346 112.938 74.3878 112.314 74.355Z" fill="white"/>
<path d="M112.781 58.7357C112.293 59.8725 111.564 60.8935 110.643 61.7304C111.131 60.5937 111.861 59.5727 112.781 58.7357Z" fill="white"/>
<path d="M128.162 79.0454C127.923 79.6143 127.618 80.1545 127.255 80.6556C126.901 81.163 126.487 81.6277 126.023 82.0401C126.512 80.9033 127.241 79.8824 128.162 79.0454Z" fill="white"/>
<path d="M115.533 85.1359C114.954 84.9026 114.406 84.6023 113.899 84.2414C113.384 83.8928 112.912 83.4855 112.494 83.028C113.648 83.5097 114.684 84.2283 115.533 85.1359Z" fill="white"/>
<path d="M121.059 67.3232C122.03 68.6378 123.032 69.9213 124.027 71.2125C123.774 70.5591 123.553 69.8979 123.364 69.229H123.411C123.608 69.7424 123.837 70.248 124.027 70.7847L124.311 71.5625C124.335 71.6156 124.357 71.6702 124.374 71.7259C125.163 72.7293 125.953 73.7327 126.679 74.7595C127.571 75.9885 128.431 77.2331 129.299 78.4776C130.167 79.7222 131.043 81.2701 131.983 82.5225C132.069 82.6314 130.404 83.3003 130.223 83.3859C130.041 83.4715 129.946 83.3237 130.12 83.2692C130.294 83.2148 131.62 82.4136 131.635 82.398C130.767 81.1379 129.765 79.9789 128.857 78.7577C127.949 77.5364 127.05 76.3152 126.174 75.0784C124.398 72.5582 122.772 69.9446 121.004 67.4166L121.059 67.3232Z" fill="#263238"/>
<path d="M109.046 76.0974C109.323 76.6263 109.622 77.1475 109.836 77.692L110.135 78.3687C109.717 76.4319 109.346 74.4795 108.912 72.5426C109.749 75.654 110.593 78.8354 111.367 81.9935C112.101 85.0116 112.993 88.0607 113.419 91.141C113.969 90.9031 114.54 90.7131 115.124 90.5732C114.538 90.947 113.907 91.2475 113.245 91.4678C112.294 88.3354 111.503 85.1577 110.877 81.9468C110.68 81.0756 110.499 80.2044 110.309 79.3333C110.104 78.8043 109.859 78.2987 109.615 77.7775C109.37 77.2564 109.149 76.673 108.928 76.1207C108.975 76.0896 109.03 76.0585 109.046 76.0974Z" fill="#263238"/>
<path d="M113.869 88.2241C116.395 86.824 126.947 81.4412 129.307 80.4456C129.473 80.3756 129.56 80.4456 129.394 80.5545C124.385 83.423 119.221 86.0197 113.925 88.333C113.861 88.3486 113.798 88.263 113.869 88.2241Z" fill="#263238"/>
<path d="M403.079 292.721H162.605L197.373 98.375H437.846L403.079 292.721Z" fill="#FF5D5D"/>
<path d="M279.678 78.2443H200.98L197.373 98.3751H281.596L279.678 78.2443Z" fill="#FF5D5D"/>
<g opacity="0.1">
<path d="M403.081 292.721H162.607L197.375 98.375H437.848L403.081 292.721Z" fill="black"/>
<path d="M279.68 78.2443H200.982L197.375 98.3751H281.598L279.68 78.2443Z" fill="black"/>
</g>
<path d="M192.486 86.4584C191.96 84.2324 191.96 81.917 192.486 79.691C193.013 81.917 193.013 84.2324 192.486 86.4584Z" fill="#263238"/>
<path d="M185.498 88.4497C184.694 87.6284 184.002 86.7081 183.438 85.7116C182.846 84.7359 182.382 83.6905 182.057 82.6002C182.863 83.4167 183.555 84.3347 184.117 85.3305C184.707 86.3096 185.171 87.3574 185.498 88.4497Z" fill="#263238"/>
<path d="M180.445 93.6224C178.227 92.9579 176.194 91.8002 174.502 90.2388C175.608 90.5557 176.669 91.0106 177.659 91.5922C178.67 92.1516 179.606 92.8336 180.445 93.6224Z" fill="#263238"/>
<path d="M178.675 100.592C176.417 101.11 174.067 101.11 171.809 100.592C174.067 100.073 176.417 100.073 178.675 100.592Z" fill="#263238"/>
<path d="M180.728 107.484C179.891 108.272 178.958 108.954 177.95 109.514C176.96 110.096 175.899 110.55 174.793 110.867C175.626 110.075 176.56 109.393 177.571 108.837C178.559 108.253 179.621 107.798 180.728 107.484Z" fill="#263238"/>
<path d="M185.968 112.454C185.297 114.643 184.122 116.65 182.535 118.319C182.857 117.227 183.321 116.181 183.916 115.208C184.479 114.208 185.169 113.282 185.968 112.454Z" fill="#263238"/>
<path d="M193.041 114.173C193.316 115.28 193.449 116.417 193.436 117.557C193.453 118.697 193.32 119.834 193.041 120.941C192.758 119.835 192.626 118.697 192.647 117.557C192.634 116.417 192.766 115.28 193.041 114.173Z" fill="#263238"/>
<path d="M200.033 112.221C200.837 113.042 201.529 113.962 202.093 114.959C202.686 115.933 203.148 116.979 203.467 118.07C201.88 116.401 200.705 114.394 200.033 112.205V112.221Z" fill="#263238"/>
<path d="M205.078 107.009C206.186 107.323 207.247 107.778 208.235 108.363C209.246 108.919 210.18 109.601 211.013 110.393C209.906 110.079 208.845 109.624 207.856 109.039C206.845 108.484 205.911 107.801 205.078 107.009Z" fill="#263238"/>
<path d="M206.822 100.04C209.084 99.5211 211.435 99.5211 213.697 100.04C211.435 100.558 209.084 100.558 206.822 100.04Z" fill="#263238"/>
<path d="M204.801 93.1481C205.636 92.3608 206.57 91.6812 207.579 91.1256C208.565 90.5356 209.627 90.0778 210.736 89.7644C209.043 91.328 207.006 92.4859 204.785 93.1481H204.801Z" fill="#263238"/>
<path d="M199.551 88.1774C199.876 87.0881 200.337 86.043 200.924 85.066C201.488 84.0696 202.18 83.1493 202.984 82.328C202.665 83.4196 202.204 84.4655 201.611 85.4394C201.047 86.4359 200.354 87.3562 199.551 88.1774Z" fill="#263238"/>
<path d="M402.725 292.721H161.738L127.516 105.43H368.51L402.725 292.721Z" fill="#FF5D5D"/>
<path d="M211.028 219.922C216.559 219.922 221.043 215.503 221.043 210.051C221.043 204.6 216.559 200.18 211.028 200.18C205.496 200.18 201.012 204.6 201.012 210.051C201.012 215.503 205.496 219.922 211.028 219.922Z" fill="#263238"/>
<path d="M290.207 219.922C295.739 219.922 300.223 215.503 300.223 210.051C300.223 204.6 295.739 200.18 290.207 200.18C284.676 200.18 280.191 204.6 280.191 210.051C280.191 215.503 284.676 219.922 290.207 219.922Z" fill="#263238"/>
<path d="M265.007 221.501L264.454 220.467C264.407 220.373 259.229 210.946 248.819 210.946C239.348 210.946 236.98 219.821 236.917 220.202L236.633 221.33L234.336 220.786L234.612 219.65C234.612 219.541 237.438 208.612 248.819 208.612C260.658 208.612 266.317 218.942 266.554 219.386L267.106 220.412L265.007 221.501Z" fill="#263238"/>
<path d="M386.812 209.297L386.646 208.519C387.16 208.41 387.665 208.293 388.17 208.161L388.367 208.939C387.83 209.071 387.333 209.188 386.812 209.297Z" fill="#263238"/>
<path d="M391.421 208.044L391.169 207.313C392.155 206.979 393.142 206.613 394.097 206.216L394.405 206.932C393.434 207.337 392.431 207.71 391.421 208.044ZM397.301 205.563L396.946 204.879C397.869 204.404 398.793 203.891 399.669 203.323L400.079 203.984C399.18 204.598 398.24 205.12 397.301 205.563ZM402.731 202.273L402.266 201.643C403.118 201.028 403.939 200.383 404.712 199.721L405.233 200.305C404.405 201.013 403.615 201.674 402.723 202.304L402.731 202.273ZM407.546 198.135L406.97 197.598C407.696 196.82 408.382 196.042 409.014 195.264L409.637 195.739C408.982 196.594 408.28 197.396 407.562 198.166L407.546 198.135ZM411.453 193.156L410.782 192.744C411.327 191.875 411.813 190.971 412.234 190.037L412.96 190.356C412.514 191.329 412.008 192.275 411.445 193.187L411.453 193.156ZM414.065 187.385L413.276 187.167C413.564 186.191 413.778 185.195 413.915 184.188L414.704 184.289C414.574 185.346 414.357 186.392 414.057 187.416L414.065 187.385ZM414.941 181.162H414.152V180.936C414.152 179.995 414.097 179.038 414.002 178.097L414.791 178.019C414.895 178.988 414.948 179.962 414.949 180.936L414.941 181.162ZM413.521 175.071C413.308 174.068 413.045 173.077 412.731 172.1L413.521 171.866C413.844 172.878 414.12 173.904 414.31 174.908L413.521 175.071ZM411.65 169.214C411.271 168.296 410.861 167.355 410.356 166.406L411.066 166.056C411.547 167.02 411.989 167.985 412.376 168.918L411.65 169.214ZM408.888 163.668C408.398 162.82 407.862 161.926 407.309 161.008L407.98 160.595C408.556 161.521 409.101 162.423 409.559 163.287L408.888 163.668ZM405.588 158.386C405.012 157.531 404.428 156.667 403.828 155.804L404.483 155.368C405.083 156.232 405.667 157.095 406.244 157.966L405.588 158.386ZM402.037 153.237C401.445 152.381 400.845 151.518 400.261 150.662L400.916 150.227C401.5 151.082 402.092 151.946 402.684 152.794L402.037 153.237ZM398.509 148.056C397.933 147.185 397.372 146.298 396.82 145.412L397.491 145.007C398.043 145.894 398.603 146.765 399.172 147.636L398.509 148.056ZM395.218 142.713C394.681 141.771 394.184 140.838 393.734 139.943L394.444 139.593C394.886 140.48 395.383 141.398 395.904 142.331L395.218 142.713ZM392.416 137.112C391.997 136.14 391.626 135.152 391.279 134.187L392.068 133.938C392.4 134.88 392.771 135.852 393.181 136.809L392.416 137.112ZM390.364 131.177C390.103 130.166 389.874 129.131 389.701 128.066L390.49 127.941C390.663 128.937 390.877 129.948 391.137 130.944L390.364 131.177ZM389.306 124.954C389.227 123.997 389.188 123.033 389.188 122.068V121.812H389.977V122.061C389.977 123.002 389.977 123.951 390.095 124.884L389.306 124.954ZM390.095 118.731L389.306 118.654C389.306 118.444 389.345 118.226 389.369 118C389.464 117.168 389.582 116.336 389.724 115.542L390.514 115.674C390.379 116.452 390.261 117.269 390.166 118.086C390.198 118.327 390.198 118.537 390.135 118.755L390.095 118.731ZM391.192 112.68L390.403 112.47C390.695 111.443 391.034 110.439 391.413 109.483L392.147 109.763C391.789 110.726 391.483 111.707 391.232 112.703L391.192 112.68ZM430.521 108.145C430.079 108.145 429.622 108.083 429.172 108.02C428.556 107.935 427.94 107.834 427.333 107.717L427.491 106.939C428.075 107.048 428.682 107.149 429.282 107.235C429.708 107.289 430.143 107.328 430.561 107.351L430.521 108.145ZM433.765 107.904L433.6 107.126C434.59 106.924 435.54 106.561 436.409 106.052L436.82 106.714C435.89 107.28 434.871 107.691 433.805 107.927L433.765 107.904ZM393.465 106.978L392.763 106.612C393.266 105.685 393.822 104.786 394.428 103.921L395.075 104.364C394.499 105.212 393.974 106.092 393.505 107.001L393.465 106.978ZM424.247 106.931C423.228 106.613 422.227 106.242 421.248 105.819L421.571 105.103C422.52 105.519 423.492 105.88 424.484 106.185L424.247 106.931ZM439.243 104.504L438.588 104.069C439.15 103.265 439.482 102.328 439.551 101.354L440.34 101.409C440.273 102.524 439.902 103.602 439.266 104.528L439.243 104.504ZM418.406 104.388C417.482 103.859 416.589 103.28 415.731 102.653L416.196 102.031C417.032 102.638 417.901 103.199 418.801 103.711L418.406 104.388ZM397.017 101.961L396.433 101.44C397.148 100.656 397.909 99.9161 398.714 99.2228L399.235 99.8062C398.461 100.489 397.728 101.216 397.041 101.984L397.017 101.961ZM413.268 100.646C412.482 99.9326 411.736 99.177 411.034 98.3828L411.626 97.8694C412.309 98.6408 413.034 99.3757 413.797 100.071L413.268 100.646ZM438.959 98.5383C438.506 97.6494 437.882 96.8566 437.12 96.2048L437.641 95.6214C438.479 96.3363 439.168 97.2056 439.669 98.1805L438.959 98.5383ZM401.689 97.9238L401.24 97.286C402.123 96.6919 403.037 96.144 403.978 95.6447L404.349 96.3292C403.443 96.823 402.563 97.3631 401.713 97.9472L401.689 97.9238ZM409.061 95.9014C408.761 95.4814 408.469 95.0536 408.193 94.6102L407.167 95.0069L406.867 94.2913L407.775 93.9334C407.633 93.7001 407.491 93.4667 407.356 93.2334L408.043 92.8522C408.201 93.1245 408.359 93.3967 408.525 93.6301C408.967 93.4745 409.416 93.3267 409.874 93.1867L410.103 93.9646C409.716 94.0812 409.314 94.2057 408.951 94.3379C409.195 94.7191 409.448 95.1158 409.74 95.4503L409.061 95.9014ZM434.578 94.5635C433.815 94.1884 433.023 93.8712 432.21 93.6145L431.69 93.4512L431.918 92.6733L432.455 92.8444C433.301 93.1101 434.124 93.4404 434.918 93.8323L434.578 94.5635ZM413.126 93.1711L412.96 92.3933C413.978 92.1677 415.036 91.981 416.117 91.8332L416.236 92.6111C415.194 92.7744 414.16 92.9689 413.15 93.1945L413.126 93.1711ZM428.675 92.7511C427.688 92.58 426.646 92.4478 425.581 92.3544L425.644 91.5766C426.741 91.6699 427.806 91.8021 428.801 91.981L428.675 92.7511ZM419.322 92.2999L419.266 91.5221C420.206 91.4676 421.145 91.4365 422.076 91.4365H422.463V92.2144H422.084C421.192 92.2377 420.261 92.2611 419.345 92.3233L419.322 92.2999ZM405.983 90.4409C405.557 89.4919 405.194 88.504 404.839 87.5006L405.628 87.2595C405.959 88.2396 406.33 89.2041 406.741 90.1297L405.983 90.4409ZM403.986 84.467C403.749 83.4636 403.552 82.4212 403.402 81.3556L404.191 81.2467C404.341 82.2734 404.531 83.2924 404.76 84.2803L403.986 84.467ZM403.102 78.2442C403.063 77.5441 403.039 76.8285 403.039 76.1128C403.039 75.7784 403.039 75.4361 403.039 75.1016H403.828C403.828 75.4361 403.828 75.7628 403.828 76.0973C403.828 76.7974 403.828 77.5052 403.884 78.1819L403.102 78.2442ZM404.041 72.0213L403.252 71.9436C403.363 70.9168 403.513 69.8667 403.694 68.8321L404.483 68.9644C404.27 69.9989 404.12 70.9946 404.018 72.0369L404.041 72.0213ZM405.123 65.9463L404.334 65.7596C404.586 64.7562 404.878 63.745 405.202 62.7338L405.991 62.9749C405.636 63.9939 405.344 64.9818 405.099 65.9619L405.123 65.9463ZM407.017 60.058L406.283 59.7779C406.67 58.8056 407.072 57.8333 407.554 56.8921L408.264 57.2344C407.791 58.1678 407.372 59.1168 406.993 60.1046L407.017 60.058ZM409.732 54.5119L409.045 54.1152C409.582 53.2207 410.158 52.3261 410.758 51.4705L411.405 51.9139C410.79 52.7695 410.229 53.6407 409.708 54.5274L409.732 54.5119ZM413.292 49.4481L412.676 48.958C413.339 48.1802 414.049 47.3556 414.783 46.6245L415.352 47.1612C414.61 47.8924 413.915 48.6702 413.268 49.4636L413.292 49.4481ZM417.585 44.9676L417.057 44.392C417.846 43.6997 418.635 43.0152 419.48 42.3541L419.969 42.9686C419.124 43.6297 418.319 44.3065 417.562 44.9832L417.585 44.9676ZM422.487 41.125L422.037 40.4794C422.897 39.896 423.797 39.3204 424.712 38.7759L425.115 39.4371C424.199 39.9894 423.347 40.5572 422.463 41.1406L422.487 41.125ZM427.846 37.9125L427.475 37.228C428.406 36.738 429.369 36.2712 430.332 35.8357L430.663 36.5435C429.661 36.9869 428.738 37.4536 427.822 37.9281L427.846 37.9125ZM433.552 35.33L433.26 34.5989C434.255 34.2177 435.257 33.821 436.251 33.5332L436.504 34.3111C435.502 34.6066 434.507 34.9645 433.529 35.3456L433.552 35.33Z" fill="#263238"/>
<path d="M439.637 33.362L439.439 32.5841C440.418 32.3352 441.018 32.2263 441.018 32.2263L441.16 33.0042C441.16 33.0042 440.592 33.1208 439.637 33.362Z" fill="#263238"/>
<path d="M453.59 28.337C451.578 22.192 438.097 24.4011 440.725 32.4363C443.353 40.4715 455.603 34.4898 453.59 28.337Z" fill="#263238"/>
<path d="M433.397 25.879C433.499 23.1799 437.304 21.103 442.686 22.0598C448.069 23.0165 453.128 26.5947 453.128 26.5947C453.128 26.5947 447.817 29.7683 442.378 30.3517C436.94 30.9351 433.294 28.5704 433.397 25.879Z" fill="#EBEBEB"/>
<path d="M453.127 26.5793C450.333 26.5793 447.547 26.5015 444.761 26.4159C441.975 26.3303 439.181 26.1903 436.395 25.9725C439.189 25.9725 441.983 26.0425 444.769 26.1281C447.555 26.2137 450.349 26.3537 453.127 26.5793Z" fill="#263238"/>
<path d="M438.801 23.4755C440.387 24.2233 441.883 25.1444 443.26 26.2213C442.466 25.8542 441.697 25.4385 440.955 24.9767C440.208 24.5181 439.489 24.0168 438.801 23.4755Z" fill="#263238"/>
<path d="M446.117 26.3225C444.69 27.4629 443.142 28.4487 441.5 29.2628C442.935 28.121 444.491 27.1352 446.141 26.3225H446.117Z" fill="#263238"/>
<path d="M446.932 24.8057C447.728 25.1826 448.425 25.7364 448.968 26.4236C448.57 26.2384 448.196 26.0059 447.855 25.7313C447.512 25.4585 447.203 25.1479 446.932 24.8057Z" fill="#263238"/>
<path d="M438.524 41.8638C440.206 43.9951 444.523 43.4817 448.319 39.608C452.116 35.7343 454.128 29.9082 454.128 29.9082C454.128 29.9082 447.909 30.3749 443.165 33.0196C438.422 35.6643 436.835 39.7247 438.524 41.8638Z" fill="#EBEBEB"/>
<path d="M454.128 29.9082C451.855 31.4639 449.645 33.1907 447.427 34.8631C445.21 36.5355 443.039 38.2623 440.916 40.0436C443.189 38.4879 445.399 36.7689 447.609 35.0965C449.819 33.4241 451.974 31.6973 454.128 29.9082Z" fill="#263238"/>
<path d="M444.326 40.6583C444.748 39.9027 445.125 39.1235 445.455 38.3247C445.791 37.5237 446.075 36.7027 446.307 35.8667C445.884 36.6216 445.507 37.4009 445.179 38.2003C444.846 39.0025 444.561 39.8232 444.326 40.6583Z" fill="#263238"/>
<path d="M448.603 34.1554C446.756 34.0581 444.904 34.1546 443.078 34.4432C443.998 34.4977 444.921 34.4977 445.841 34.4432C446.766 34.3988 447.688 34.3027 448.603 34.1554Z" fill="#263238"/>
<path d="M450.129 34.9254C450.34 34.5412 450.504 34.1339 450.618 33.7119C450.735 33.293 450.804 32.8625 450.823 32.4285C450.404 33.1985 450.166 34.0521 450.129 34.9254Z" fill="#263238"/>
<path d="M453.593 28.337C453.147 28.4796 452.669 28.4887 452.218 28.363C451.767 28.2374 451.364 27.9827 451.06 27.6312C450.756 27.2796 450.565 26.8471 450.51 26.3883C450.456 25.9296 450.541 25.4652 450.754 25.0541C450.968 24.643 451.3 24.3035 451.71 24.0788C452.119 23.8541 452.587 23.7541 453.054 23.7916C453.521 23.8292 453.967 24.0024 454.334 24.2896C454.701 24.5767 454.973 24.9647 455.116 25.4045C455.308 25.9924 455.255 26.6312 454.97 27.1809C454.684 27.7305 454.189 28.1463 453.593 28.337Z" fill="#455A64"/>
<path d="M455.044 32.7786C454.599 32.9207 454.12 32.9294 453.67 32.8036C453.219 32.6779 452.817 32.4233 452.513 32.0721C452.209 31.7209 452.018 31.2888 451.963 30.8305C451.909 30.3722 451.993 29.9082 452.206 29.4973C452.419 29.0863 452.751 28.7467 453.16 28.5215C453.568 28.2964 454.036 28.1957 454.502 28.2322C454.969 28.2687 455.414 28.4407 455.782 28.7266C456.15 29.0125 456.423 29.3994 456.567 29.8383C456.663 30.13 456.7 30.4374 456.675 30.743C456.651 31.0487 456.565 31.3465 456.424 31.6196C456.282 31.8926 456.088 32.1355 455.851 32.3344C455.614 32.5333 455.34 32.6842 455.044 32.7786Z" fill="#455A64"/>
<path d="M196.281 30.7952C195.903 34.368 194.525 37.7669 192.301 40.6127C190.077 43.4585 187.094 45.6392 183.685 46.9115C180.276 48.1837 176.576 48.4975 172.997 47.8177C169.418 47.138 166.101 45.4914 163.416 43.0619L153.574 44.4854L158.499 36.1001C157.373 33.3717 156.892 30.4262 157.094 27.4874C157.296 24.5485 158.175 21.6937 159.663 19.1396C161.152 16.5855 163.212 14.3994 165.686 12.7474C168.161 11.0953 170.985 10.0207 173.944 9.60528C176.903 9.18982 179.919 9.44441 182.763 10.3497C185.607 11.255 188.204 12.7872 190.358 14.8298C192.511 16.8725 194.164 19.372 195.19 22.1384C196.216 24.9048 196.59 27.8653 196.281 30.7952Z" fill="white"/>
<path d="M196.28 30.7951C195.91 34.3661 194.544 37.7663 192.334 40.6194C191.254 42.0623 189.952 43.33 188.474 44.3764C187.029 45.4621 185.435 46.3395 183.739 46.9822C182.042 47.6408 180.259 48.0598 178.443 48.2268C177.535 48.3071 176.622 48.3253 175.712 48.2812C174.798 48.2581 173.888 48.1645 172.989 48.0012C169.361 47.3435 165.992 45.7031 163.257 43.2641L163.486 43.3341L153.66 44.8198L152.941 44.9287L153.304 44.3064L158.198 35.9056V36.2401C157.043 33.4613 156.552 30.458 156.763 27.4624C156.974 24.4668 157.881 21.5591 159.413 18.964C160.944 16.377 163.049 14.1646 165.57 12.4922C168.086 10.8421 170.95 9.77493 173.945 9.37078C176.939 8.96664 179.988 9.23601 182.862 10.1587C185.706 11.1122 188.298 12.6802 190.447 14.748C192.592 16.8107 194.232 19.3277 195.243 22.1082C196.253 24.8886 196.608 27.8594 196.28 30.7951ZM196.28 30.7951C196.599 27.8739 196.232 24.9195 195.209 22.16C194.185 19.4005 192.532 16.9098 190.376 14.8802C188.221 12.8505 185.621 11.3362 182.777 10.4542C179.933 9.57212 176.922 9.34594 173.975 9.79309C171.058 10.2186 168.28 11.2991 165.854 12.9512C163.449 14.6162 161.44 16.7767 159.966 19.2829C158.515 21.7947 157.659 24.5975 157.464 27.4815C157.272 30.3849 157.747 33.2936 158.853 35.9912L158.924 36.1623L158.829 36.3256L153.873 44.6953L153.525 44.1819L163.376 42.8207H163.51L163.604 42.9063C166.237 45.3215 169.5 46.9671 173.028 47.659C173.907 47.8355 174.799 47.9421 175.696 47.9779C176.592 48.0401 177.491 48.0401 178.387 47.9779C180.184 47.8352 181.953 47.4504 183.644 46.8344C185.339 46.2263 186.934 45.3773 188.379 44.3142C189.851 43.2762 191.155 42.0253 192.247 40.6038C194.486 37.7646 195.882 34.3693 196.28 30.7951Z" fill="#263238"/>
<path d="M167.103 37.819C167.088 37.5615 167.126 37.3036 167.217 37.0615C167.307 36.8193 167.446 36.598 167.627 36.4113C167.808 36.2245 168.025 36.0764 168.266 35.976C168.507 35.8756 168.767 35.8251 169.029 35.8277C169.565 35.8277 170.078 36.0375 170.457 36.4109C170.836 36.7844 171.049 37.2909 171.049 37.819C171.049 38.3471 170.836 38.8536 170.457 39.2271C170.078 39.6005 169.565 39.8103 169.029 39.8103C168.767 39.8129 168.507 39.7624 168.266 39.662C168.025 39.5616 167.808 39.4135 167.627 39.2267C167.446 39.04 167.307 38.8187 167.217 38.5765C167.126 38.3344 167.088 38.0765 167.103 37.819ZM167.892 33.2219L167.434 17.7893H170.591L170.134 33.2219H167.892Z" fill="#FF5D5D"/>
<path d="M174.605 37.819C174.59 37.5621 174.628 37.3049 174.718 37.0633C174.808 36.8217 174.947 36.6007 175.126 36.4141C175.306 36.2275 175.523 36.0792 175.763 35.9783C176.003 35.8775 176.262 35.8262 176.523 35.8277C177.059 35.8277 177.572 36.0375 177.951 36.4109C178.33 36.7844 178.543 37.2909 178.543 37.819C178.543 38.3471 178.33 38.8536 177.951 39.2271C177.572 39.6005 177.059 39.8103 176.523 39.8103C176.262 39.8118 176.003 39.7605 175.763 39.6597C175.523 39.5588 175.306 39.4105 175.126 39.2239C174.947 39.0373 174.808 38.8163 174.718 38.5747C174.628 38.3331 174.59 38.0759 174.605 37.819ZM175.394 33.2219L174.96 17.7893H178.117L177.659 33.2219H175.394Z" fill="#FF5D5D"/>
<path d="M182.103 37.819C182.088 37.5615 182.126 37.3036 182.217 37.0615C182.307 36.8193 182.446 36.598 182.627 36.4113C182.808 36.2245 183.025 36.0764 183.266 35.976C183.507 35.8756 183.767 35.8251 184.029 35.8277C184.565 35.8277 185.078 36.0375 185.457 36.4109C185.836 36.7844 186.049 37.2909 186.049 37.819C186.049 38.3471 185.836 38.8536 185.457 39.2271C185.078 39.6005 184.565 39.8103 184.029 39.8103C183.767 39.8129 183.507 39.7624 183.266 39.662C183.025 39.5616 182.808 39.4135 182.627 39.2267C182.446 39.04 182.307 38.8187 182.217 38.5765C182.126 38.3344 182.088 38.0765 182.103 37.819ZM182.892 33.2219L182.434 17.7893H185.591L185.141 33.2219H182.892Z" fill="#FF5D5D"/>
</svg>
